<?xml version="1.0" encoding="UTF-8" standalone="no"?>
<svg
   xmlns:dc="http://purl.org/dc/elements/1.1/"
   xmlns:cc="http://creativecommons.org/ns#"
   xmlns:rdf="http://www.w3.org/1999/02/22-rdf-syntax-ns#"
   xmlns:svg="http://www.w3.org/2000/svg"
   xmlns="http://www.w3.org/2000/svg"
   version="1.1"
   id="svg5275"
   xml:space="preserve"
   width="200"
   height="200.0016"
   viewBox="0 0 200 200.00159"><metadata
     id="metadata5281"><rdf:RDF><cc:Work
         rdf:about=""><dc:format>image/svg+xml</dc:format><dc:type
           rdf:resource="http://purl.org/dc/dcmitype/StillImage" /><dc:title></dc:title></cc:Work></rdf:RDF></metadata><defs
     id="defs5279"><clipPath
       clipPathUnits="userSpaceOnUse"
       id="clipPath5291"><path
         d="M 0,127.559 H 127.559 V 0 H 0 Z"
         id="path5289" /></clipPath></defs><g
     id="g5283"
     transform="matrix(1.6033992,0,0,-1.6033992,-2.0799294,202.20163)"><g
       id="g5285"><g
         id="g5287"
         clip-path="url(#clipPath5291)"><g
           id="g5293"
           transform="translate(126.0322,7.7681)"><path
             d="m 0,0 c 0,-3.532 -2.865,-6.396 -6.396,-6.396 h -111.942 c -3.534,0 -6.397,2.864 -6.397,6.396 v 111.943 c 0,3.533 2.863,6.397 6.397,6.397 H -6.396 c 3.531,0 6.396,-2.864 6.396,-6.397 z"
             style="fill:#1476c6;fill-opacity:1;fill-rule:nonzero;stroke:none"
             id="path5295" /></g><g
           id="g5297"
           transform="translate(39.1904,67.168)"><path
             d="m 0,0 c -0.559,-11.099 -3.129,-33.792 -7.279,-49.121 l -9.424,-0.008 -0.089,71.922 c 0.771,2.209 2.128,4.316 4.158,5.592 1.341,0.826 2.909,1.254 4.481,1.205 3.408,-0.166 6.34,-2.792 7.416,-5.995 1.691,-5.134 1.175,-9.571 1.122,-15.646 z"
             style="fill:#ffffff;fill-opacity:1;fill-rule:nonzero;stroke:none"
             id="path5299" /></g><g
           id="g5301"
           transform="translate(35.793,108.6499)"><path
             d="m 0,0 c -2.158,2.562 -6.01,2.899 -8.569,0.75 -2.569,-2.155 -2.905,-5.998 -0.749,-8.568 2.146,-2.565 5.995,-2.902 8.568,-0.753 C 1.807,-6.411 2.147,-2.563 0,0"
             style="fill:#ffffff;fill-opacity:1;fill-rule:nonzero;stroke:none"
             id="path5303" /></g><g
           id="g5305"
           transform="translate(77.0166,57.7231)"><path
             d="m 0,0 15.141,0.009 c 0.225,3.767 -1.612,6.532 -5.17,6.566 L -0.2,6.594 Z"
             style="fill:#ffffff;fill-opacity:1;fill-rule:nonzero;stroke:none"
             id="path5307" /></g><g
           id="g5309"
           transform="translate(84.5625,53.3799)"><path
             d="m 0,0 -4.942,0.016 -0.18,1.252 -0.604,6.911 -1.075,11.946 c -0.463,5.147 -5.13,9.179 -10.308,8.04 -4.486,-0.95 -7.523,-5.12 -7.117,-9.696 l 2.183,-23.561 c 0.221,-2.082 1.251,-3.893 2.95,-5.06 1.787,-1.226 2.393,-1.024 5.296,-1.269 l 18.709,-0.054 7.802,-24.584 8.592,1.283 -5.286,28.547 c -0.27,3.506 -4.335,6.104 -7.579,6.104 L 0,0"
             style="fill:#ffffff;fill-opacity:1;fill-rule:nonzero;stroke:none"
             id="path5311" /></g><g
           id="g5313"
           transform="translate(71.835,94.1216)"><path
             d="m 0,0 c -2.22,2.935 -6.43,3.527 -9.361,1.315 -2.947,-2.216 -3.534,-6.416 -1.317,-9.36 2.208,-2.938 6.417,-3.529 9.363,-1.319 C 1.614,-7.14 2.21,-2.936 0,0"
             style="fill:#ffffff;fill-opacity:1;fill-rule:nonzero;stroke:none"
             id="path5315" /></g><g
           id="g5317"
           transform="translate(88.1816,35.7974)"><path
             d="m 0,0 c -2.111,-9.519 -10.601,-16.638 -20.755,-16.638 -11.74,0 -21.258,9.516 -21.258,21.256 0,9.051 5.657,16.781 13.63,19.847"
             style="fill:none;stroke:#ffffff;stroke-width:4.18499994;stroke-linecap:butt;stroke-linejoin:miter;stroke-miterlimit:4;stroke-dasharray:none;stroke-opacity:1"
             id="path5319" /></g><g
           id="g5321"
           transform="translate(57.1904,55.709)"><path
             d="M 0,0 -0.97,10.147 3.608,10.583 4.575,0.437 Z"
             style="fill:#1476c6;fill-opacity:1;fill-rule:nonzero;stroke:none"
             id="path5323" /></g><g
           id="g5325"
           transform="translate(88.373,29.9912)"><path
             d="M 0,0 -3.062,9.722 1.322,11.103 4.385,1.381 Z"
             style="fill:#1476c6;fill-opacity:1;fill-rule:nonzero;stroke:none"
             id="path5327" /></g><g
           id="g5329"
           transform="translate(35.9404,76.0918)"><path
             d="m 0,0 14.229,-5.17 c 1.5,3.462 0.721,6.688 -2.612,7.938 L 2.066,6.265 Z"
             style="fill:#ffffff;fill-opacity:1;fill-rule:nonzero;stroke:none"
             id="path5331" /></g></g></g></g></svg>