<svg width="20" height="20" viewBox="0 0 20 20" fill="none" xmlns="http://www.w3.org/2000/svg">
<path d="M19.8154 18.9336L14.2883 13.4062C15.507 11.9844 16.214 10.1445 16.214 8.125C16.214 3.63672 12.5763 0 8.08943 0C3.60256 0 0 3.63789 0 8.125C0 12.6121 3.63732 16.25 8.08943 16.25C10.1081 16.25 11.9506 15.5094 13.3704 14.291L18.8975 19.8184C19.0537 19.9375 19.2139 20 19.374 20C19.5342 20 19.6938 19.939 19.8158 19.8169C20.0615 19.5742 20.0615 19.1758 19.8154 18.9336ZM8.12459 15C4.30057 15 1.24994 11.9141 1.24994 8.125C1.24994 4.33594 4.30057 1.25 8.12459 1.25C11.9486 1.25 14.9992 4.30078 14.9992 8.125C14.9992 11.9492 11.9135 15 8.12459 15Z" fill="black"/>
</svg>
