<svg width="15" height="15" viewBox="0 0 15 15" fill="none" xmlns="http://www.w3.org/2000/svg">
  <path d="M14.4176 14.4167C14.1365 14.6978 13.6764 14.6978 13.3952 14.4167L7.7718 8.79327L2.14841 14.4167C1.86583 14.6992 1.40823 14.6996 1.12565 14.417C0.843079 14.1344 0.844804 13.6754 1.12597 13.3942L6.74937 7.77083L1.12597 2.14744C0.843398 1.86486 0.843206 1.40777 1.12565 1.12532C1.40714 0.843833 1.86596 0.842555 2.14841 1.125L7.7718 6.7484L13.3952 1.125C13.6778 0.842427 14.1347 0.842746 14.4173 1.12532C14.6999 1.4079 14.7001 1.86499 14.4176 2.14744L8.79424 7.77083L14.4176 13.3942C14.6988 13.6754 14.6988 14.1355 14.4176 14.4167Z" fill="black"/>
</svg>