<svg width="229" height="47" viewBox="0 0 229 47" fill="none" xmlns="http://www.w3.org/2000/svg">
<path d="M7.47874 40.8262C5.02732 40.8262 3.9261 39.3463 3.9261 37.751C3.9261 36.4537 4.34744 34.9161 5.45824 31.9082C7.90966 25.2581 11.2804 15.9748 11.2804 14.6102L11.0314 14.3604H0.612855L0 17.4452H6.07109L1.47468 37.0111C1.1748 38.0924 1.00126 39.205 0.957586 40.3265C0.930568 40.9437 1.02764 41.5601 1.24302 42.1389C1.4584 42.7177 1.78767 43.2471 2.21123 43.6954C2.63478 44.1438 3.14394 44.502 3.70836 44.7488C4.27279 44.9955 4.88093 45.1256 5.49654 45.1315H6.7031C7.92881 44.5165 9.03003 43.469 10.9931 40.8262L15.0437 35.2909L13.818 34.6758C10.6005 39.2214 8.95343 40.8262 7.47874 40.8262Z" fill="black"/>
<path d="M43.6825 40.8147C41.2436 40.8147 40.7578 39.3311 40.7578 37.7318C40.7578 36.306 41.1865 35.2655 43.2538 30.0825C45.0829 25.4581 46.2451 23.0496 46.2451 19.8415C46.2451 17.0091 44.1683 13.6758 39.4145 13.6758C34.1748 13.6758 30.0212 17.4427 26.2391 26.0073L22.7047 34.0324H21.9712C22.3427 33.069 28.0683 15.776 28.0683 14.5428L27.8301 14.2924H14.9691L14.3594 17.3752H23.8003L17.1316 45.1307H20.7899L26.7726 29.7164C30.5833 19.8415 32.803 17.3752 36.5279 17.3752C37.2303 17.3462 37.9311 17.4627 38.5872 17.7177C39.2434 17.9727 39.841 18.3607 40.3434 18.858C40.8458 19.3552 41.2423 19.951 41.5085 20.6089C41.7747 21.2668 41.905 21.9728 41.8915 22.6836C41.8915 25.2077 41.1007 26.9321 40.491 29.2154L38.3571 36.99C38.0679 38.075 37.9048 39.1905 37.8712 40.3137C37.8712 43.2039 39.3288 45.1307 41.7676 45.1307H42.987C44.2064 44.5142 45.3115 43.464 47.255 40.8147L51.2847 35.2655L50.0653 34.649C46.7977 39.2058 45.1496 40.8147 43.6825 40.8147Z" fill="black"/>
<path d="M92.1146 13.6758L90.2833 15.4693C90.1625 15.6041 90.0154 15.7123 89.8512 15.7869C89.6871 15.8616 89.5095 15.9012 89.3295 15.9032C87.7462 15.9032 86.6398 13.6758 81.7563 13.6758C77.1208 13.6758 72.2183 16.7614 72.2183 22.3541C72.2183 32.8549 88.0896 31.0324 88.0896 39.0261C88.0896 42.1118 86.2583 43.9632 81.9852 43.9632C71.8463 43.9632 69.0994 33.472 68.9181 32.8549L67.6973 33.472L69.7098 45.8145H69.9578L71.7891 44.021C71.9096 43.8857 72.0566 43.7773 72.2208 43.7026C72.385 43.6279 72.5628 43.5885 72.7429 43.5871C74.3357 43.5871 76.043 45.8145 81.7182 45.8145C86.8496 45.8145 91.7331 43.0953 91.7331 37.1362C91.7331 27.8697 76.4723 29.1039 76.4723 21.0813C76.4913 17.3785 78.9235 15.5272 82.3381 15.5272C89.9113 15.5272 92.9635 26.0183 93.1447 26.6354L94.3656 26.0183L92.3531 13.6758H92.1146Z" fill="black"/>
<path d="M105.295 40.8345C102.849 40.8345 101.74 39.3541 101.74 37.7583C101.74 36.4606 102.17 34.9225 103.269 31.9137C105.726 25.2615 109.09 15.9753 109.09 14.6103L108.841 14.3604H98.3949L97.7832 17.4365H103.833L99.2455 37.0085C98.9554 38.0912 98.7918 39.2042 98.7581 40.325C98.7311 40.9424 98.828 41.559 99.043 42.138C99.2579 42.717 99.5866 43.2465 100.009 43.695C100.432 44.1435 100.94 44.5018 101.504 44.7486C102.067 44.9954 102.674 45.1256 103.288 45.1315H104.512C105.735 44.5163 106.834 43.4685 108.794 40.8249L112.827 35.2878L111.604 34.6726C108.363 39.2291 106.71 40.8345 105.295 40.8345Z" fill="black"/>
<path d="M171.753 34.673C168.45 39.2477 166.765 40.8629 165.265 40.8629C164.145 40.8629 163.522 40.2439 163.522 39.0059C163.556 37.6947 163.766 36.3938 164.145 35.1373L169.259 14.2077H165.518L159.411 29.6824C155.515 39.5863 153.235 42.0622 149.427 42.0622C148.712 42.0843 148 41.9631 147.334 41.7058C146.667 41.4485 146.06 41.0605 145.548 40.5648C145.036 40.0691 144.63 39.476 144.354 38.821C144.078 38.1659 143.938 37.4624 143.943 36.7524C144.082 34.5178 144.524 32.3121 145.258 30.195L150.021 14.5075L149.768 14.2561H126.39L129.974 0L125.844 0L124.12 14.2367H112.139L111.457 17.3317H123.428L117.009 35.4081C116.435 36.9569 116.139 38.5935 116.133 40.2439C116.133 45.0121 120.37 45.8148 121.87 45.8148C126.419 45.8148 130.471 41.4142 133.841 35.6595L136.208 31.5781L134.962 30.9494L132.595 35.0406C129.166 40.9209 126.925 42.1009 124.364 42.1009C122.415 42.1009 120.623 40.6114 120.623 37.884C120.654 36.7974 120.821 35.7188 121.12 34.673L125.552 17.3317H146.748C144.946 22.1675 143.387 26.1232 142.199 29.3439C140.455 34.1798 139.452 36.4043 139.452 39.6249C139.452 42.4684 141.576 45.8148 146.436 45.8148C151.803 45.8148 156.041 42.0332 159.908 33.4351L163.522 25.3785H164.272L159.908 37.265C159.514 38.251 159.303 39.2995 159.284 40.36C159.284 43.2615 160.775 45.1958 163.268 45.1958H164.515C165.762 44.5768 166.892 43.5226 168.889 40.8629L172.999 35.292L171.753 34.673Z" fill="black"/>
<path d="M192.744 31H194.4V30.184C194.808 30.892 195.588 31.156 196.26 31.156C197.796 31.156 199.068 29.836 199.068 27.772C199.068 25.744 197.82 24.4 196.26 24.4C195.444 24.4 194.748 24.772 194.4 25.372V22.3H192.744V31ZM197.328 27.784C197.328 29.044 196.704 29.884 195.852 29.884C194.94 29.884 194.34 29.092 194.34 27.772C194.34 26.476 194.94 25.672 195.852 25.672C196.704 25.672 197.328 26.524 197.328 27.784ZM201.456 28.228H206.22C206.292 25.948 205.044 24.4 203.052 24.4C201.144 24.4 199.812 25.828 199.812 27.748C199.812 29.608 201.024 31.156 203.1 31.156C204.852 31.156 205.8 30.088 206.148 29.128H204.444C204.108 29.692 203.592 29.872 203.088 29.872C202.308 29.872 201.54 29.332 201.456 28.228ZM201.48 27.088C201.612 26.008 202.416 25.612 203.04 25.612C203.736 25.612 204.504 25.996 204.54 27.088H201.48ZM207.515 22.792V24.544H206.603V25.684H207.515V29.26C207.515 30.544 207.803 31 209.279 31H210.491V29.812H209.987C209.399 29.812 209.171 29.68 209.171 29.02V25.684H210.515V24.544H209.171V22.792H207.515ZM213.64 31.156C214.612 31.156 215.296 30.868 215.752 30.196C215.776 30.508 215.812 30.796 215.86 31H217.384C217.264 30.46 217.192 29.884 217.192 28.864C217.192 28.276 217.216 27.424 217.216 27.22C217.216 25.036 215.968 24.376 214.432 24.376C212.776 24.376 211.72 25.312 211.6 26.584H213.148C213.184 25.876 213.712 25.54 214.348 25.54C215.02 25.54 215.56 25.888 215.56 26.884V26.992C213.028 27.28 211.312 27.736 211.312 29.26C211.312 30.436 212.404 31.156 213.64 31.156ZM215.608 28.048V28.528C215.608 29.464 215.164 30.028 214.132 30.028C213.388 30.028 213.016 29.644 213.016 29.176C213.016 28.456 213.76 28.24 215.608 28.048Z" fill="black"/>
<path d="M193.942 15C187.347 15 182 20.3115 182 26.8636C182 33.4157 187.347 38.7273 193.942 38.7273H203.231V44L209.297 38.7273H216.058C222.653 38.7273 228 33.4157 228 26.8636C228 20.3115 222.653 15 216.058 15H193.942Z" stroke="black" stroke-width="2"/>
</svg>
