<?xml version="1.0" encoding="utf-8"?>
<!-- Generator: Adobe Illustrator 26.5.2, SVG Export Plug-In . SVG Version: 6.00 Build 0)  -->
<svg version="1.1" id="Calque_1" xmlns="http://www.w3.org/2000/svg" xmlns:xlink="http://www.w3.org/1999/xlink" x="0px" y="0px"
	 width="182px" height="92px" viewBox="0 0 182 92" style="enable-background:new 0 0 182 92;" xml:space="preserve">
<style type="text/css">
	.st0{fill:none;}
</style>
<g>
	<path d="M115.2,45.1v-5.7l5.5-3.4c1.7-1.1,2.3-2,2.3-3.1c0-0.6-0.2-1.1-0.6-1.5c-0.4-0.4-0.9-0.6-1.5-0.6c-1.4,0-2.3,1-2.3,2.5v0.5
		h-4v-0.6c0-3.6,2.5-6,6.3-6c2,0,3.6,0.6,4.7,1.7c0.9,0.9,1.5,2.2,1.5,3.7c0,2.5-0.9,4.3-4,5.9l-4.2,2.5v0.5h8.2v3.5H115.2
		L115.2,45.1z"/>
	<path d="M128.6,39.8v-0.2h4v0.1c0,1.5,0.9,2.3,2.4,2.3c0.7,0,1.3-0.2,1.6-0.6c0.4-0.4,0.5-0.8,0.5-1.3c0-0.5-0.2-1-0.5-1.3
		c-0.4-0.4-1.1-0.6-1.9-0.6h-1.1v-3.6h1.1c0.8,0,1.5-0.3,1.9-0.6c0.3-0.3,0.5-0.8,0.5-1.3s-0.2-1-0.5-1.3c-0.4-0.4-0.9-0.6-1.6-0.6
		c-1.5,0-2.4,0.8-2.4,2.3v0.2h-4v-0.2c0-3.5,2.4-5.6,6.3-5.6c2.1,0,3.7,0.6,4.8,1.7c0.9,0.8,1.3,1.9,1.3,3.2c0,1.1-0.4,2-1.1,2.7
		c-0.7,0.6-1.6,1.1-2.7,1.2v0.5c1.1,0.1,2.1,0.6,2.7,1.2c0.7,0.7,1.1,1.6,1.1,2.7c0,1.3-0.5,2.4-1.3,3.2c-1.1,1.1-2.7,1.7-4.8,1.7
		C131,45.5,128.6,43.3,128.6,39.8L128.6,39.8z"/>
	<path d="M92.8,43.8l45.8-43.1L137.9,0L91.4,43.8H92.8z"/>
	<path d="M68.4,65.5L41,91.3l0.6,0.7l28.1-26.5H68.4z"/>
	<path d="M56.8,61.3l-3.6-6.8h-0.8v6.8h-4.1V43.8h7.3c2.4,0,4.2,0.9,5.2,2.5c0.4,0.7,0.7,1.6,0.7,2.6c0,1-0.2,1.8-0.6,2.5
		c-0.7,1.2-2.2,2-4.1,2.2V54l1.1,0.4l3.7,6.9L56.8,61.3L56.8,61.3z M52.4,47.4v3.9h2.7c0.9,0,1.6-0.3,2-0.9c0.2-0.3,0.3-0.6,0.3-1
		c0-0.4-0.1-0.7-0.2-1c-0.4-0.6-1.1-0.9-2-0.9H52.4z"/>
	<path d="M74.6,53.3v7.9h-3.8l0.9-3.3h-0.5c-0.7,2.5-2,3.6-4.2,3.6c-1.2,0-2.2-0.4-2.8-1c-0.6-0.6-1-1.4-1-2.5c0-1,0.3-1.9,1-2.5
		c0.8-0.7,1.9-1.2,3.4-1.3l3.1-0.3v-0.7c0-1.1-0.7-1.7-1.9-1.7c-1.9,0-1.9,1.5-1.9,1.7v0.1h-3.9v-0.1c0-0.4,0.1-4.8,6-4.8
		C72.6,48.5,74.6,50.2,74.6,53.3L74.6,53.3z M70.7,56.3L70.7,56.3l-1.9,0.2c-0.6,0.1-1,0.3-1.3,0.5c-0.2,0.2-0.3,0.5-0.3,0.8
		c0,0.4,0.1,0.6,0.3,0.8c0.2,0.2,0.5,0.3,0.9,0.3C70.1,58.9,70.7,57.1,70.7,56.3z"/>
	<path d="M77.7,61.3V48.9h3.9l-0.9,3.3h0.5c0.6-2.4,1.8-3.6,3.7-3.6c1.7,0,3,1.2,3,3.6h0.5c0.6-2.6,2.2-3.6,4.1-3.6
		c2.5,0,3.8,1.6,3.8,4.7v8h-3.9V54c0-1.3-0.5-2-1.5-2c-1.2,0-1.9,0.9-1.9,2.5v6.7H85V54c0-1.3-0.6-2-1.5-2c-1.2,0-1.9,0.9-1.9,2.5
		v6.7H77.7L77.7,61.3z"/>
	<path d="M99.5,65.7V48.9h3.9l-0.9,3.3h0.5c0.7-2.3,2.1-3.6,4.3-3.6c1.7,0,3.2,0.8,4.1,2.1c0.8,1.1,1.2,2.6,1.2,4.5
		s-0.4,3.3-1.2,4.5c-0.9,1.3-2.4,2.1-4.1,2.1c-2.2,0-3.6-1.3-4.3-3.6h-0.5l0.9,3.3v4.5H99.5z M108,57.3c0.4-0.5,0.6-1.3,0.6-2.2
		s-0.2-1.6-0.6-2.2c-0.5-0.6-1.2-1-2-1c-0.9,0-1.6,0.4-2,1c-0.4,0.5-0.6,1.3-0.6,2.2c0,0.9,0.2,1.7,0.6,2.2c0.5,0.6,1.2,1,2,1
		C106.8,58.3,107.5,57.9,108,57.3z"/>
	<path d="M127,57.4c-0.4,2.5-2.7,4.2-5.9,4.2c-2.4,0-4.2-0.8-5.3-2.4c-0.8-1.1-1.2-2.4-1.2-4.1c0-1.7,0.5-3.1,1.2-4.2
		c1.1-1.6,2.9-2.4,5.1-2.4c3.9,0,6,2.4,6,6.6v1h-8.5c0.1,0.7,0.3,1.3,0.6,1.7c0.4,0.6,1.1,0.9,2.1,0.9s1.8-0.4,2.1-1.3L127,57.4
		L127,57.4z M119,52.4c-0.3,0.4-0.4,0.8-0.5,1.3h4.8c0-1.5-0.9-2.3-2.3-2.3C120.1,51.4,119.4,51.7,119,52.4z"/>
</g>
<rect y="0" class="st0" width="182" height="92"/>
</svg>
