<?xml version="1.0" encoding="utf-8"?>
<!-- Generator: Adobe Illustrator 26.5.2, SVG Export Plug-In . SVG Version: 6.00 Build 0)  -->
<svg version="1.1" id="Calque_1" xmlns="http://www.w3.org/2000/svg" xmlns:xlink="http://www.w3.org/1999/xlink" x="0px" y="0px"
	 width="182px" height="92px" viewBox="0 0 182 92" style="enable-background:new 0 0 182 92;" xml:space="preserve">
<style type="text/css">
	.st0{fill:#FFFFFF;}
	.st1{fill:none;}
</style>
<g>
	<path d="M31.8,16.4c0.3,0.2,0.7,0.3,1.2,0.3c0.7,0,1.3-0.3,1.3-1.1c0-1.1-2.5-1.2-2.5-2.7c0-0.9,0.8-1.4,1.8-1.4
		c0.3,0,0.7,0,1.1,0.2l-0.1,0.5c-0.2-0.1-0.6-0.2-1-0.2c-0.6,0-1.2,0.2-1.2,0.9c0,1.1,2.5,1.1,2.5,2.7c0,1.1-1,1.6-1.8,1.6
		c-0.5,0-1-0.1-1.3-0.2L31.8,16.4"/>
	<path d="M39.1,13.6c-0.3-0.1-0.6-0.2-0.9-0.2c-1,0-1.5,0.7-1.5,1.7c0,0.9,0.6,1.7,1.5,1.7c0.3,0,0.6-0.1,0.9-0.2l0.1,0.5
		c-0.3,0.1-0.7,0.1-1,0.1c-1.3,0-1.9-1-1.9-2.1c0-1.2,0.8-2.1,2-2.1c0.5,0,0.8,0.1,1,0.2L39.1,13.6"/>
	<path d="M40.6,11.2h0.5v2.6h0c0.2-0.4,0.7-0.8,1.3-0.8c1.1,0,1.4,0.7,1.4,1.7v2.4h-0.5v-2.4c0-0.7-0.1-1.3-1-1.3
		c-0.9,0-1.2,0.8-1.2,1.5v2.2h-0.5L40.6,11.2"/>
	<path d="M49.9,17.1h-0.6l-1.1-3.5h0L47,17.1h-0.6l-1.3-4h0.5l1.1,3.5h0l1.1-3.5h0.6l1.1,3.5h0l1.1-3.5h0.5L49.9,17.1z"/>
	<path d="M55,14.8c0-0.7-0.3-1.4-1-1.4c-0.8,0-1.2,0.7-1.2,1.4H55L55,14.8z M55.2,16.9c-0.4,0.1-0.8,0.2-1.2,0.2
		c-1.3,0-1.8-0.9-1.8-2.1c0-1.2,0.7-2.1,1.7-2.1c1.1,0,1.6,0.9,1.6,2v0.3h-2.8c0,0.9,0.5,1.5,1.3,1.5c0.4,0,0.9-0.1,1.1-0.3
		L55.2,16.9"/>
	<path d="M57.1,13.1h0.5v4h-0.5V13.1z M57.6,12h-0.5v-0.7h0.5V12z"/>
	<path d="M59.1,16.7l2.5-3.2h-2.4v-0.4h2.9v0.4l-2.5,3.2h2.5v0.4h-3V16.7z"/>
	<path d="M66.2,14.8c0-0.7-0.3-1.4-1-1.4c-0.8,0-1.2,0.7-1.2,1.4H66.2L66.2,14.8z M66.4,16.9c-0.4,0.1-0.8,0.2-1.2,0.2
		c-1.3,0-1.8-0.9-1.8-2.1c0-1.2,0.7-2.1,1.7-2.1c1.1,0,1.6,0.9,1.6,2v0.3h-2.8c0,0.9,0.5,1.5,1.3,1.5c0.4,0,0.9-0.1,1.1-0.3
		L66.4,16.9"/>
	<path d="M68.3,13.9c0-0.4,0-0.6,0-0.9h0.5v0.8h0c0.2-0.5,0.5-0.9,1-0.9c0.1,0,0.3,0,0.4,0v0.5c-0.1,0-0.2-0.1-0.4-0.1
		c-0.8,0-1,0.9-1,1.6v2h-0.5L68.3,13.9"/>
	<path d="M71.6,13.1h0.5v4h-0.5V13.1z M72.1,12h-0.5v-0.7h0.5V12z"/>
	<path d="M73.6,16.5c0.3,0.1,0.7,0.3,1.1,0.3c0.5,0,0.9-0.3,0.9-0.7c0-1-2-0.8-2-2c0-0.8,0.7-1.1,1.3-1.1c0.2,0,0.6,0,1,0.2l0,0.4
		c-0.3-0.1-0.6-0.2-0.9-0.2c-0.5,0-0.9,0.2-0.9,0.7c0,0.7,2,0.7,2,2c0,0.9-0.8,1.1-1.4,1.1c-0.4,0-0.8,0-1.1-0.2L73.6,16.5z"/>
	<path d="M80.3,13.6c-0.3-0.1-0.6-0.2-0.9-0.2c-1,0-1.5,0.7-1.5,1.7c0,0.9,0.6,1.7,1.5,1.7c0.3,0,0.6-0.1,0.9-0.2l0,0.5
		c-0.3,0.1-0.7,0.1-1,0.1c-1.3,0-1.9-1-1.9-2.1c0-1.2,0.8-2.1,2-2.1c0.5,0,0.8,0.1,1,0.2L80.3,13.6"/>
	<path d="M81.8,11.2h0.5v2.6h0c0.2-0.4,0.7-0.8,1.3-0.8c1.1,0,1.4,0.7,1.4,1.7v2.4h-0.5v-2.4c0-0.7-0.1-1.3-1-1.3
		c-0.9,0-1.2,0.8-1.2,1.5v2.2h-0.5L81.8,11.2"/>
	<path d="M89.4,14.8c0-0.7-0.3-1.4-1-1.4c-0.8,0-1.2,0.7-1.2,1.4H89.4L89.4,14.8z M89.6,16.9c-0.3,0.1-0.8,0.2-1.2,0.2
		c-1.3,0-1.8-0.9-1.8-2.1c0-1.2,0.7-2.1,1.7-2.1c1.1,0,1.6,0.9,1.6,2v0.3h-2.8c0,0.9,0.5,1.5,1.3,1.5c0.4,0,0.9-0.1,1.1-0.3
		L89.6,16.9"/>
	<path d="M94.1,11.6h2.7V12h-2.2v2h2.1v0.5h-2.1v2.1H97v0.5h-2.8V11.6z"/>
	<path d="M98.7,13.1h0.5v4h-0.5V13.1z M99.2,12h-0.5v-0.7h0.5V12z"/>
	<path d="M102.6,16.7c0.9,0,1.2-0.9,1.2-1.7c0-0.7-0.3-1.7-1.2-1.7c-1,0-1.2,0.9-1.2,1.7C101.4,15.8,101.6,16.7,102.6,16.7z
		 M104.3,17.1h-0.5v-0.6h0c-0.3,0.5-0.7,0.7-1.3,0.7c-1.1,0-1.7-0.9-1.7-2.1c0-1.2,0.5-2.1,1.7-2.1c0.8,0,1.2,0.6,1.3,0.8h0v-2.6
		h0.5V17.1"/>
	<path d="M107.6,16.7c0.9,0,1.2-0.9,1.2-1.6c0-1-0.3-1.7-1.2-1.7c-0.9,0-1.2,0.9-1.2,1.7C106.5,15.8,106.8,16.7,107.6,16.7z
		 M109.4,16.7c0,1.1-0.5,2-1.9,2c-0.5,0-1-0.1-1.2-0.2l0-0.5c0.3,0.2,0.8,0.3,1.2,0.3c1.3,0,1.4-0.9,1.4-2.1h0
		c-0.3,0.6-0.7,0.8-1.2,0.8c-1.3,0-1.7-1.1-1.7-2c0-1.2,0.5-2.1,1.7-2.1c0.5,0,0.9,0.1,1.3,0.6h0v-0.5h0.5V16.7"/>
	<path d="M113.7,14.8c0-0.7-0.3-1.4-1-1.4c-0.7,0-1.2,0.7-1.2,1.4H113.7z M113.9,16.9c-0.4,0.1-0.8,0.2-1.2,0.2
		c-1.3,0-1.8-0.9-1.8-2.1c0-1.2,0.7-2.1,1.7-2.1c1.1,0,1.6,0.9,1.6,2v0.3h-2.8c0,0.9,0.5,1.5,1.3,1.5c0.4,0,0.9-0.1,1.1-0.3
		L113.9,16.9"/>
	<path d="M115.8,14c0-0.3,0-0.6,0-0.9h0.5v0.7h0c0.2-0.4,0.5-0.8,1.3-0.8c1,0,1.4,0.7,1.4,1.5v2.6h-0.5v-2.5c0-0.8-0.3-1.3-1-1.3
		c-0.9,0-1.2,0.8-1.2,1.5v2.2h-0.5L115.8,14"/>
	<path d="M122.4,16.7c0.9,0,1.3-0.7,1.3-1.7c0-0.9-0.5-1.7-1.3-1.7c-0.9,0-1.3,0.7-1.3,1.7C121.1,16,121.6,16.7,122.4,16.7z
		 M122.4,13c1.3,0,1.9,1,1.9,2.1s-0.6,2.1-1.9,2.1c-1.3,0-1.9-1-1.9-2.1S121.1,13,122.4,13z"/>
	<path d="M125.6,16.5c0.3,0.1,0.7,0.3,1.1,0.3c0.5,0,0.9-0.3,0.9-0.7c0-1-2-0.8-2-2c0-0.8,0.6-1.1,1.3-1.1c0.2,0,0.6,0,1,0.2
		l-0.1,0.4c-0.3-0.1-0.6-0.2-0.9-0.2c-0.5,0-0.9,0.2-0.9,0.7c0,0.7,2,0.7,2,2c0,0.9-0.8,1.1-1.4,1.1c-0.4,0-0.8,0-1.1-0.2
		L125.6,16.5"/>
	<path d="M129.3,16.5c0.3,0.1,0.7,0.3,1.1,0.3c0.5,0,0.9-0.3,0.9-0.7c0-1-2-0.8-2-2c0-0.8,0.6-1.1,1.3-1.1c0.2,0,0.6,0,1,0.2
		l-0.1,0.4c-0.3-0.1-0.6-0.2-0.9-0.2c-0.5,0-0.9,0.2-0.9,0.7c0,0.7,2,0.7,2,2c0,0.9-0.8,1.1-1.4,1.1c-0.4,0-0.8,0-1.1-0.2
		L129.3,16.5"/>
	<path d="M135.8,14.8c0-0.7-0.3-1.4-1-1.4c-0.8,0-1.2,0.7-1.2,1.4H135.8L135.8,14.8z M136.1,16.9c-0.3,0.1-0.8,0.2-1.2,0.2
		c-1.3,0-1.8-0.9-1.8-2.1c0-1.2,0.7-2.1,1.7-2.1c1.1,0,1.6,0.9,1.6,2v0.3h-2.8c0,0.9,0.5,1.5,1.3,1.5c0.4,0,0.9-0.1,1.1-0.3
		L136.1,16.9"/>
	<path d="M138,14c0-0.3,0-0.6,0-0.9h0.5v0.7h0c0.2-0.4,0.5-0.8,1.3-0.8c1,0,1.4,0.7,1.4,1.5v2.6h-0.5v-2.5c0-0.8-0.3-1.3-1-1.3
		c-0.9,0-1.2,0.8-1.2,1.5v2.2H138L138,14"/>
	<path d="M142.7,16.5c0.3,0.1,0.7,0.3,1.1,0.3c0.5,0,0.9-0.3,0.9-0.7c0-1-2-0.8-2-2c0-0.8,0.7-1.1,1.3-1.1c0.2,0,0.6,0,1,0.2
		l-0.1,0.4c-0.3-0.1-0.6-0.2-0.9-0.2c-0.5,0-0.9,0.2-0.9,0.7c0,0.7,2,0.7,2,2c0,0.9-0.8,1.1-1.4,1.1c-0.4,0-0.8,0-1.1-0.2
		L142.7,16.5"/>
	<path d="M149.4,13.6c-0.3-0.1-0.6-0.2-0.9-0.2c-1,0-1.5,0.7-1.5,1.7c0,0.9,0.6,1.7,1.5,1.7c0.3,0,0.6-0.1,0.9-0.2l0.1,0.5
		c-0.3,0.1-0.7,0.1-1,0.1c-1.3,0-1.9-1-1.9-2.1c0-1.2,0.8-2.1,2-2.1c0.5,0,0.8,0.1,1,0.2L149.4,13.6"/>
	<path d="M150.9,11.2h0.5v2.6h0c0.2-0.4,0.7-0.8,1.3-0.8c1.1,0,1.4,0.7,1.4,1.7v2.4h-0.5v-2.4c0-0.7-0.1-1.3-1-1.3
		c-0.9,0-1.2,0.8-1.2,1.5v2.2h-0.5V11.2z"/>
	<path d="M158.2,15.1h-0.1c-0.9,0-1.9,0.1-1.9,1c0,0.5,0.4,0.7,0.8,0.7c1.2,0,1.2-1,1.2-1.5V15.1z M158.3,16.4L158.3,16.4
		c-0.2,0.5-0.8,0.7-1.3,0.7c-1.2,0-1.3-0.8-1.3-1.1c0-1.3,1.5-1.4,2.5-1.4h0.1v-0.2c0-0.7-0.2-1-0.9-1c-0.4,0-0.8,0.1-1.2,0.3v-0.5
		c0.3-0.1,0.8-0.3,1.2-0.3c1,0,1.4,0.5,1.4,1.5v1.8c0,0.3,0,0.6,0,0.8h-0.5V16.4z"/>
	<path d="M160.9,13.5h-0.8V13h0.8v-0.3c0-0.8,0-1.7,1.1-1.7c0.2,0,0.4,0,0.5,0.1l0,0.4c-0.1-0.1-0.3-0.1-0.4-0.1
		c-0.7,0-0.6,0.7-0.6,1.2v0.3h0.9v0.4h-0.9v3.6h-0.5L160.9,13.5"/>
	<path d="M165.6,13.5h-0.9v2.6c0,0.4,0.1,0.7,0.5,0.7c0.2,0,0.3,0,0.5-0.1l0,0.4c-0.1,0-0.4,0.1-0.6,0.1c-0.9,0-0.9-0.6-0.9-1.3
		v-2.4h-0.8V13h0.8v-1l0.5-0.2V13h0.9L165.6,13.5"/>
	<path d="M35.7,23.1c-0.4-0.2-0.8-0.2-1.2-0.2c-1.4,0-2.3,1-2.3,2.4c0,1.4,0.8,2.4,2.3,2.4c0.4,0,0.9,0,1.2-0.2l0,0.5
		c-0.3,0.2-0.9,0.2-1.3,0.2c-1.8,0-2.8-1.1-2.8-2.9s1.1-2.9,2.8-2.9c0.3,0,1,0.1,1.3,0.2L35.7,23.1z"/>
	<path d="M39.1,27.6c0.9,0,1.3-0.7,1.3-1.7c0-0.9-0.5-1.7-1.3-1.7s-1.3,0.7-1.3,1.7C37.8,26.9,38.3,27.6,39.1,27.6z M39.1,23.8
		c1.3,0,1.9,1,1.9,2.1c0,1.1-0.6,2.1-1.9,2.1c-1.3,0-1.9-1-1.9-2.1C37.2,24.9,37.8,23.8,39.1,23.8z"/>
	<path d="M42.6,24.9c0-0.3,0-0.6,0-0.9h0.5v0.7h0c0.2-0.4,0.5-0.8,1.3-0.8c1,0,1.4,0.7,1.4,1.5V28h-0.5v-2.5c0-0.8-0.3-1.3-1-1.3
		c-0.9,0-1.2,0.8-1.2,1.5V28h-0.5L42.6,24.9"/>
	<path d="M48,24.4h-0.8v-0.4H48v-0.3c0-0.8,0-1.7,1.1-1.7c0.2,0,0.4,0,0.5,0.1l0,0.4c-0.1-0.1-0.3-0.1-0.4-0.1
		c-0.7,0-0.6,0.7-0.6,1.2v0.3h0.9v0.4h-0.9V28H48L48,24.4"/>
	<path d="M52.6,22.4h0.6l-1,1.1h-0.4L52.6,22.4L52.6,22.4z M53.4,25.7c0-0.7-0.3-1.4-1-1.4c-0.8,0-1.2,0.7-1.2,1.4H53.4L53.4,25.7z
		 M53.7,27.8c-0.4,0.1-0.8,0.2-1.2,0.2c-1.3,0-1.8-0.9-1.8-2.1c0-1.2,0.7-2.1,1.7-2.1c1.1,0,1.6,0.9,1.6,2v0.3h-2.8
		c0,0.9,0.5,1.5,1.3,1.5c0.4,0,0.9-0.1,1.1-0.3L53.7,27.8"/>
	<path d="M57.1,27.6c0.9,0,1.2-0.9,1.2-1.7c0-0.7-0.3-1.7-1.2-1.7c-1,0-1.2,0.9-1.2,1.7C55.9,26.7,56.1,27.6,57.1,27.6z M58.8,28
		h-0.5v-0.6h0c-0.3,0.5-0.7,0.7-1.3,0.7c-1.1,0-1.7-0.9-1.7-2.1c0-1.2,0.5-2.1,1.7-2.1c0.8,0,1.2,0.6,1.3,0.8h0V22h0.5V28"/>
	<path d="M62.2,22.4h0.6l-1,1.1h-0.4L62.2,22.4z M63.1,25.7c0-0.7-0.3-1.4-1-1.4c-0.8,0-1.2,0.7-1.2,1.4H63.1L63.1,25.7z M63.3,27.8
		c-0.4,0.1-0.8,0.2-1.2,0.2c-1.3,0-1.8-0.9-1.8-2.1c0-1.2,0.7-2.1,1.7-2.1c1.1,0,1.6,0.9,1.6,2v0.3h-2.8c0,0.9,0.5,1.5,1.3,1.5
		c0.4,0,0.9-0.1,1.1-0.3L63.3,27.8"/>
	<path d="M65.2,24.8c0-0.4,0-0.6,0-0.9h0.5v0.8h0c0.2-0.5,0.5-0.9,1-0.9c0.1,0,0.3,0,0.4,0.1v0.5c-0.1,0-0.2-0.1-0.4-0.1
		c-0.8,0-1,0.9-1,1.6v2h-0.5L65.2,24.8"/>
	<path d="M70.8,25.9h-0.1c-0.9,0-1.9,0.1-1.9,1c0,0.5,0.4,0.7,0.8,0.7c1.2,0,1.2-1,1.2-1.5V25.9z M70.8,27.3L70.8,27.3
		c-0.2,0.5-0.8,0.7-1.3,0.7c-1.2,0-1.3-0.8-1.3-1.1c0-1.3,1.5-1.4,2.5-1.4h0.1v-0.2c0-0.7-0.2-1-0.9-1c-0.4,0-0.8,0.1-1.2,0.3v-0.5
		c0.3-0.1,0.8-0.3,1.2-0.3c1,0,1.4,0.5,1.4,1.5v1.8c0,0.3,0,0.6,0,0.8h-0.5L70.8,27.3"/>
	<path d="M74.8,24.4h-0.9V27c0,0.4,0.1,0.7,0.5,0.7c0.2,0,0.3,0,0.5-0.1l0,0.4c-0.1,0-0.4,0.1-0.6,0.1c-0.9,0-0.9-0.6-0.9-1.3v-2.4
		h-0.8v-0.4h0.8v-1l0.5-0.2v1.1h0.9V24.4"/>
	<path d="M76.4,23.9h0.5v4h-0.5V23.9z M76.9,22.9h-0.5v-0.7h0.5V22.9z"/>
	<path d="M80.3,27.6c0.9,0,1.3-0.7,1.3-1.7c0-0.9-0.5-1.7-1.3-1.7c-0.9,0-1.3,0.7-1.3,1.7C79,26.9,79.5,27.6,80.3,27.6z M80.3,23.8
		c1.3,0,1.9,1,1.9,2.1c0,1.1-0.6,2.1-1.9,2.1s-1.9-1-1.9-2.1C78.4,24.9,79,23.8,80.3,23.8z"/>
	<path d="M83.8,24.9c0-0.3,0-0.6,0-0.9h0.5v0.7h0c0.2-0.4,0.5-0.8,1.3-0.8c1,0,1.4,0.7,1.4,1.5V28h-0.5v-2.5c0-0.8-0.3-1.3-1-1.3
		c-0.9,0-1.2,0.8-1.2,1.5V28h-0.5L83.8,24.9"/>
	<path d="M91.3,27.4c0.3,0.1,0.7,0.3,1.1,0.3c0.5,0,0.9-0.3,0.9-0.7c0-1-2-0.8-2-2c0-0.8,0.7-1.1,1.3-1.1c0.2,0,0.6,0.1,1,0.2l0,0.4
		c-0.3-0.1-0.6-0.2-0.9-0.2c-0.5,0-0.9,0.2-0.9,0.7c0,0.7,2,0.7,2,2c0,0.9-0.8,1.1-1.4,1.1c-0.4,0-0.8,0-1.1-0.2L91.3,27.4"/>
	<path d="M98.5,27c0,0.3,0,0.6,0,0.9H98v-0.7h0c-0.2,0.4-0.5,0.8-1.3,0.8c-1,0-1.4-0.7-1.4-1.5v-2.6h0.5v2.5c0,0.8,0.3,1.3,1,1.3
		c0.9,0,1.2-0.8,1.2-1.5v-2.2h0.5L98.5,27"/>
	<path d="M100.4,23.9h0.5v4h-0.5V23.9z M100.9,22.9h-0.5v-0.7h0.5V22.9z"/>
	<path d="M102.5,27.4c0.3,0.1,0.7,0.3,1.1,0.3c0.5,0,0.9-0.3,0.9-0.7c0-1-2-0.8-2-2c0-0.8,0.7-1.1,1.3-1.1c0.2,0,0.6,0.1,1,0.2
		l0,0.4c-0.3-0.1-0.6-0.2-0.9-0.2c-0.5,0-0.9,0.2-0.9,0.7c0,0.7,2,0.7,2,2c0,0.9-0.8,1.1-1.4,1.1c-0.4,0-0.8,0-1.1-0.2L102.5,27.4z"
		/>
	<path d="M106.2,27.4c0.3,0.1,0.7,0.3,1.1,0.3c0.5,0,0.9-0.3,0.9-0.7c0-1-2-0.8-2-2c0-0.8,0.7-1.1,1.3-1.1c0.2,0,0.6,0.1,1,0.2
		l0,0.4c-0.3-0.1-0.6-0.2-0.9-0.2c-0.5,0-0.9,0.2-0.9,0.7c0,0.7,2,0.7,2,2c0,0.9-0.8,1.1-1.4,1.1c-0.4,0-0.8,0-1.1-0.2L106.2,27.4z"
		/>
	<path d="M112.7,25.7c0-0.7-0.3-1.4-1-1.4c-0.7,0-1.2,0.7-1.2,1.4H112.7z M113,27.8c-0.4,0.1-0.8,0.2-1.2,0.2
		c-1.3,0-1.8-0.9-1.8-2.1c0-1.2,0.7-2.1,1.7-2.1c1.1,0,1.6,0.9,1.6,2v0.3h-2.8c0,0.9,0.5,1.5,1.3,1.5c0.4,0,0.9-0.1,1.1-0.3
		L113,27.8"/>
	<path d="M35.7,34c-0.4-0.2-0.8-0.2-1.2-0.2c-1.4,0-2.3,1-2.3,2.4c0,1.4,0.8,2.4,2.3,2.4c0.4,0,0.9,0,1.2-0.2l0,0.5
		c-0.3,0.2-0.9,0.2-1.3,0.2c-1.8,0-2.8-1.1-2.8-2.9c0-1.7,1.1-2.9,2.8-2.9c0.3,0,1,0.1,1.3,0.2L35.7,34"/>
	<path d="M39.1,38.5c0.9,0,1.3-0.7,1.3-1.7s-0.5-1.7-1.3-1.7s-1.3,0.7-1.3,1.7S38.3,38.5,39.1,38.5z M39.1,34.7c1.3,0,1.9,1,1.9,2.1
		s-0.6,2.1-1.9,2.1c-1.3,0-1.9-1-1.9-2.1S37.8,34.7,39.1,34.7z"/>
	<path d="M42.6,35.8c0-0.3,0-0.6,0-0.9h0.5v0.7h0c0.2-0.4,0.5-0.8,1.3-0.8c1,0,1.4,0.7,1.4,1.5v2.6h-0.5v-2.5c0-0.8-0.3-1.3-1-1.3
		c-0.9,0-1.2,0.8-1.2,1.5v2.2h-0.5L42.6,35.8"/>
	<path d="M48,35.2h-0.8v-0.4H48v-0.3c0-0.8,0-1.7,1.1-1.7c0.2,0,0.4,0,0.5,0.1l0,0.4c-0.1-0.1-0.3-0.1-0.4-0.1
		c-0.7,0-0.6,0.7-0.6,1.2v0.3h0.9v0.4h-0.9v3.6H48L48,35.2"/>
	<path d="M53.4,36.6c0-0.7-0.3-1.4-1-1.4c-0.8,0-1.2,0.7-1.2,1.4H53.4L53.4,36.6z M53.7,38.7c-0.4,0.1-0.8,0.2-1.2,0.2
		c-1.3,0-1.8-0.9-1.8-2.1s0.7-2.1,1.7-2.1c1.1,0,1.6,0.9,1.6,2V37h-2.8c0,0.9,0.5,1.5,1.3,1.5c0.4,0,0.9-0.1,1.1-0.3L53.7,38.7"/>
	<path d="M57.1,38.5c0.9,0,1.2-0.9,1.2-1.7s-0.3-1.7-1.2-1.7c-1,0-1.2,0.9-1.2,1.7C55.9,37.6,56.1,38.5,57.1,38.5z M58.8,38.8h-0.5
		v-0.6h0c-0.3,0.5-0.7,0.7-1.3,0.7c-1.1,0-1.7-0.9-1.7-2.1c0-1.2,0.5-2.1,1.7-2.1c0.8,0,1.2,0.6,1.3,0.8h0v-2.6h0.5V38.8"/>
	<path d="M63.1,36.6c0-0.7-0.3-1.4-1-1.4c-0.8,0-1.2,0.7-1.2,1.4H63.1L63.1,36.6z M63.3,38.7c-0.4,0.1-0.8,0.2-1.2,0.2
		c-1.3,0-1.8-0.9-1.8-2.1s0.7-2.1,1.7-2.1c1.1,0,1.6,0.9,1.6,2V37h-2.8c0,0.9,0.5,1.5,1.3,1.5c0.4,0,0.9-0.1,1.1-0.3L63.3,38.7"/>
	<path d="M65.2,35.7c0-0.4,0-0.6,0-0.9h0.5v0.8h0c0.2-0.5,0.5-0.9,1-0.9c0.1,0,0.3,0,0.4,0v0.5c-0.1,0-0.2-0.1-0.4-0.1
		c-0.8,0-1,0.9-1,1.6v2h-0.5L65.2,35.7"/>
	<path d="M70.8,36.8h-0.1c-0.9,0-1.9,0.1-1.9,1c0,0.5,0.4,0.7,0.8,0.7c1.2,0,1.2-1,1.2-1.5V36.8z M70.8,38.2L70.8,38.2
		c-0.2,0.5-0.8,0.7-1.3,0.7c-1.2,0-1.3-0.8-1.3-1.1c0-1.3,1.5-1.4,2.5-1.4h0.1v-0.2c0-0.7-0.2-1-0.9-1c-0.4,0-0.8,0.1-1.2,0.3V35
		c0.3-0.1,0.8-0.3,1.2-0.3c1,0,1.4,0.5,1.4,1.5V38c0,0.3,0,0.6,0,0.8h-0.5L70.8,38.2"/>
	<path d="M72.7,38.4l2.4-3.2h-2.3v-0.4h2.9v0.4l-2.5,3.2h2.5v0.4h-3V38.4z"/>
	<path d="M77.2,34.8h0.5v4h-0.5V34.8z M77.7,33.8h-0.5v-0.7h0.5V33.8z"/>
	<path d="M81.2,38.5c0.9,0,1.3-0.7,1.3-1.7s-0.5-1.7-1.3-1.7s-1.3,0.7-1.3,1.7S80.3,38.5,81.2,38.5z M81.2,34.7c1.3,0,1.9,1,1.9,2.1
		s-0.6,2.1-1.9,2.1c-1.3,0-1.9-1-1.9-2.1S79.9,34.7,81.2,34.7z"/>
	<path d="M84.7,35.8c0-0.3,0-0.6,0-0.9h0.5v0.7h0c0.2-0.4,0.5-0.8,1.3-0.8c1,0,1.4,0.7,1.4,1.5v2.6h-0.5v-2.5c0-0.8-0.3-1.3-1-1.3
		c-0.9,0-1.2,0.8-1.2,1.5v2.2h-0.5L84.7,35.8"/>
	<path d="M92.2,36.6c0-0.7-0.3-1.4-1-1.4c-0.8,0-1.2,0.7-1.2,1.4H92.2L92.2,36.6z M92.5,38.7c-0.3,0.1-0.8,0.2-1.2,0.2
		c-1.3,0-1.8-0.9-1.8-2.1s0.7-2.1,1.7-2.1c1.1,0,1.6,0.9,1.6,2V37H90c0,0.9,0.5,1.5,1.3,1.5c0.4,0,0.9-0.1,1.1-0.3L92.5,38.7"/>
	<path d="M97,38.1c0.3,0.2,0.7,0.3,1.2,0.3c0.7,0,1.3-0.3,1.3-1.1c0-1.1-2.5-1.2-2.5-2.7c0-0.9,0.8-1.4,1.8-1.4c0.3,0,0.7,0,1.1,0.2
		l-0.1,0.5c-0.2-0.1-0.6-0.2-1-0.2c-0.6,0-1.2,0.2-1.2,0.9c0,1.1,2.6,1.1,2.6,2.7c0,1.1-1,1.6-1.8,1.6c-0.5,0-1-0.1-1.3-0.2L97,38.1
		"/>
	<path d="M103.1,38.8h-0.6l-1.4-4h0.5l1.1,3.5h0l1.2-3.5h0.5L103.1,38.8z"/>
	<path d="M105.9,34.8h0.5v4h-0.5V34.8z M106.4,33.8h-0.5v-0.7h0.5V33.8z"/>
	<path d="M107.9,38.4l2.4-3.2H108v-0.4h2.9v0.4l-2.5,3.2h2.5v0.4h-3V38.4z"/>
	<path d="M112,38.4l2.5-3.2h-2.4v-0.4h2.9v0.4l-2.4,3.2h2.4v0.4h-3V38.4z"/>
	<path d="M119.1,36.6c0-0.7-0.3-1.4-1-1.4s-1.2,0.7-1.2,1.4H119.1z M119.3,38.7c-0.4,0.1-0.8,0.2-1.2,0.2c-1.3,0-1.8-0.9-1.8-2.1
		s0.7-2.1,1.7-2.1c1.1,0,1.6,0.9,1.6,2V37h-2.8c0,0.9,0.5,1.5,1.3,1.5c0.4,0,0.9-0.1,1.1-0.3L119.3,38.7"/>
	<path d="M121.2,35.7c0-0.4,0-0.6,0-0.9h0.5v0.8h0c0.2-0.5,0.5-0.9,1-0.9c0.1,0,0.3,0,0.4,0v0.5c-0.1,0-0.2-0.1-0.4-0.1
		c-0.8,0-1,0.9-1,1.6v2h-0.5L121.2,35.7"/>
	<path d="M126.8,36.8h-0.1c-0.9,0-1.9,0.1-1.9,1c0,0.5,0.4,0.7,0.8,0.7c1.2,0,1.2-1,1.2-1.5L126.8,36.8L126.8,36.8z M126.8,38.2
		L126.8,38.2c-0.2,0.5-0.8,0.7-1.3,0.7c-1.2,0-1.3-0.8-1.3-1.1c0-1.3,1.5-1.4,2.5-1.4h0.1v-0.2c0-0.7-0.2-1-0.9-1
		c-0.4,0-0.8,0.1-1.2,0.3V35c0.3-0.1,0.8-0.3,1.2-0.3c1,0,1.4,0.5,1.4,1.5V38c0,0.3,0,0.6,0,0.8h-0.5V38.2"/>
	<path d="M35.7,44.8c-0.4-0.2-0.8-0.2-1.2-0.2c-1.4,0-2.3,1-2.3,2.4c0,1.4,0.8,2.4,2.3,2.4c0.4,0,0.9,0,1.2-0.2l0,0.5
		c-0.3,0.2-0.9,0.2-1.3,0.2c-1.8,0-2.8-1.1-2.8-2.9c0-1.7,1.1-2.9,2.8-2.9c0.3,0,1,0.1,1.3,0.2L35.7,44.8"/>
	<path d="M39.1,49.4c0.9,0,1.3-0.7,1.3-1.7c0-0.9-0.5-1.7-1.3-1.7s-1.3,0.7-1.3,1.7C37.8,48.7,38.3,49.4,39.1,49.4z M39.1,45.6
		c1.3,0,1.9,1,1.9,2.1s-0.6,2.1-1.9,2.1c-1.3,0-1.9-1-1.9-2.1S37.8,45.6,39.1,45.6z"/>
	<path d="M42.6,46.7c0-0.3,0-0.6,0-0.9h0.5v0.7h0c0.2-0.4,0.5-0.8,1.3-0.8c1,0,1.4,0.7,1.4,1.5v2.6h-0.5v-2.5c0-0.8-0.3-1.3-1-1.3
		c-0.9,0-1.2,0.8-1.2,1.5v2.2h-0.5L42.6,46.7"/>
	<path d="M48,46.1h-0.8v-0.4H48v-0.3c0-0.8,0-1.7,1.1-1.7c0.2,0,0.4,0,0.5,0.1l0,0.4c-0.1-0.1-0.3-0.1-0.4-0.1
		c-0.7,0-0.6,0.7-0.6,1.2v0.3h0.9v0.4h-0.9v3.6H48L48,46.1"/>
	<path d="M53.4,47.4c0-0.7-0.3-1.4-1-1.4c-0.8,0-1.2,0.7-1.2,1.4H53.4L53.4,47.4z M53.7,49.6c-0.4,0.1-0.8,0.2-1.2,0.2
		c-1.3,0-1.8-0.9-1.8-2.1c0-1.2,0.7-2.1,1.7-2.1c1.1,0,1.6,0.9,1.6,2v0.3h-2.8c0,0.9,0.5,1.5,1.3,1.5c0.4,0,0.9-0.1,1.1-0.3
		L53.7,49.6"/>
	<path d="M57.1,49.4c0.9,0,1.2-0.9,1.2-1.7c0-0.7-0.3-1.7-1.2-1.7c-1,0-1.2,0.9-1.2,1.7C55.9,48.5,56.1,49.4,57.1,49.4z M58.8,49.7
		h-0.5v-0.6h0c-0.3,0.5-0.7,0.7-1.3,0.7c-1.1,0-1.7-0.9-1.7-2.1c0-1.2,0.5-2.1,1.7-2.1c0.8,0,1.2,0.6,1.3,0.8h0v-2.6h0.5V49.7"/>
	<path d="M63.1,47.4c0-0.7-0.3-1.4-1-1.4c-0.8,0-1.2,0.7-1.2,1.4H63.1L63.1,47.4z M63.3,49.6c-0.4,0.1-0.8,0.2-1.2,0.2
		c-1.3,0-1.8-0.9-1.8-2.1c0-1.2,0.7-2.1,1.7-2.1c1.1,0,1.6,0.9,1.6,2v0.3h-2.8c0,0.9,0.5,1.5,1.3,1.5c0.4,0,0.9-0.1,1.1-0.3
		L63.3,49.6"/>
	<path d="M65.2,46.6c0-0.4,0-0.6,0-0.9h0.5v0.8h0c0.2-0.5,0.5-0.9,1-0.9c0.1,0,0.3,0,0.4,0v0.5c-0.1,0-0.2-0.1-0.4-0.1
		c-0.8,0-1,0.9-1,1.6v2h-0.5L65.2,46.6"/>
	<path d="M70.8,47.7h-0.1c-0.9,0-1.9,0.1-1.9,1c0,0.5,0.4,0.7,0.8,0.7c1.2,0,1.2-1,1.2-1.5V47.7z M70.8,49.1L70.8,49.1
		c-0.2,0.5-0.8,0.7-1.3,0.7c-1.2,0-1.3-0.8-1.3-1.1c0-1.3,1.5-1.4,2.5-1.4h0.1v-0.2c0-0.7-0.2-1-0.9-1c-0.4,0-0.8,0.1-1.2,0.3v-0.5
		c0.3-0.1,0.8-0.3,1.2-0.3c1,0,1.4,0.5,1.4,1.5v1.8c0,0.3,0,0.6,0,0.8h-0.5L70.8,49.1"/>
	<path d="M72.7,49.3l2.4-3.2h-2.3v-0.4h2.9v0.4l-2.5,3.2h2.5v0.4h-3V49.3z"/>
	<path d="M77.2,45.7h0.5v4h-0.5V45.7z M77.7,44.6h-0.5V44h0.5V44.6z"/>
	<path d="M82.8,48.8c0,0.3,0,0.6,0,0.9h-0.5V49h0c-0.2,0.4-0.5,0.8-1.3,0.8c-1,0-1.4-0.7-1.4-1.5v-2.6h0.5v2.5c0,0.8,0.3,1.3,1,1.3
		c0.9,0,1.2-0.8,1.2-1.5v-2.2h0.5L82.8,48.8"/>
	<path d="M84.7,46.7c0-0.3,0-0.6,0-0.9h0.5v0.7h0c0.2-0.4,0.5-0.8,1.3-0.8c1,0,1.4,0.7,1.4,1.5v2.6h-0.5v-2.5c0-0.8-0.3-1.3-1-1.3
		c-0.9,0-1.2,0.8-1.2,1.5v2.2h-0.5L84.7,46.7"/>
	<path d="M92.2,49.1c0.3,0.1,0.7,0.3,1.1,0.3c0.5,0,0.9-0.3,0.9-0.7c0-1-2-0.8-2-2c0-0.8,0.7-1.1,1.3-1.1c0.2,0,0.6,0,1,0.2l0,0.4
		c-0.3-0.1-0.6-0.2-0.9-0.2c-0.5,0-0.9,0.2-0.9,0.7c0,0.7,2,0.7,2,2c0,0.9-0.8,1.1-1.4,1.1c-0.4,0-0.8,0-1.1-0.2L92.2,49.1z"/>
	<path d="M97.6,49.7H97l-1.4-4h0.5l1.1,3.5h0l1.2-3.5h0.5L97.6,49.7z"/>
	<path d="M100.4,45.7h0.5v4h-0.5V45.7z M100.9,44.6h-0.5V44h0.5V44.6z"/>
	<path d="M102.4,49.3l2.4-3.2h-2.3v-0.4h2.9v0.4l-2.5,3.2h2.5v0.4h-3V49.3z"/>
	<path d="M106.9,46.6c0-0.4,0-0.6,0-0.9h0.5v0.8h0c0.2-0.5,0.5-0.9,1-0.9c0.1,0,0.3,0,0.4,0v0.5c-0.1,0-0.2-0.1-0.4-0.1
		c-0.8,0-1,0.9-1,1.6v2h-0.5L106.9,46.6"/>
	<path d="M112.5,47.7h-0.1c-0.9,0-1.9,0.1-1.9,1c0,0.5,0.4,0.7,0.8,0.7c1.2,0,1.2-1,1.2-1.5L112.5,47.7L112.5,47.7z M112.5,49.1
		L112.5,49.1c-0.2,0.5-0.8,0.7-1.3,0.7c-1.2,0-1.3-0.8-1.3-1.1c0-1.3,1.5-1.4,2.5-1.4h0.1v-0.2c0-0.7-0.2-1-0.9-1
		c-0.4,0-0.8,0.1-1.2,0.3v-0.5c0.3-0.1,0.8-0.3,1.2-0.3c1,0,1.4,0.5,1.4,1.5v1.8c0,0.3,0,0.6,0,0.8h-0.5V49.1"/>
	<path d="M32.4,71h0.5c1.6,0,2.6-0.6,2.6-2.3c0-1.7-1-2.2-2.3-2.2h-0.8V71z M31.8,66h1.4c2,0,2.8,1.1,2.8,2.7c0,2-1.3,2.8-3.2,2.8
		h-1V66z"/>
	<path d="M39.4,65.9H40l-1,1.1h-0.4L39.4,65.9L39.4,65.9z M40.2,69.2c0-0.7-0.3-1.4-1-1.4S38,68.5,38,69.2H40.2L40.2,69.2z
		 M40.5,71.4c-0.4,0.1-0.8,0.2-1.2,0.2c-1.3,0-1.8-0.9-1.8-2.1c0-1.2,0.7-2.1,1.7-2.1c1.1,0,1.6,0.9,1.6,2v0.3H38
		c0,0.9,0.5,1.5,1.3,1.5c0.4,0,0.9-0.1,1.1-0.3L40.5,71.4"/>
	<path d="M44,67.8c-0.9,0-1.2,0.9-1.2,1.7c0,0.7,0.3,1.7,1.2,1.7c1,0,1.2-0.9,1.2-1.7C45.2,68.7,45,67.8,44,67.8z M42.3,67.5h0.5
		l0,0.7h0c0.1-0.2,0.4-0.8,1.3-0.8c1.2,0,1.7,0.9,1.7,2.1s-0.6,2.1-1.7,2.1c-0.6,0-1-0.3-1.3-0.8h0v2.3h-0.5L42.3,67.5"/>
	<path d="M49.7,69.5h-0.1c-0.9,0-1.9,0.1-1.9,1c0,0.5,0.4,0.7,0.8,0.7c1.2,0,1.2-1,1.2-1.5V69.5z M49.7,70.9L49.7,70.9
		c-0.2,0.5-0.8,0.7-1.3,0.7c-1.2,0-1.3-0.8-1.3-1.1c0-1.3,1.5-1.4,2.5-1.4h0.1v-0.2c0-0.7-0.2-1-0.9-1c-0.4,0-0.8,0.1-1.2,0.3v-0.5
		c0.3-0.1,0.8-0.3,1.2-0.3c1,0,1.4,0.5,1.4,1.5v1.8c0,0.3,0,0.6,0,0.8h-0.5L49.7,70.9"/>
	<path d="M52,68.4c0-0.4,0-0.6,0-0.9h0.5v0.8h0c0.2-0.5,0.5-0.9,1-0.9c0.1,0,0.3,0,0.4,0v0.5c-0.1,0-0.2-0.1-0.4-0.1
		c-0.8,0-1,0.9-1,1.6v2H52L52,68.4"/>
	<path d="M57,67.9h-0.9v2.6c0,0.4,0.1,0.7,0.5,0.7c0.2,0,0.3,0,0.5-0.1l0,0.4c-0.1,0-0.4,0.1-0.6,0.1c-0.9,0-0.9-0.6-0.9-1.3v-2.4
		h-0.8v-0.4h0.8v-1l0.5-0.2v1.1H57V67.9z"/>
	<path d="M61,69.2c0-0.7-0.3-1.4-1-1.4c-0.8,0-1.2,0.7-1.2,1.4H61L61,69.2z M61.3,71.4c-0.4,0.1-0.8,0.2-1.2,0.2
		c-1.3,0-1.8-0.9-1.8-2.1c0-1.2,0.7-2.1,1.7-2.1c1.1,0,1.6,0.9,1.6,2v0.3h-2.8c0,0.9,0.5,1.5,1.3,1.5c0.4,0,0.9-0.1,1.1-0.3
		L61.3,71.4"/>
	<path d="M68.1,71.5v-2.7c0-0.6-0.2-1-0.9-1c-0.6,0-1.1,0.5-1.1,1.5v2.2h-0.5v-2.7c0-0.6-0.2-1-0.9-1c-0.6,0-1.1,0.5-1.1,1.5v2.2
		h-0.5v-3.1c0-0.3,0-0.6,0-0.9h0.5v0.7h0c0.2-0.3,0.4-0.8,1.3-0.8c0.4,0,0.9,0.1,1.1,0.9h0c0.2-0.5,0.7-0.9,1.3-0.9
		c0.8,0,1.3,0.6,1.3,1.3v2.8L68.1,71.5"/>
	<path d="M72.9,69.2c0-0.7-0.3-1.4-1-1.4c-0.8,0-1.2,0.7-1.2,1.4H72.9L72.9,69.2z M73.2,71.4c-0.4,0.1-0.8,0.2-1.2,0.2
		c-1.3,0-1.8-0.9-1.8-2.1c0-1.2,0.7-2.1,1.7-2.1c1.1,0,1.6,0.9,1.6,2v0.3h-2.8c0,0.9,0.5,1.5,1.3,1.5c0.4,0,0.9-0.1,1.1-0.3
		L73.2,71.4"/>
	<path d="M75,68.4c0-0.3,0-0.6,0-0.9h0.5v0.7h0c0.2-0.4,0.5-0.8,1.3-0.8c1,0,1.4,0.7,1.4,1.5v2.6h-0.5v-2.5c0-0.8-0.3-1.3-1-1.3
		c-0.9,0-1.2,0.8-1.2,1.5v2.2h-0.5L75,68.4"/>
	<path d="M81.8,67.9h-0.9v2.6c0,0.4,0.1,0.7,0.5,0.7c0.2,0,0.3,0,0.5-0.1l0,0.4c-0.1,0-0.4,0.1-0.6,0.1c-0.9,0-0.9-0.6-0.9-1.3v-2.4
		h-0.8v-0.4h0.8v-1l0.5-0.2v1.1h0.9V67.9z"/>
	<path d="M86.6,67.9h-0.8v-0.4h0.8v-0.3c0-0.8,0-1.7,1.1-1.7c0.2,0,0.4,0,0.5,0.1l0,0.4c-0.1-0.1-0.3-0.1-0.4-0.1
		c-0.7,0-0.6,0.7-0.6,1.2v0.3H88v0.4H87v3.6h-0.5L86.6,67.9"/>
	<path d="M91.1,65.9h0.6l-1,1.1h-0.4L91.1,65.9z M92,69.2c0-0.7-0.3-1.4-1-1.4c-0.8,0-1.2,0.7-1.2,1.4H92L92,69.2z M92.2,71.4
		c-0.4,0.1-0.8,0.2-1.2,0.2c-1.3,0-1.8-0.9-1.8-2.1c0-1.2,0.7-2.1,1.7-2.1c1.1,0,1.6,0.9,1.6,2v0.3h-2.8c0,0.9,0.5,1.5,1.3,1.5
		c0.4,0,0.9-0.1,1.1-0.3L92.2,71.4"/>
	<path d="M95.6,71.2c0.9,0,1.2-0.9,1.2-1.7c0-0.7-0.3-1.7-1.2-1.7c-1,0-1.2,0.9-1.2,1.7C94.4,70.3,94.6,71.2,95.6,71.2z M97.3,71.5
		h-0.5v-0.6h0c-0.3,0.5-0.7,0.7-1.3,0.7c-1.1,0-1.7-0.9-1.7-2.1c0-1.2,0.5-2.1,1.7-2.1c0.8,0,1.2,0.6,1.3,0.8h0v-2.6h0.5V71.5"/>
	<path d="M100.8,65.9h0.6l-1,1.1H100L100.8,65.9L100.8,65.9z M101.6,69.2c0-0.7-0.3-1.4-1-1.4s-1.2,0.7-1.2,1.4H101.6L101.6,69.2z
		 M101.9,71.4c-0.3,0.1-0.8,0.2-1.2,0.2c-1.3,0-1.8-0.9-1.8-2.1c0-1.2,0.7-2.1,1.7-2.1c1.1,0,1.6,0.9,1.6,2v0.3h-2.8
		c0,0.9,0.5,1.5,1.3,1.5c0.4,0,0.9-0.1,1.1-0.3L101.9,71.4"/>
	<path d="M103.8,68.4c0-0.4,0-0.6,0-0.9h0.5v0.8h0c0.2-0.5,0.5-0.9,1-0.9c0.1,0,0.3,0,0.3,0v0.5c-0.1,0-0.2-0.1-0.4-0.1
		c-0.8,0-1,0.9-1,1.6v2h-0.5L103.8,68.4"/>
	<path d="M109.3,69.5h-0.1c-0.9,0-1.9,0.1-1.9,1c0,0.5,0.4,0.7,0.8,0.7c1.2,0,1.2-1,1.2-1.5V69.5z M109.4,70.9L109.4,70.9
		c-0.2,0.5-0.8,0.7-1.3,0.7c-1.2,0-1.3-0.8-1.3-1.1c0-1.3,1.5-1.4,2.5-1.4h0.1v-0.2c0-0.7-0.2-1-0.9-1c-0.4,0-0.8,0.1-1.2,0.3v-0.5
		c0.3-0.1,0.8-0.3,1.2-0.3c1,0,1.4,0.5,1.4,1.5v1.8c0,0.3,0,0.6,0,0.8h-0.5L109.4,70.9"/>
	<path d="M111.6,65.6h0.5v5.9h-0.5V65.6z"/>
	<path d="M118.4,71.2c0.9,0,1.2-0.9,1.2-1.7c0-0.7-0.3-1.7-1.2-1.7c-1,0-1.2,0.9-1.2,1.7C117.2,70.3,117.4,71.2,118.4,71.2z
		 M120.1,71.5h-0.5v-0.6h0c-0.3,0.5-0.7,0.7-1.3,0.7c-1.1,0-1.7-0.9-1.7-2.1c0-1.2,0.5-2.1,1.7-2.1c0.8,0,1.2,0.6,1.3,0.8h0v-2.6
		h0.5V71.5"/>
	<path d="M124.4,69.2c0-0.7-0.3-1.4-1-1.4c-0.7,0-1.2,0.7-1.2,1.4H124.4z M124.6,71.4c-0.4,0.1-0.8,0.2-1.2,0.2
		c-1.4,0-1.8-0.9-1.8-2.1c0-1.2,0.7-2.1,1.7-2.1c1.1,0,1.6,0.9,1.6,2v0.3h-2.8c0,0.9,0.5,1.5,1.3,1.5c0.4,0,0.9-0.1,1.1-0.3
		L124.6,71.4"/>
	<path d="M129.4,65.6h0.5v5.9h-0.5V65.6z"/>
	<path d="M132.2,66h0.6l-0.6,1.7h-0.5L132.2,66z"/>
	<path d="M134.6,67.5h0.5v4h-0.5V67.5z M135.1,66.4h-0.5v-0.7h0.5V66.4z"/>
	<path d="M137,68.4c0-0.3,0-0.6,0-0.9h0.5v0.7h0c0.2-0.4,0.5-0.8,1.3-0.8c1,0,1.4,0.7,1.4,1.5v2.6h-0.5v-2.5c0-0.8-0.3-1.3-1-1.3
		c-0.9,0-1.2,0.8-1.2,1.5v2.2H137L137,68.4"/>
	<path d="M143.8,67.9h-0.9v2.6c0,0.4,0.1,0.7,0.5,0.7c0.2,0,0.3,0,0.5-0.1l0,0.4c-0.1,0-0.4,0.1-0.6,0.1c-0.9,0-0.9-0.6-0.9-1.3
		v-2.4h-0.8v-0.4h0.8v-1l0.5-0.2v1.1h0.9L143.8,67.9"/>
	<path d="M147,65.9h0.6l-1,1.1h-0.4L147,65.9z M147.8,69.2c0-0.7-0.3-1.4-1-1.4c-0.7,0-1.2,0.7-1.2,1.4H147.8z M148,71.4
		c-0.3,0.1-0.8,0.2-1.2,0.2c-1.3,0-1.8-0.9-1.8-2.1c0-1.2,0.7-2.1,1.7-2.1c1.1,0,1.6,0.9,1.6,2v0.3h-2.8c0,0.9,0.5,1.5,1.3,1.5
		c0.4,0,0.9-0.1,1.1-0.3L148,71.4"/>
	<path d="M149.9,68.4c0-0.4,0-0.6,0-0.9h0.5v0.8h0c0.2-0.5,0.5-0.9,1-0.9c0.1,0,0.3,0,0.3,0v0.5c-0.1,0-0.2-0.1-0.4-0.1
		c-0.8,0-1,0.9-1,1.6v2h-0.5L149.9,68.4"/>
	<path d="M153.2,67.5h0.5v4h-0.5V67.5z M153.7,66.4h-0.5v-0.7h0.5V66.4z"/>
	<path d="M158.1,69.2c0-0.7-0.3-1.4-1-1.4c-0.8,0-1.2,0.7-1.2,1.4H158.1L158.1,69.2z M158.3,71.4c-0.4,0.1-0.8,0.2-1.2,0.2
		c-1.4,0-1.8-0.9-1.8-2.1c0-1.2,0.7-2.1,1.7-2.1c1.1,0,1.6,0.9,1.6,2v0.3h-2.8c0,0.9,0.5,1.5,1.3,1.5c0.4,0,0.9-0.1,1.1-0.3
		L158.3,71.4"/>
	<path d="M163.4,70.6c0,0.3,0,0.6,0,0.9h-0.5v-0.7h0c-0.2,0.4-0.5,0.8-1.3,0.8c-1,0-1.4-0.7-1.4-1.5v-2.6h0.5v2.5
		c0,0.8,0.3,1.3,1,1.3c0.9,0,1.2-0.8,1.2-1.5v-2.2h0.5V70.6z"/>
	<path d="M165.2,68.4c0-0.4,0-0.6,0-0.9h0.5v0.8h0c0.2-0.5,0.5-0.9,1-0.9c0.1,0,0.3,0,0.4,0v0.5c-0.1,0-0.2-0.1-0.4-0.1
		c-0.8,0-1,0.9-1,1.6v2h-0.5V68.4"/>
	<path d="M171.9,71h0.5c1.6,0,2.6-0.6,2.6-2.3c0-1.7-1-2.2-2.3-2.2h-0.8V71z M171.4,66h1.4c2,0,2.8,1.1,2.8,2.7c0,2-1.3,2.8-3.2,2.8
		h-1V66z"/>
	<path d="M177.3,66h2.7v0.5h-2.1v2h2v0.5h-2v2.6h-0.6V66z"/>
	<path d="M181.4,66h0.6v5.5h-0.6V66z"/>
	<path d="M34.3,81.6c1.1,0,1.6-1,1.6-2s-0.5-2-1.6-2c-1.1,0-1.6,1-1.6,2S33.1,81.6,34.3,81.6z M34.3,76.8c1.7,0,2.7,1.2,2.7,2.8
		s-1,2.9-2.7,2.9s-2.7-1.2-2.7-2.9C31.5,77.9,32.5,76.8,34.3,76.8z"/>
	<path d="M38.4,79.1h-0.8v-0.8h0.8v-0.6c0-0.8,0.5-1.4,1.3-1.4c0.3,0,0.6,0,0.8,0.1l-0.1,0.9c-0.1-0.1-0.2-0.1-0.5-0.1
		c-0.4,0-0.5,0.3-0.5,0.6v0.5h0.9v0.8h-0.9v3.3h-1.1V79.1"/>
	<path d="M41.5,79.1h-0.8v-0.8h0.8v-0.6c0-0.8,0.5-1.4,1.3-1.4c0.3,0,0.6,0,0.8,0.1l-0.1,0.9c-0.1-0.1-0.2-0.1-0.5-0.1
		c-0.4,0-0.5,0.3-0.5,0.6v0.5h0.9v0.8h-0.9v3.3h-1.1V79.1"/>
	<path d="M44.4,78.3h1.1v4.1h-1.1V78.3z M44.4,76.6h1.1v1h-1.1V76.6z"/>
	<path d="M49.3,79.2c-0.2-0.1-0.4-0.1-0.7-0.1c-0.7,0-1.1,0.5-1.1,1.3c0,0.8,0.4,1.3,1.1,1.3c0.3,0,0.6-0.1,0.8-0.2l0,0.9
		c-0.3,0.1-0.6,0.1-1.1,0.1c-1.3,0-2-0.9-2-2.1c0-1.2,0.7-2.1,2-2.1c0.4,0,0.7,0,1,0.1L49.3,79.2"/>
	<path d="M52.9,80c0-0.5-0.3-1-0.9-1s-0.9,0.4-0.9,1H52.9z M53.6,82.2c-0.4,0.2-0.8,0.3-1.4,0.3c-1.4,0-2.1-0.8-2.1-2.1
		c0-1.2,0.6-2.1,1.9-2.1c1.5,0,2,1,2,2.5h-2.8c0.1,0.7,0.5,1,1.2,1c0.5,0,1-0.2,1.4-0.4L53.6,82.2"/>
	<path d="M57.6,79.1h-0.8v-0.8h0.8v-0.6c0-0.8,0.5-1.4,1.3-1.4c0.3,0,0.6,0,0.8,0.1l-0.1,0.9c-0.1-0.1-0.2-0.1-0.5-0.1
		c-0.4,0-0.5,0.3-0.5,0.6v0.5h0.9v0.8h-0.9v3.3h-1.1V79.1"/>
	<path d="M62.2,76.6h1.1l-1.1,1.2h-0.7L62.2,76.6z M63,80c0-0.5-0.3-1-0.9-1s-0.9,0.4-0.9,1H63z M63.7,82.2
		c-0.4,0.2-0.8,0.3-1.4,0.3c-1.4,0-2.1-0.8-2.1-2.1c0-1.2,0.6-2.1,1.9-2.1c1.5,0,2,1,2,2.5h-2.8c0.1,0.7,0.5,1,1.2,1
		c0.5,0,1-0.2,1.4-0.4L63.7,82.2"/>
	<path d="M66.8,81.7c0.7,0,0.9-0.7,0.9-1.3c0-0.6-0.3-1.3-1-1.3c-0.7,0-0.9,0.7-0.9,1.3C65.9,80.9,66.1,81.7,66.8,81.7L66.8,81.7z
		 M67.7,81.9L67.7,81.9c-0.3,0.4-0.8,0.5-1.3,0.5c-1.3,0-1.7-1-1.7-2.1c0-1.1,0.5-2.1,1.7-2.1c0.5,0,0.9,0.2,1.2,0.6h0v-2.3h1.1v5.9
		h-1L67.7,81.9"/>
	<path d="M71.7,76.6h1.1l-1.1,1.2h-0.7L71.7,76.6z M72.6,80c0-0.5-0.3-1-0.9-1s-0.9,0.4-0.9,1H72.6z M73.3,82.2
		c-0.4,0.2-0.8,0.3-1.4,0.3c-1.4,0-2.1-0.8-2.1-2.1c0-1.2,0.6-2.1,1.9-2.1c1.5,0,2,1,2,2.5h-2.8c0,0.7,0.5,1,1.2,1
		c0.5,0,1-0.2,1.4-0.4L73.3,82.2"/>
	<path d="M74.6,78.3h0.9v0.9h0c0-0.4,0.5-1,1.1-1c0.1,0,0.2,0,0.3,0v1.1c-0.1-0.1-0.3-0.1-0.5-0.1c-0.9,0-0.9,1.1-0.9,1.7v1.5h-1.1
		V78.3"/>
	<path d="M79.2,81.7c0.3,0,0.6-0.1,0.8-0.4c0.2-0.2,0.2-0.5,0.2-0.8h-0.5c-0.5,0-1.2,0.1-1.2,0.7C78.5,81.6,78.8,81.7,79.2,81.7
		L79.2,81.7z M77.9,78.5c0.4-0.2,1-0.3,1.4-0.3c1.3,0,1.8,0.5,1.8,1.7v0.5c0,0.4,0,0.7,0,1c0,0.3,0,0.6,0,0.9h-0.9
		c0-0.2,0-0.5,0-0.6h0c-0.2,0.5-0.8,0.7-1.3,0.7c-0.7,0-1.4-0.4-1.4-1.2c0-0.6,0.3-1,0.7-1.2c0.4-0.2,0.9-0.2,1.4-0.2h0.6
		c0-0.7-0.3-0.9-0.9-0.9c-0.5,0-0.9,0.2-1.3,0.4L77.9,78.5"/>
	<path d="M82.3,76.5h1.1v5.9h-1.1V76.5z"/>
	<path d="M88.7,81.7c0.7,0,0.9-0.7,0.9-1.3c0-0.6-0.3-1.3-1-1.3c-0.7,0-0.9,0.7-0.9,1.3C87.8,80.9,88.1,81.7,88.7,81.7L88.7,81.7z
		 M89.7,81.9L89.7,81.9c-0.3,0.4-0.8,0.5-1.3,0.5c-1.3,0-1.7-1-1.7-2.1c0-1.1,0.5-2.1,1.7-2.1c0.5,0,0.9,0.2,1.2,0.6h0v-2.3h1.1v5.9
		h-1L89.7,81.9"/>
	<path d="M94.6,80c0-0.5-0.3-1-0.9-1c-0.6,0-0.9,0.4-0.9,1H94.6z M95.3,82.2c-0.4,0.2-0.8,0.3-1.4,0.3c-1.4,0-2.1-0.8-2.1-2.1
		c0-1.2,0.6-2.1,1.9-2.1c1.5,0,2,1,2,2.5h-2.8c0.1,0.7,0.5,1,1.2,1c0.5,0,1-0.2,1.4-0.4L95.3,82.2"/>
	<path d="M98.9,76.5h1.1v5.9h-1.1V76.5z"/>
	<path d="M102.6,81.7c0.3,0,0.6-0.1,0.7-0.4c0.2-0.2,0.2-0.5,0.2-0.8h-0.5c-0.5,0-1.2,0.1-1.2,0.7C101.9,81.6,102.2,81.7,102.6,81.7
		L102.6,81.7z M101.4,78.5c0.4-0.2,1-0.3,1.4-0.3c1.3,0,1.8,0.5,1.8,1.7v0.5c0,0.4,0,0.7,0,1c0,0.3,0,0.6,0,0.9h-0.9
		c0-0.2,0-0.5,0-0.6h0c-0.2,0.5-0.8,0.7-1.3,0.7c-0.7,0-1.4-0.4-1.4-1.2c0-0.6,0.3-1,0.7-1.2c0.4-0.2,0.9-0.2,1.4-0.2h0.6
		c0-0.7-0.3-0.9-0.9-0.9c-0.5,0-0.9,0.2-1.3,0.4L101.4,78.5"/>
	<path d="M110.7,79.2c-0.2-0.1-0.4-0.1-0.7-0.1c-0.7,0-1.1,0.5-1.1,1.3c0,0.8,0.4,1.3,1.1,1.3c0.3,0,0.6-0.1,0.8-0.2l0.1,0.9
		c-0.3,0.1-0.6,0.1-1.1,0.1c-1.3,0-2-0.9-2-2.1c0-1.2,0.7-2.1,2-2.1c0.4,0,0.7,0,1,0.1L110.7,79.2"/>
	<path d="M115.5,82.4h-1v-0.6h0c-0.3,0.4-0.8,0.7-1.3,0.7c-1,0-1.4-0.7-1.4-1.6v-2.6h1.1v2.2c0,0.5,0,1.2,0.7,1.2
		c0.8,0,0.9-0.8,0.9-1.3v-2h1.1V82.4"/>
	<path d="M116.8,76.5h1.1v5.9h-1.1V76.5z"/>
	<path d="M119.4,79.1h-0.8v-0.8h0.8v-0.8l1.1-0.3v1.2h0.9v0.8h-0.9V81c0,0.3,0.1,0.7,0.5,0.7c0.2,0,0.4,0,0.5-0.1l0,0.8
		c-0.2,0.1-0.5,0.1-0.8,0.1c-0.8,0-1.3-0.5-1.3-1.3V79.1"/>
	<path d="M126.1,82.4h-1v-0.6h0c-0.3,0.4-0.8,0.7-1.3,0.7c-1,0-1.4-0.7-1.4-1.6v-2.6h1.1v2.2c0,0.5,0,1.2,0.7,1.2
		c0.8,0,0.9-0.8,0.9-1.3v-2h1.1L126.1,82.4"/>
	<path d="M127.3,78.3h0.9v0.9h0c0-0.4,0.5-1,1.1-1c0.1,0,0.2,0,0.3,0v1.1c-0.1-0.1-0.3-0.1-0.5-0.1c-0.9,0-0.9,1.1-0.9,1.7v1.5h-1.1
		L127.3,78.3"/>
	<path d="M132.9,80c0-0.5-0.3-1-0.9-1s-0.9,0.4-0.9,1H132.9z M133.6,82.2c-0.4,0.2-0.8,0.3-1.4,0.3c-1.4,0-2.1-0.8-2.1-2.1
		c0-1.2,0.6-2.1,1.9-2.1c1.5,0,2,1,2,2.5h-2.8c0,0.7,0.5,1,1.2,1c0.5,0,1-0.2,1.4-0.4L133.6,82.2"/>
	<path d="M139.8,81.6c1.1,0,1.6-1,1.6-2s-0.5-2-1.6-2c-1.1,0-1.6,1-1.6,2S138.7,81.6,139.8,81.6z M139.8,76.8c1.7,0,2.7,1.2,2.7,2.8
		s-1,2.9-2.7,2.9c-1.8,0-2.7-1.2-2.7-2.9C137.1,77.9,138,76.8,139.8,76.8z"/>
	<path d="M143.7,76.9h3.1v0.9h-2v1.4h1.9V80h-1.9v2.4h-1.1V76.9z"/>
	<path d="M151.8,82.3c-0.4,0.1-0.9,0.2-1.3,0.2c-1.8,0-3-0.9-3-2.8c0-1.9,1.2-2.9,3-2.9c0.4,0,0.8,0.1,1.3,0.2l-0.1,0.9
		c-0.4-0.2-0.8-0.3-1.2-0.3c-1.1,0-1.9,0.9-1.9,2c0,1.1,0.7,2,1.9,2c0.4,0,1-0.1,1.2-0.2L151.8,82.3"/>
	<path d="M22.6,11.3c0,0-4.2-1.8-11.3-1.8C4.3,9.5,0,11.3,0,11.3S-0.3,19.4,1.3,24c2.8,8,10,10.3,10,10.3s7.2-2.3,10-10.3
		C23,19.4,22.6,11.3,22.6,11.3"/>
	<path class="st0" d="M18.8,18.3v4.5h-5.3V28H9v-5.2H3.8v-4.5H9v-5.2h4.5v5.2H18.8z"/>
</g>
<rect y="0" class="st1" width="182" height="92"/>
</svg>
