<svg width="167" height="124" viewBox="0 0 167 124" fill="none" xmlns="http://www.w3.org/2000/svg">
<path d="M9.74527 17.8594H0.015625L0.997797 12.9766H17.7101L18.1091 13.3733C18.1091 15.5248 12.7071 30.2648 8.77844 40.8239C7.0136 45.6152 6.32301 48.0566 6.32301 50.1013C6.32301 52.6343 8.08785 54.9841 12.0165 54.9841C14.3799 54.9841 17.0195 52.4512 22.2373 45.2185L24.2016 46.195L17.7254 54.9841C14.5794 59.1803 12.8146 60.8435 10.8502 61.8201H8.88587C4.95718 61.8201 1.61165 58.692 1.61165 54.2059C1.61165 52.8326 1.90324 50.788 2.39432 48.9264L9.74527 17.8594Z" fill="#111111"/>
<path d="M64.1631 36.6125C65.1453 32.9962 66.419 30.2648 66.419 26.2518C66.419 21.5673 62.8893 17.8594 57.779 17.8594C51.7939 17.8594 48.2488 21.7657 42.0642 37.3907L32.442 61.8048H26.549L37.3529 17.8594H22.1445L23.1267 12.9766H43.8444L44.2434 13.3733C44.2434 15.3264 35.0048 42.6703 34.4217 44.2419H35.6034L41.2969 31.5466C47.3741 17.9509 54.0498 12 62.4903 12C70.1482 12 73.4937 17.2796 73.4937 21.7657C73.4937 26.8468 71.6215 30.6463 68.6749 37.9858C65.3294 46.1951 64.6542 47.8583 64.6542 50.1013C64.6542 52.6343 65.4368 54.9841 69.3655 54.9841C71.7289 54.9841 74.3685 52.4512 79.5863 45.2185L81.5506 46.195L75.0744 54.9841C71.9284 59.1803 70.1635 60.8435 68.1992 61.8201H66.2349C62.3062 61.8201 59.9428 58.692 59.9428 54.2059C59.9428 52.8326 60.2344 50.788 60.7255 48.9264L64.1631 36.6125Z" fill="#111111"/>
<path d="M8.14896 120.476C7.56579 120.476 7.07471 120.674 6.58362 121.162L3.63711 124H3.2381L0 104.454L1.96434 103.477C2.25593 104.454 6.6757 121.055 22.989 121.055C29.8642 121.055 32.8107 118.126 32.8107 113.243C32.8107 100.548 7.27421 103.477 7.27421 86.8757C7.27421 78.0866 15.1316 73.2037 22.6053 73.2037C30.4627 73.2037 32.2275 76.7133 34.7904 76.7133C35.3735 76.7133 35.8646 76.5149 36.3557 76.0266L39.3022 73.1885H39.7012L42.9393 92.7198L40.975 93.6964C40.6834 92.7198 35.7726 76.1182 23.5875 76.1182C18.0935 76.1182 14.1494 79.0479 14.1494 84.9073C14.1494 97.6026 38.7037 95.6495 38.7037 110.298C38.7037 119.682 30.8463 123.97 22.59 123.97C13.4588 123.97 10.6965 120.46 8.14896 120.46V120.476Z" fill="#111111"/>
<path d="M57.8566 79.0625H48.127L49.1091 74.1797H65.8061L66.2051 74.5764C66.2051 76.7279 60.8031 91.4679 56.8744 102.027C55.1096 106.818 54.419 109.26 54.419 111.304C54.419 113.837 56.1838 116.187 60.1125 116.187C62.4759 116.187 65.1155 113.654 70.3333 106.422L72.2976 107.398L65.8214 116.187C62.6754 120.383 60.9105 122.047 58.9462 123.023H56.9819C53.0532 123.023 49.7076 119.895 49.7076 115.409C49.7076 114.036 49.9992 111.991 50.4903 110.129L57.8566 79.0625Z" fill="#111111"/>
<path d="M103.343 106.986L107.072 100.532L109.036 101.508L105.307 107.963C99.9973 117.042 93.6131 123.985 86.4464 123.985C84.083 123.985 77.4073 122.718 77.4073 115.195C77.4073 113.242 77.6989 110.511 78.7885 107.581L88.9018 79.0626H70.041L71.1153 74.1798H89.976L92.6924 51.7188H99.1992L93.5057 74.1798H109.128L108.054 79.0626H92.232L85.2647 106.406C84.7736 108.36 84.482 109.916 84.482 111.488C84.482 115.791 87.3365 118.125 90.375 118.125C94.3958 118.125 97.9408 116.264 103.343 106.986Z" fill="#111111"/>
<path d="M165.036 106.406L167 107.383L160.524 116.172C157.378 120.368 155.613 122.031 153.649 123.008H151.684C147.756 123.008 145.392 119.88 145.392 115.393C145.392 113.837 145.684 112.464 146.375 110.511L153.25 91.7575H152.068L146.375 104.453C140.282 118.033 133.606 123.984 125.15 123.984C117.493 123.984 114.147 118.705 114.147 114.218C114.147 109.137 115.712 105.628 118.475 97.9984C120.347 92.9172 122.802 86.661 125.642 79.0469H104.387L105.461 74.1641H130.338L130.737 74.5608L123.278 99.3717C122.204 102.988 121.222 106.696 121.222 109.732C121.222 114.417 124.859 118.125 129.862 118.125C135.847 118.125 139.392 114.218 145.577 98.5935L155.199 74.1793H161.092L153.035 107.199C152.636 108.664 152.053 110.907 152.053 113.257C152.053 115.21 153.035 116.187 154.8 116.187C157.163 116.187 159.803 113.654 165.021 106.421L165.036 106.406Z" fill="#111111"/>
<path d="M119.054 22H121.4V20.844C121.978 21.847 123.083 22.221 124.035 22.221C126.211 22.221 128.013 20.351 128.013 17.427C128.013 14.554 126.245 12.65 124.035 12.65C122.879 12.65 121.893 13.177 121.4 14.027V9.675H119.054V22ZM125.548 17.444C125.548 19.229 124.664 20.419 123.457 20.419C122.165 20.419 121.315 19.297 121.315 17.427C121.315 15.591 122.165 14.452 123.457 14.452C124.664 14.452 125.548 15.659 125.548 17.444ZM131.396 18.073H138.145C138.247 14.843 136.479 12.65 133.657 12.65C130.954 12.65 129.067 14.673 129.067 17.393C129.067 20.028 130.784 22.221 133.725 22.221C136.207 22.221 137.55 20.708 138.043 19.348H135.629C135.153 20.147 134.422 20.402 133.708 20.402C132.603 20.402 131.515 19.637 131.396 18.073ZM131.43 16.458C131.617 14.928 132.756 14.367 133.64 14.367C134.626 14.367 135.714 14.911 135.765 16.458H131.43ZM139.98 10.372V12.854H138.688V14.469H139.98V19.535C139.98 21.354 140.388 22 142.479 22H144.196V20.317H143.482C142.649 20.317 142.326 20.13 142.326 19.195V14.469H144.23V12.854H142.326V10.372H139.98ZM148.657 22.221C150.034 22.221 151.003 21.813 151.649 20.861C151.683 21.303 151.734 21.711 151.802 22H153.961C153.791 21.235 153.689 20.419 153.689 18.974C153.689 18.141 153.723 16.934 153.723 16.645C153.723 13.551 151.955 12.616 149.779 12.616C147.433 12.616 145.937 13.942 145.767 15.744H147.96C148.011 14.741 148.759 14.265 149.66 14.265C150.612 14.265 151.377 14.758 151.377 16.169V16.322C147.79 16.73 145.359 17.376 145.359 19.535C145.359 21.201 146.906 22.221 148.657 22.221ZM151.445 17.818V18.498C151.445 19.824 150.816 20.623 149.354 20.623C148.3 20.623 147.773 20.079 147.773 19.416C147.773 18.396 148.827 18.09 151.445 17.818Z" fill="black"/>
<path d="M121.577 1C112.974 1 106 7.95994 106 16.5455C106 25.131 112.974 32.0909 121.577 32.0909H133.692V39L141.604 32.0909H150.423C159.026 32.0909 166 25.131 166 16.5455C166 7.95994 159.026 1 150.423 1H121.577Z" stroke="black" stroke-width="2"/>
</svg>
