<?xml version="1.0" encoding="utf-8"?>
<!-- Generator: Adobe Illustrator 26.3.1, SVG Export Plug-In . SVG Version: 6.00 Build 0)  -->
<svg version="1.1" id="Calque_1" xmlns="http://www.w3.org/2000/svg" xmlns:xlink="http://www.w3.org/1999/xlink" x="0px" y="0px"
	 width="167px" height="112px" viewBox="0 0 167 112" style="enable-background:new 0 0 167 112;" xml:space="preserve">
<style type="text/css">
	.st0{fill:#111110;}
</style>
<path class="st0" d="M9.7,5.9H0L1,1h16.7l0.4,0.4c0,2.2-5.4,16.9-9.3,27.5c-1.8,4.8-2.5,7.2-2.5,9.3c0,2.5,1.8,4.9,5.7,4.9
	c2.4,0,5-2.5,10.2-9.8l2,1L17.7,43c-3.1,4.2-4.9,5.9-6.9,6.8h-2c-3.9,0-7.3-3.1-7.3-7.6c0-1.4,0.3-3.4,0.8-5.3L9.7,5.9z"/>
<path class="st0" d="M64.2,24.6c1-3.6,2.3-6.3,2.3-10.4c0-4.7-3.5-8.4-8.6-8.4c-6,0-9.5,3.9-15.7,19.5l-9.6,24.4h-5.9L37.4,5.9H22.1
	l1-4.9h20.7l0.4,0.4c0,2-9.2,29.3-9.8,30.9h1.2l5.7-12.7C47.4,6,54,0,62.5,0c7.7,0,11,5.3,11,9.8c0,5.1-1.9,8.9-4.8,16.2
	c-3.3,8.2-4,9.9-4,12.1c0,2.5,0.8,4.9,4.7,4.9c2.4,0,5-2.5,10.2-9.8l2,1L75.1,43c-3.1,4.2-4.9,5.9-6.9,6.8h-2
	c-3.9,0-6.3-3.1-6.3-7.6c0-1.4,0.3-3.4,0.8-5.3L64.2,24.6z"/>
<path class="st0" d="M8.1,108.5c-0.6,0-1.1,0.2-1.6,0.7L3.6,112H3.2L0,92.5l2-1c0.3,1,4.7,17.6,21,17.6c6.9,0,9.8-2.9,9.8-7.8
	c0-12.7-25.5-9.8-25.5-26.4c0-8.8,7.9-13.7,15.3-13.7c7.9,0,9.6,3.5,12.2,3.5c0.6,0,1.1-0.2,1.6-0.7l2.9-2.8h0.4l3.2,19.5l-2,1
	c-0.3-1-5.2-17.6-17.4-17.6c-5.5,0-9.4,2.9-9.4,8.8c0,12.7,24.6,10.7,24.6,25.4c0,9.4-7.9,13.7-16.1,13.7
	C13.5,112,10.7,108.5,8.1,108.5L8.1,108.5z"/>
<path class="st0" d="M57.9,67.1h-9.7l1-4.9h16.7l0.4,0.4c0,2.2-5.4,16.9-9.3,27.5c-1.8,4.8-2.5,7.2-2.5,9.3c0,2.5,1.8,4.9,5.7,4.9
	c2.4,0,5-2.5,10.2-9.8l2,1l-6.5,8.8c-3.1,4.2-4.9,5.9-6.9,6.8h-2c-3.9,0-7.3-3.1-7.3-7.6c0-1.4,0.3-3.4,0.8-5.3L57.9,67.1z"/>
<path class="st0" d="M103.3,95l3.7-6.5l2,1l-3.7,6.5c-5.3,9.1-11.7,16-18.9,16c-2.4,0-9-1.3-9-8.8c0-2,0.3-4.7,1.4-7.6l10.1-28.5H70
	l1.1-4.9H90l2.7-22.5h6.5l-5.7,22.5h15.6l-1.1,4.9H92.2l-7,27.3c-0.5,2-0.8,3.5-0.8,5.1c0,4.3,2.9,6.6,5.9,6.6
	C94.4,106.1,97.9,104.3,103.3,95z"/>
<path class="st0" d="M165,94.4l2,1l-6.5,8.8c-3.1,4.2-4.9,5.9-6.9,6.8h-2c-3.9,0-6.3-3.1-6.3-7.6c0-1.6,0.3-2.9,1-4.9l6.9-18.8h-1.2
	l-5.7,12.7c-6.1,13.6-12.8,19.5-21.2,19.5c-7.7,0-11-5.3-11-9.8c0-5.1,1.6-8.6,4.3-16.2c1.9-5.1,4.3-11.3,7.2-19h-21.3l1.1-4.9h24.9
	l0.4,0.4l-7.5,24.8c-1.1,3.6-2.1,7.3-2.1,10.4c0,4.7,3.6,8.4,8.6,8.4c6,0,9.5-3.9,15.7-19.5l9.6-24.4h5.9l-8.1,33
	c-0.4,1.5-1,3.7-1,6.1c0,2,1,2.9,2.7,2.9C157.2,104.2,159.8,101.7,165,94.4L165,94.4z"/>
</svg>
