<?xml version="1.0" encoding="utf-8"?>
<!-- Generator: Adobe Illustrator 26.5.1, SVG Export Plug-In . SVG Version: 6.00 Build 0)  -->
<svg version="1.1" id="Calque_1" xmlns="http://www.w3.org/2000/svg" xmlns:xlink="http://www.w3.org/1999/xlink" x="0px" y="0px"
	 width="139px" height="116px" viewBox="0 0 139 116" style="enable-background:new 0 0 139 116;" xml:space="preserve">
<style type="text/css">
	.st0{clip-path:url(#SVGID_00000041273658303478117720000007570744500523766179_);}
	.st1{fill:#AAAAAA;}
	.st2{fill:#919191;}
	.st3{fill:#A6A6A6;}
	.st4{fill:#707070;}
	.st5{fill:#B2B2B2;}
	.st6{fill:#C3C3C3;}
	.st7{fill:#989898;}
</style>
<g>
	<defs>
		<rect id="SVGID_1_" width="139" height="116"/>
	</defs>
	<clipPath id="SVGID_00000049217278574563502270000006495923624481557396_">
		<use xlink:href="#SVGID_1_"  style="overflow:visible;"/>
	</clipPath>
	<g style="clip-path:url(#SVGID_00000049217278574563502270000006495923624481557396_);">
		<path d="M15.8,109.3h3.5l-0.1,0.7h-2.5v2.1h2.1v0.6h-2.1v3.1h-0.8V109.3z"/>
		<path d="M21.1,109.3h1.5c0.6-0.1,1.2,0.1,1.7,0.4c0.2,0.2,0.4,0.4,0.5,0.6c0.1,0.2,0.2,0.5,0.2,0.8c0,0.2,0,0.5-0.1,0.7
			c-0.1,0.2-0.2,0.4-0.4,0.6c-0.2,0.2-0.4,0.3-0.6,0.4c-0.2,0.1-0.5,0.1-0.7,0.1h-0.1c0.3,0.2,0.5,0.5,0.7,0.7
			c0.1,0.2,0.3,0.4,0.5,0.8l1,1.5h-1c-0.1-0.3-0.3-0.6-0.5-0.9c-0.4-0.6-0.8-1.2-1.2-1.6c-0.1-0.1-0.2-0.2-0.3-0.3
			c-0.1-0.1-0.3-0.1-0.4-0.1v3h-0.8V109.3z M21.8,109.9v2.5h0.7c0.2,0,0.4,0,0.6,0c0.2-0.1,0.4-0.2,0.6-0.3c0.1-0.1,0.2-0.3,0.3-0.5
			c0.1-0.2,0.1-0.4,0.1-0.5c0-0.2-0.1-0.4-0.2-0.6c-0.1-0.2-0.3-0.3-0.5-0.4c-0.3-0.1-0.5-0.1-0.8-0.1H21.8z"/>
		<path d="M27.4,109.3h0.8v6.6h-0.8V109.3z"/>
		<path d="M30.7,109.3h1c1.3,0,1.6,0,2,0.1c0.3,0.1,0.6,0.3,0.8,0.6c0.2,0.3,0.3,0.6,0.3,0.9c0,0.3-0.1,0.7-0.3,0.9
			c-0.2,0.3-0.5,0.4-0.8,0.5c0.3,0,0.6,0.2,0.9,0.4c0.2,0.2,0.3,0.4,0.4,0.6c0.1,0.2,0.2,0.5,0.1,0.7c0,0.4-0.1,0.7-0.3,1
			c-0.2,0.3-0.5,0.5-0.8,0.7c-0.5,0.2-1,0.2-1.5,0.2h-1.7V109.3z M31.5,109.9v2.2h1.1c0.7,0,1-0.1,1.2-0.6c0.1-0.2,0.1-0.3,0.1-0.5
			c0-0.2,0-0.5-0.2-0.7c-0.1-0.2-0.3-0.3-0.6-0.4c-0.2-0.1-0.5-0.1-0.7-0.1L31.5,109.9z M31.5,112.8v2.5h1.3c0.8,0,1.1-0.2,1.3-0.7
			c0.1-0.2,0.1-0.4,0.1-0.5c0-0.3-0.1-0.5-0.2-0.7s-0.4-0.4-0.6-0.4c-0.3,0-0.5-0.1-0.8-0.1H31.5z"/>
		<path d="M39.5,109.1c0.4,0,0.8,0.1,1.2,0.3s0.7,0.5,0.9,0.8c0.4,0.7,0.6,1.6,0.6,2.5c0,1.3-0.3,2.1-1,2.7
			c-0.2,0.2-0.5,0.4-0.8,0.5c-0.3,0.1-0.6,0.2-0.9,0.1c-0.3,0-0.7-0.1-1-0.2c-0.3-0.1-0.6-0.4-0.8-0.6c-0.6-0.8-0.8-1.7-0.8-2.6
			C36.9,110.4,37.9,109.1,39.5,109.1z M39.5,109.8c-0.3,0-0.6,0.1-0.8,0.2c-0.2,0.1-0.5,0.3-0.6,0.6c-0.3,0.6-0.4,1.2-0.3,1.8
			c0,0.8,0.1,1.6,0.4,2.3c0.2,0.2,0.4,0.4,0.6,0.5c0.2,0.1,0.5,0.2,0.8,0.2c0.2,0,0.5,0,0.7-0.1s0.4-0.2,0.5-0.4
			c0.3-0.4,0.5-0.9,0.5-2c0-0.7-0.1-1.4-0.3-2.1c-0.1-0.3-0.3-0.5-0.6-0.7C40.1,109.8,39.8,109.8,39.5,109.8z"/>
		<path d="M44.3,109.3H45v4.2c0,0.3,0,0.7,0.1,1c0.1,0.5,0.6,0.8,1.3,0.8c0.2,0,0.4,0,0.6-0.1c0.2-0.1,0.4-0.2,0.5-0.3
			c0.2-0.3,0.3-0.7,0.2-1.1v-4.5h0.8v4.6c0,0.9-0.1,1.3-0.5,1.6c-0.5,0.4-1.1,0.6-1.7,0.5c-1,0-1.6-0.3-1.9-1
			c-0.2-0.4-0.2-0.8-0.2-1.2L44.3,109.3z"/>
		<path d="M51,109.3h1.5c0.6-0.1,1.2,0.1,1.7,0.4c0.2,0.2,0.4,0.4,0.5,0.6c0.1,0.2,0.2,0.5,0.2,0.8c0,0.2,0,0.5-0.1,0.7
			s-0.2,0.4-0.4,0.6c-0.2,0.2-0.4,0.3-0.6,0.4c-0.2,0.1-0.5,0.1-0.7,0.1H53c0.3,0.2,0.5,0.5,0.7,0.7c0.1,0.2,0.3,0.4,0.5,0.8l1,1.5
			h-1c-0.1-0.3-0.3-0.6-0.5-0.9c-0.4-0.6-0.8-1.2-1.2-1.6c-0.1-0.1-0.2-0.2-0.3-0.3c-0.1-0.1-0.3-0.1-0.4-0.1v3H51V109.3z
			 M51.8,109.9v2.5h0.7c0.2,0,0.4,0,0.6,0c0.2-0.1,0.4-0.2,0.6-0.3c0.1-0.1,0.2-0.3,0.3-0.5c0.1-0.2,0.1-0.4,0.1-0.5
			c0-0.2-0.1-0.4-0.2-0.6c-0.1-0.2-0.3-0.3-0.5-0.4c-0.3-0.1-0.5-0.1-0.8-0.1H51.8z"/>
		<path d="M61.5,109.9l-0.4,0.5c-0.4-0.3-0.9-0.5-1.4-0.5c-0.4,0-0.7,0.1-1,0.3c-0.3,0.2-0.5,0.5-0.6,0.8c-0.2,0.5-0.3,1.1-0.3,1.7
			c0,0.7,0.1,1.4,0.5,2c0.2,0.2,0.4,0.4,0.7,0.5c0.3,0.1,0.6,0.2,0.9,0.2c0.4,0,0.7-0.1,1-0.3v-2h-1.3l-0.2-0.7h2.2v3.1
			c-0.6,0.3-1.2,0.5-1.8,0.5c-0.4,0-0.8-0.1-1.1-0.2c-0.3-0.1-0.7-0.4-0.9-0.6c-0.6-0.7-0.9-1.6-0.8-2.6c0-1.3,0.3-2.2,1-2.8
			c0.5-0.4,1.1-0.6,1.7-0.6C60.3,109.2,61,109.4,61.5,109.9z"/>
		<path d="M67.8,112.9h1.8v0.8h-1.8V112.9z"/>
		<path d="M76.1,109.3h3.5l-0.1,0.7h-2.5v2.1H79v0.6h-2.1v3.1h-0.8L76.1,109.3z"/>
		<path d="M81.5,109.3H83c0.9,0,1.3,0.2,1.7,0.4c0.2,0.2,0.4,0.4,0.5,0.6c0.1,0.2,0.2,0.5,0.2,0.8c0,0.2,0,0.5-0.1,0.7
			c-0.1,0.2-0.2,0.4-0.4,0.6c-0.2,0.2-0.4,0.3-0.6,0.4c-0.2,0.1-0.5,0.1-0.7,0.1h-0.1c0.3,0.2,0.5,0.5,0.7,0.7
			c0.1,0.2,0.3,0.4,0.5,0.8c0.2,0.3,1,1.5,1,1.5h-1c-0.1-0.3-0.3-0.6-0.5-0.9c-0.4-0.6-0.8-1.2-1.2-1.6c-0.1-0.1-0.2-0.2-0.3-0.3
			c-0.1-0.1-0.3-0.1-0.4-0.1v3h-0.8L81.5,109.3z M82.3,109.9v2.5H83c0.2,0,0.4,0,0.6,0c0.2-0.1,0.4-0.2,0.6-0.3
			c0.1-0.1,0.2-0.3,0.3-0.5c0.1-0.2,0.1-0.4,0.1-0.5c0-0.2-0.1-0.4-0.2-0.6c-0.1-0.2-0.3-0.3-0.5-0.4c-0.3-0.1-0.5-0.1-0.8-0.1H82.3
			z"/>
		<path d="M87.9,109.3h3.6l-0.1,0.7h-2.7v2.1H91v0.7h-2.3v2.4h2.9v0.7H88L87.9,109.3z"/>
		<path d="M93.9,109.3h0.8v6.6h-0.8V109.3z"/>
		<path d="M97.4,109.3h0.9c1.3,0,1.6,0,2,0.1c0.3,0.1,0.6,0.3,0.8,0.6c0.2,0.3,0.3,0.6,0.3,0.9c0,0.3-0.1,0.7-0.3,0.9
			c-0.2,0.3-0.5,0.4-0.8,0.5c0.3,0,0.6,0.2,0.9,0.4c0.2,0.2,0.3,0.4,0.4,0.6c0.1,0.2,0.2,0.5,0.1,0.7c0,0.4-0.1,0.7-0.3,1
			c-0.2,0.3-0.5,0.5-0.8,0.7c-0.5,0.2-1,0.2-1.5,0.2h-1.7L97.4,109.3z M98.1,109.9v2.2h1.1c0.7,0,1-0.1,1.2-0.6
			c0.1-0.2,0.1-0.3,0.1-0.5c0-0.2,0-0.5-0.2-0.7c-0.1-0.2-0.3-0.3-0.6-0.4c-0.2-0.1-0.5-0.1-0.7-0.1L98.1,109.9z M98.1,112.8v2.5
			h1.3c0.8,0,1.1-0.2,1.3-0.7c0.1-0.2,0.1-0.4,0.1-0.5c0-0.3-0.1-0.5-0.2-0.7c-0.1-0.2-0.4-0.4-0.6-0.4c-0.3,0-0.5-0.1-0.8-0.1H98.1
			z"/>
		<path d="M103.9,109.3h0.8v4.2c0,0.3,0,0.7,0.1,1c0.1,0.5,0.6,0.8,1.3,0.8c0.2,0,0.4,0,0.6-0.1c0.2-0.1,0.4-0.2,0.5-0.3
			c0.2-0.3,0.3-0.7,0.2-1.1v-4.5h0.8v4.6c0,0.9-0.1,1.3-0.5,1.6c-0.5,0.4-1.1,0.6-1.7,0.5c-1,0-1.6-0.3-1.9-1
			c-0.2-0.4-0.2-0.8-0.2-1.2V109.3z"/>
		<path d="M110.8,109.3h1.5c0.9,0,1.3,0.2,1.7,0.4c0.2,0.2,0.4,0.4,0.5,0.6c0.1,0.2,0.2,0.5,0.2,0.8c0,0.2,0,0.5-0.1,0.7
			c-0.1,0.2-0.2,0.4-0.4,0.6c-0.2,0.2-0.4,0.3-0.6,0.4c-0.2,0.1-0.5,0.1-0.7,0.1h-0.1c0.3,0.2,0.5,0.5,0.7,0.7
			c0.1,0.2,0.3,0.4,0.5,0.8c0.2,0.3,1,1.5,1,1.5h-1c-0.1-0.3-0.3-0.6-0.5-0.9c-0.4-0.6-0.8-1.2-1.2-1.6c-0.1-0.1-0.2-0.2-0.3-0.3
			c-0.1-0.1-0.3-0.1-0.4-0.1v3h-0.8L110.8,109.3z M111.6,109.9v2.5h0.7c0.2,0,0.4,0,0.6,0c0.2-0.1,0.4-0.2,0.6-0.3
			c0.1-0.1,0.2-0.3,0.3-0.5c0.1-0.2,0.1-0.4,0.1-0.5c0-0.2-0.1-0.4-0.2-0.6c-0.1-0.2-0.3-0.3-0.5-0.4c-0.3-0.1-0.5-0.1-0.8-0.1
			H111.6z"/>
		<path d="M121.4,109.9l-0.4,0.5c-0.4-0.3-0.9-0.5-1.4-0.5c-0.4,0-0.7,0.1-1,0.3c-0.3,0.2-0.5,0.5-0.6,0.8c-0.2,0.5-0.3,1.1-0.3,1.7
			c0,0.7,0.1,1.4,0.5,2c0.2,0.2,0.4,0.4,0.7,0.5c0.3,0.1,0.6,0.2,0.9,0.2c0.4,0,0.7-0.1,1-0.3v-2h-1.3l-0.2-0.7h2.2v3.1
			c-0.6,0.3-1.2,0.5-1.8,0.5c-0.4,0-0.8,0-1.1-0.2c-0.4-0.1-0.7-0.4-0.9-0.6c-0.6-0.7-0.9-1.6-0.8-2.6c0-1.3,0.3-2.2,1-2.8
			c0.5-0.4,1.1-0.6,1.7-0.6C120.2,109.2,120.9,109.4,121.4,109.9z"/>
		<path class="st1" d="M52.4,17.3c-0.2,0.9-0.7,1.6-1.3,2.2c-0.6,0.6-1.5,1-2.3,1.1c-0.9,0.1-1.7,0-2.5-0.4c-0.8-0.4-1.5-1-1.9-1.7
			c-0.4-0.8-0.7-1.6-0.6-2.5c0-0.9,0.3-1.7,0.9-2.4c0.5-0.7,1.2-1.2,2.1-1.5c0.8-0.3,1.7-0.3,2.6-0.1c1.1,0.3,2.1,1,2.7,2
			C52.5,15,52.7,16.2,52.4,17.3z"/>
		<path class="st2" d="M59,8.2c-0.2,0.9-0.7,1.6-1.3,2.2c-0.6,0.6-1.5,1-2.3,1.1c-0.9,0.1-1.7,0-2.5-0.4c-0.8-0.4-1.4-1-1.9-1.7
			c-0.4-0.8-0.7-1.6-0.6-2.5c0-0.9,0.3-1.7,0.9-2.4s1.2-1.2,2.1-1.5c0.8-0.3,1.7-0.3,2.6-0.1c1.1,0.3,2.1,1,2.7,2
			C59.1,5.9,59.3,7.1,59,8.2z"/>
		<path class="st3" d="M91.4,29c-0.2,0.9-0.7,1.6-1.3,2.2c-0.6,0.6-1.5,1-2.3,1.1c-0.9,0.1-1.7,0-2.5-0.4c-0.8-0.4-1.4-1-1.9-1.7
			s-0.7-1.6-0.6-2.5c0-0.9,0.3-1.7,0.9-2.4c0.5-0.7,1.2-1.2,2.1-1.5c0.8-0.3,1.7-0.3,2.6-0.1c1.1,0.3,2.1,1,2.7,2
			C91.5,26.6,91.7,27.8,91.4,29z"/>
		<path class="st4" d="M76.8,23.4c-0.2,0.9-0.7,1.6-1.3,2.2c-0.6,0.6-1.5,1-2.3,1.1c-0.9,0.1-1.7,0-2.5-0.4c-0.8-0.4-1.4-1-1.9-1.7
			S68,22.9,68.1,22c0-0.9,0.3-1.7,0.9-2.4c0.5-0.7,1.2-1.2,2.1-1.5c0.8-0.3,1.7-0.3,2.6-0.1c1.1,0.3,2.1,1,2.7,2
			C76.9,21,77.1,22.2,76.8,23.4z"/>
		<path class="st5" d="M64.3,20.1c-0.2,0.9-0.7,1.6-1.3,2.2c-0.6,0.6-1.5,1-2.3,1.1c-0.9,0.1-1.7,0-2.5-0.4c-0.8-0.4-1.5-1-1.9-1.7
			c-0.4-0.8-0.7-1.6-0.6-2.5c0-0.9,0.3-1.7,0.9-2.4c0.5-0.7,1.2-1.2,2.1-1.5c0.8-0.3,1.7-0.3,2.6-0.1c1.1,0.3,2.1,1,2.7,2
			C64.3,17.8,64.5,19,64.3,20.1z"/>
		<path d="M95.1,13.5c-0.2,0.9-0.7,1.6-1.3,2.2c-0.6,0.6-1.5,1-2.3,1.1c-0.9,0.1-1.7,0-2.5-0.4s-1.4-1-1.9-1.7
			c-0.4-0.8-0.7-1.6-0.6-2.5c0-0.9,0.3-1.7,0.9-2.4c0.5-0.7,1.2-1.2,2.1-1.5c0.8-0.3,1.7-0.3,2.6-0.1c1.1,0.3,2.1,1,2.7,2
			C95.2,11.2,95.4,12.4,95.1,13.5z"/>
		<path class="st5" d="M69.5,5.5c-0.2,0.9-0.7,1.6-1.3,2.2c-0.6,0.6-1.5,1-2.3,1.1c-0.9,0.1-1.7,0-2.5-0.4c-0.8-0.4-1.5-1-1.9-1.7
			c-0.4-0.8-0.7-1.6-0.6-2.5c0-0.9,0.3-1.7,0.9-2.4c0.5-0.7,1.2-1.2,2.1-1.5c0.8-0.3,1.7-0.3,2.6-0.1c1.1,0.3,2.1,1,2.7,2
			C69.6,3.2,69.7,4.4,69.5,5.5z"/>
		<path d="M72.1,15.9c-0.2,0.9-0.7,1.6-1.3,2.2c-0.6,0.6-1.5,1-2.3,1.1c-0.9,0.1-1.7,0-2.5-0.4c-0.8-0.4-1.4-1-1.9-1.7
			c-0.4-0.8-0.7-1.6-0.6-2.5c0-0.9,0.3-1.7,0.9-2.4c0.5-0.7,1.2-1.2,2.1-1.5c0.8-0.3,1.7-0.3,2.6-0.1c1.1,0.3,2.1,1,2.7,2
			C72.2,13.6,72.4,14.8,72.1,15.9z"/>
		<path class="st6" d="M81.2,5.6c-0.2,0.9-0.7,1.6-1.3,2.2c-0.6,0.6-1.5,1-2.3,1.1s-1.7,0-2.5-0.4c-0.8-0.4-1.5-1-1.9-1.7
			c-0.4-0.8-0.7-1.6-0.6-2.5c0-0.9,0.3-1.7,0.9-2.4c0.5-0.7,1.2-1.2,2.1-1.5C76.3,0.1,77.2,0,78,0.2c1.1,0.3,2.1,1,2.7,2
			C81.3,3.3,81.5,4.5,81.2,5.6z"/>
		<path class="st2" d="M78.3,53.5c-0.2,0.9-0.7,1.6-1.3,2.2c-0.6,0.6-1.5,1-2.3,1.1c-0.9,0.1-1.7,0-2.5-0.4c-0.8-0.4-1.4-1-1.9-1.7
			c-0.4-0.8-0.7-1.6-0.6-2.5c0-0.9,0.3-1.7,0.9-2.4c0.5-0.7,1.2-1.2,2.1-1.5c0.8-0.3,1.7-0.3,2.6-0.1c1.1,0.3,2.1,1,2.7,2
			C78.5,51.2,78.6,52.4,78.3,53.5z"/>
		<path class="st2" d="M80.2,54.9c-0.2,0.9-0.7,1.6-1.3,2.2c-0.6,0.6-1.5,1-2.3,1.1c-0.9,0.1-1.7,0-2.5-0.4c-0.8-0.4-1.4-1-1.9-1.7
			c-0.4-0.8-0.7-1.6-0.6-2.5c0-0.9,0.3-1.7,0.9-2.4c0.5-0.7,1.2-1.2,2.1-1.5c0.8-0.3,1.7-0.3,2.6-0.1c1.1,0.3,2.1,1,2.7,2
			C80.3,52.6,80.5,53.8,80.2,54.9z"/>
		<path class="st2" d="M59.4,47.7c-0.2,0.9-0.7,1.6-1.3,2.2c-0.6,0.6-1.5,1-2.3,1.1c-0.9,0.1-1.7,0-2.5-0.4c-0.8-0.4-1.4-1-1.9-1.7
			c-0.4-0.8-0.7-1.6-0.6-2.5c0-0.9,0.3-1.7,0.9-2.4c0.5-0.7,1.2-1.2,2.1-1.5c0.8-0.3,1.7-0.3,2.6-0.1c1.1,0.3,2.1,1,2.7,2
			C59.5,45.4,59.7,46.6,59.4,47.7z"/>
		<path class="st5" d="M53.8,39.6c-0.2,0.9-0.7,1.6-1.3,2.2c-0.6,0.6-1.5,1-2.3,1.1c-0.9,0.1-1.7,0-2.5-0.4c-0.8-0.4-1.4-1-1.9-1.7
			c-0.4-0.8-0.7-1.6-0.6-2.5c0-0.9,0.4-1.7,0.9-2.4c0.5-0.7,1.2-1.2,2.1-1.5c0.8-0.3,1.7-0.3,2.6-0.1c1.1,0.3,2.1,1,2.7,2
			C53.9,37.3,54,38.5,53.8,39.6z"/>
		<path class="st7" d="M80.4,44.4c-0.2,0.9-0.7,1.6-1.3,2.2c-0.6,0.6-1.5,1-2.3,1.1c-0.9,0.1-1.7,0-2.5-0.4c-0.8-0.4-1.4-1-1.9-1.7
			c-0.4-0.8-0.7-1.6-0.6-2.5c0-0.9,0.3-1.7,0.9-2.4s1.2-1.2,2.1-1.5c0.8-0.3,1.7-0.3,2.6-0.1c1.1,0.3,2.1,1,2.7,2
			C80.5,42,80.7,43.2,80.4,44.4z"/>
		<path d="M71.6,44.1c-0.2,0.9-0.7,1.6-1.3,2.2c-0.6,0.6-1.5,1-2.3,1.1c-0.9,0.1-1.7,0-2.5-0.4c-0.8-0.4-1.4-1-1.9-1.7
			c-0.4-0.8-0.7-1.6-0.6-2.5c0-0.9,0.3-1.7,0.9-2.4c0.5-0.7,1.2-1.2,2.1-1.5c0.8-0.3,1.7-0.3,2.6-0.1c1.1,0.3,2.1,1,2.7,2
			C71.7,41.8,71.9,43,71.6,44.1z"/>
		<path class="st4" d="M63.6,39.9c-0.2,0.9-0.7,1.6-1.3,2.2c-0.6,0.6-1.5,1-2.3,1.1c-0.9,0.1-1.7,0-2.5-0.4c-0.8-0.4-1.5-1-1.9-1.7
			c-0.4-0.8-0.7-1.6-0.6-2.5c0-0.9,0.3-1.7,0.9-2.4s1.2-1.2,2.1-1.5c0.8-0.3,1.7-0.3,2.6-0.1c1.1,0.3,2.1,1,2.7,2
			C63.7,37.5,63.9,38.7,63.6,39.9z"/>
		<path class="st2" d="M49.9,27.5c-0.2,0.9-0.7,1.6-1.3,2.2c-0.6,0.6-1.5,1-2.3,1.1c-0.9,0.1-1.7,0-2.5-0.4c-0.8-0.4-1.4-1-1.9-1.7
			c-0.4-0.8-0.7-1.6-0.6-2.5c0-0.9,0.3-1.7,0.9-2.4c0.5-0.7,1.2-1.2,2.1-1.5c0.8-0.3,1.7-0.3,2.6-0.1c1.1,0.3,2.1,1,2.7,2
			C50,25.1,50.2,26.3,49.9,27.5z"/>
		<path class="st4" d="M84.5,36.2c-0.2,0.9-0.7,1.6-1.3,2.2c-0.6,0.6-1.5,1-2.3,1.1c-0.9,0.1-1.7,0-2.5-0.4c-0.8-0.4-1.4-1-1.9-1.7
			c-0.4-0.8-0.7-1.6-0.6-2.5c0-0.9,0.3-1.7,0.9-2.4c0.5-0.7,1.2-1.2,2.1-1.5c0.8-0.3,1.7-0.3,2.6-0.1c1.1,0.3,2.1,1,2.7,2
			C84.6,33.8,84.7,35,84.5,36.2z"/>
		<path class="st4" d="M63.6,30.9c-0.2,0.9-0.7,1.6-1.3,2.2c-0.6,0.6-1.5,1-2.3,1.1c-0.9,0.1-1.7,0-2.5-0.4c-0.8-0.4-1.4-1-1.9-1.7
			c-0.4-0.8-0.7-1.6-0.6-2.5c0-0.9,0.3-1.7,0.9-2.4c0.5-0.7,1.2-1.2,2.1-1.5c0.8-0.3,1.7-0.3,2.6-0.1c1.1,0.3,2.1,1,2.7,2
			S63.9,29.8,63.6,30.9z"/>
		<path class="st6" d="M67.1,52.1c-0.2,0.9-0.7,1.6-1.3,2.2c-0.6,0.6-1.5,1-2.3,1.1c-0.9,0.1-1.7,0-2.5-0.4c-0.8-0.4-1.5-1-1.9-1.7
			c-0.4-0.8-0.7-1.6-0.6-2.5c0-0.9,0.3-1.7,0.9-2.4c0.5-0.7,1.2-1.2,2.1-1.5c0.8-0.3,1.7-0.3,2.6-0.1c1.1,0.3,2.1,1,2.7,2
			C67.2,49.7,67.4,50.9,67.1,52.1z"/>
		<path class="st5" d="M95,28c-0.2,0.9-0.7,1.6-1.3,2.2c-0.6,0.6-1.5,1-2.3,1.1c-0.9,0.1-1.7,0-2.5-0.4c-0.8-0.4-1.4-1-1.9-1.7
			s-0.7-1.6-0.6-2.5c0-0.9,0.3-1.7,0.9-2.4c0.5-0.7,1.2-1.2,2.1-1.5c0.8-0.3,1.7-0.3,2.6-0.1c1.1,0.3,2.1,1,2.7,2
			C95.1,25.6,95.3,26.8,95,28z"/>
		<path class="st6" d="M85.6,18c-0.2,0.9-0.7,1.6-1.3,2.2c-0.6,0.6-1.5,1-2.3,1.1c-0.9,0.1-1.7,0-2.5-0.4s-1.5-1-1.9-1.7
			c-0.4-0.8-0.7-1.6-0.6-2.5c0-0.9,0.3-1.7,0.9-2.4c0.5-0.7,1.2-1.2,2.1-1.5c0.8-0.3,1.7-0.3,2.6-0.1c1.1,0.3,2.1,1,2.7,2
			C85.7,15.6,85.9,16.8,85.6,18z"/>
		<path d="M90.1,47.6c-0.2,0.9-0.7,1.6-1.3,2.2c-0.6,0.6-1.5,1-2.3,1.1c-0.9,0.1-1.7,0-2.5-0.4c-0.8-0.4-1.4-1-1.9-1.7
			c-0.4-0.8-0.7-1.6-0.6-2.5c0-0.9,0.3-1.7,0.9-2.4c0.5-0.7,1.2-1.2,2.1-1.5c0.8-0.3,1.7-0.3,2.6-0.1c1.1,0.3,2.1,1,2.7,2
			C90.2,45.3,90.4,46.5,90.1,47.6z"/>
		<path class="st2" d="M97.8,39.5c-0.2,0.9-0.7,1.6-1.3,2.2c-0.6,0.6-1.5,1-2.3,1.1c-0.9,0.1-1.7,0-2.5-0.4c-0.8-0.4-1.4-1-1.9-1.7
			c-0.4-0.8-0.7-1.6-0.6-2.5c0-0.9,0.3-1.7,0.9-2.4c0.5-0.7,1.2-1.2,2.1-1.5c0.8-0.3,1.7-0.3,2.6-0.1c1.1,0.3,2.1,1,2.7,2
			S98.1,38.4,97.8,39.5z"/>
		<path class="st1" d="M57.1,21.4c-0.1,0.6-0.4,1.1-0.9,1.5c-0.4,0.4-1,0.6-1.5,0.7c-0.6,0.1-1.2,0-1.7-0.2c-0.5-0.2-1-0.6-1.3-1.1
			c-0.3-0.5-0.4-1.1-0.4-1.7c0-0.6,0.2-1.1,0.6-1.6c0.3-0.5,0.8-0.8,1.4-1c0.5-0.2,1.1-0.2,1.7-0.1c0.7,0.2,1.4,0.7,1.8,1.3
			C57.2,19.9,57.3,20.7,57.1,21.4z"/>
		<path class="st2" d="M61.4,15.4c-0.1,0.6-0.4,1.1-0.9,1.5c-0.4,0.4-1,0.6-1.5,0.7c-0.6,0.1-1.2,0-1.7-0.2c-0.5-0.2-1-0.6-1.3-1.1
			c-0.3-0.5-0.4-1.1-0.4-1.7c0-0.6,0.2-1.1,0.6-1.6c0.3-0.5,0.8-0.8,1.4-1c0.5-0.2,1.1-0.2,1.7-0.1c0.7,0.2,1.4,0.7,1.8,1.3
			C61.5,13.9,61.6,14.7,61.4,15.4z"/>
		<path class="st3" d="M82.8,29.1c-0.1,0.6-0.4,1.1-0.9,1.5c-0.4,0.4-1,0.6-1.5,0.7c-0.6,0.1-1.2,0-1.7-0.2c-0.5-0.2-1-0.6-1.3-1.1
			c-0.3-0.5-0.4-1.1-0.4-1.7c0-0.6,0.2-1.1,0.6-1.6c0.3-0.5,0.8-0.8,1.4-1c0.5-0.2,1.1-0.2,1.7-0.1c0.7,0.2,1.4,0.7,1.8,1.3
			C82.9,27.6,83,28.4,82.8,29.1z"/>
		<path class="st4" d="M73.2,25.4c-0.1,0.6-0.4,1.1-0.9,1.5c-0.4,0.4-1,0.6-1.5,0.7c-0.6,0.1-1.2,0-1.7-0.2c-0.5-0.2-1-0.6-1.3-1.1
			c-0.3-0.5-0.4-1.1-0.4-1.7c0-0.6,0.2-1.1,0.6-1.6c0.3-0.5,0.8-0.8,1.4-1c0.5-0.2,1.1-0.2,1.7-0.1c0.7,0.2,1.4,0.7,1.8,1.3
			C73.3,23.9,73.4,24.6,73.2,25.4z"/>
		<path class="st5" d="M64.9,23.3c-0.1,0.6-0.4,1.1-0.9,1.5c-0.4,0.4-1,0.6-1.5,0.7c-0.6,0.1-1.2,0-1.7-0.2c-0.5-0.2-1-0.6-1.3-1.1
			c-0.3-0.5-0.4-1.1-0.4-1.7c0-0.6,0.2-1.1,0.6-1.6c0.3-0.5,0.8-0.8,1.4-1c0.5-0.2,1.1-0.2,1.7-0.1c0.7,0.2,1.4,0.7,1.8,1.3
			C65,21.7,65.1,22.5,64.9,23.3z"/>
		<path d="M85.3,18.9c-0.1,0.6-0.4,1.1-0.9,1.5c-0.4,0.4-1,0.6-1.5,0.7c-0.6,0.1-1.2,0-1.7-0.2c-0.5-0.2-1-0.6-1.3-1.1
			c-0.3-0.5-0.4-1.1-0.4-1.7s0.2-1.1,0.6-1.6c0.3-0.5,0.8-0.8,1.4-1c0.5-0.2,1.1-0.2,1.7-0.1c0.7,0.2,1.4,0.7,1.8,1.3
			C85.4,17.4,85.5,18.2,85.3,18.9z"/>
		<path class="st5" d="M68.4,13.6c-0.1,0.6-0.4,1.1-0.9,1.5c-0.4,0.4-1,0.6-1.5,0.7c-0.6,0.1-1.2,0-1.7-0.2c-0.5-0.2-1-0.6-1.3-1.1
			c-0.3-0.5-0.4-1.1-0.4-1.7s0.2-1.1,0.6-1.6c0.3-0.5,0.8-0.8,1.4-1c0.5-0.2,1.1-0.2,1.7-0.1c0.7,0.2,1.4,0.7,1.8,1.3
			C68.4,12.1,68.5,12.9,68.4,13.6z"/>
		<path d="M70.1,20.5c-0.1,0.6-0.4,1.1-0.9,1.5c-0.4,0.4-1,0.6-1.5,0.7s-1.2,0-1.7-0.2c-0.5-0.2-1-0.6-1.3-1.1
			c-0.3-0.5-0.4-1.1-0.4-1.7c0-0.6,0.2-1.1,0.6-1.6c0.3-0.5,0.8-0.8,1.4-1c0.5-0.2,1.1-0.2,1.7-0.1c0.7,0.2,1.4,0.7,1.8,1.3
			C70.2,18.9,70.3,19.7,70.1,20.5z"/>
		<path class="st6" d="M76.1,13.7c-0.1,0.6-0.4,1.1-0.9,1.5c-0.4,0.4-1,0.6-1.5,0.7c-0.6,0.1-1.2,0-1.7-0.2c-0.5-0.2-1-0.6-1.3-1.1
			c-0.3-0.5-0.4-1.1-0.4-1.7c0-0.6,0.2-1.1,0.6-1.6c0.3-0.5,0.8-0.8,1.4-1s1.1-0.2,1.7-0.1c0.7,0.2,1.4,0.7,1.8,1.3
			C76.2,12.1,76.3,12.9,76.1,13.7z"/>
		<path class="st2" d="M61.7,41.5c-0.1,0.6-0.4,1.1-0.9,1.5c-0.4,0.4-1,0.6-1.5,0.7s-1.2,0-1.7-0.2c-0.5-0.2-1-0.6-1.3-1.1
			c-0.3-0.5-0.4-1.1-0.4-1.7c0-0.6,0.2-1.1,0.6-1.6s0.8-0.8,1.4-1c0.5-0.2,1.1-0.2,1.7-0.1c0.7,0.2,1.4,0.7,1.8,1.3
			C61.8,39.9,61.9,40.7,61.7,41.5z"/>
		<path class="st5" d="M58,36.1c-0.1,0.6-0.4,1.1-0.9,1.5c-0.4,0.4-1,0.6-1.5,0.7s-1.2,0-1.7-0.2c-0.5-0.2-1-0.6-1.3-1.1
			c-0.3-0.5-0.4-1.1-0.4-1.7c0-0.6,0.2-1.1,0.6-1.6c0.3-0.5,0.8-0.8,1.4-1c0.5-0.2,1.1-0.2,1.7-0.1c0.7,0.2,1.4,0.7,1.8,1.3
			C58.1,34.6,58.2,35.4,58,36.1z"/>
		<path class="st7" d="M75.6,39.3c-0.1,0.6-0.4,1.1-0.9,1.5c-0.4,0.4-1,0.6-1.5,0.7c-0.6,0.1-1.2,0-1.7-0.2c-0.5-0.2-1-0.6-1.3-1.1
			c-0.3-0.5-0.4-1.1-0.4-1.7c0-0.6,0.2-1.1,0.6-1.6c0.3-0.5,0.8-0.8,1.4-1c0.5-0.2,1.1-0.2,1.7-0.1c0.7,0.2,1.4,0.7,1.8,1.3
			C75.7,37.7,75.8,38.5,75.6,39.3z"/>
		<path d="M69.8,39.1c-0.1,0.6-0.4,1.1-0.9,1.5c-0.4,0.4-1,0.6-1.5,0.7c-0.6,0.1-1.2,0-1.7-0.2c-0.5-0.2-1-0.6-1.3-1.1
			c-0.3-0.5-0.4-1.1-0.4-1.7c0-0.6,0.2-1.1,0.6-1.6c0.3-0.5,0.8-0.8,1.4-1c0.5-0.2,1.1-0.2,1.7-0.1c0.7,0.2,1.4,0.7,1.8,1.3
			C69.8,37.6,70,38.4,69.8,39.1z"/>
		<path class="st4" d="M64.5,36.3c-0.1,0.6-0.4,1.1-0.9,1.5c-0.4,0.4-1,0.6-1.5,0.7c-0.6,0.1-1.2,0-1.7-0.2c-0.5-0.2-1-0.6-1.3-1.1
			c-0.3-0.5-0.4-1.1-0.4-1.7c0-0.6,0.2-1.1,0.6-1.6c0.3-0.5,0.8-0.8,1.4-1c0.5-0.2,1.1-0.2,1.7-0.1c0.7,0.2,1.4,0.7,1.8,1.3
			C64.6,34.8,64.7,35.6,64.5,36.3z"/>
		<path class="st2" d="M55.5,28.1c-0.1,0.6-0.4,1.1-0.9,1.5c-0.4,0.4-1,0.6-1.5,0.7c-0.6,0.1-1.2,0-1.7-0.2c-0.5-0.2-1-0.6-1.3-1.1
			c-0.3-0.5-0.4-1.1-0.4-1.7c0-0.6,0.2-1.1,0.6-1.6c0.3-0.5,0.8-0.8,1.4-1c0.5-0.2,1.1-0.2,1.7-0.1c0.7,0.2,1.4,0.7,1.8,1.3
			C55.5,26.6,55.7,27.4,55.5,28.1z"/>
		<path class="st4" d="M78.3,33.9c-0.1,0.6-0.4,1.1-0.9,1.5c-0.4,0.4-1,0.6-1.5,0.7s-1.2,0-1.7-0.2c-0.5-0.2-1-0.6-1.3-1.1
			c-0.3-0.5-0.4-1.1-0.4-1.7c0-0.6,0.2-1.1,0.6-1.6c0.3-0.5,0.8-0.8,1.4-1c0.5-0.2,1.1-0.2,1.7-0.1c0.7,0.2,1.4,0.7,1.8,1.3
			C78.3,32.3,78.4,33.1,78.3,33.9z"/>
		<path class="st4" d="M64.5,30.4c-0.1,0.6-0.4,1.1-0.9,1.5c-0.4,0.4-1,0.6-1.5,0.7c-0.6,0.1-1.2,0-1.7-0.2c-0.5-0.2-1-0.6-1.3-1.1
			c-0.3-0.5-0.4-1.1-0.4-1.7c0-0.6,0.2-1.1,0.6-1.6c0.3-0.5,0.8-0.8,1.4-1c0.5-0.2,1.1-0.2,1.7-0.1c0.7,0.2,1.4,0.7,1.8,1.3
			C64.6,28.9,64.7,29.7,64.5,30.4z"/>
		<path class="st6" d="M66.8,44.4c-0.1,0.6-0.4,1.1-0.9,1.5s-1,0.6-1.5,0.7c-0.6,0.1-1.2,0-1.7-0.3c-0.5-0.2-1-0.6-1.3-1.1
			c-0.3-0.5-0.4-1.1-0.4-1.6c0-0.6,0.2-1.1,0.6-1.6c0.3-0.5,0.8-0.8,1.4-1c0.5-0.2,1.1-0.2,1.7-0.1c0.7,0.2,1.4,0.7,1.8,1.3
			C66.9,42.8,67,43.6,66.8,44.4z"/>
		<path class="st5" d="M85.2,28.4c-0.1,0.6-0.4,1.1-0.9,1.5c-0.4,0.4-1,0.6-1.5,0.7c-0.6,0.1-1.2,0-1.7-0.2c-0.5-0.2-1-0.6-1.3-1.1
			c-0.3-0.5-0.4-1.1-0.4-1.7c0-0.6,0.2-1.1,0.6-1.6c0.3-0.5,0.8-0.8,1.4-1c0.5-0.2,1.1-0.2,1.7-0.1c0.7,0.2,1.4,0.7,1.8,1.3
			S85.4,27.7,85.2,28.4z"/>
		<path class="st6" d="M79,21.8c-0.1,0.6-0.4,1.1-0.9,1.5c-0.4,0.4-1,0.6-1.5,0.7c-0.6,0.1-1.2,0-1.7-0.2c-0.5-0.2-1-0.6-1.3-1.1
			c-0.3-0.5-0.4-1.1-0.4-1.7c0-0.6,0.2-1.1,0.6-1.6c0.3-0.5,0.8-0.8,1.4-1c0.5-0.2,1.1-0.2,1.7-0.1c0.7,0.2,1.4,0.7,1.8,1.3
			C79.1,20.3,79.2,21.1,79,21.8z"/>
		<path d="M82,41.4c-0.1,0.6-0.4,1.1-0.9,1.5c-0.4,0.4-1,0.6-1.5,0.7c-0.6,0.1-1.2,0-1.7-0.2c-0.5-0.2-1-0.6-1.3-1.1
			c-0.3-0.5-0.4-1.1-0.4-1.7s0.2-1.1,0.6-1.6c0.3-0.5,0.8-0.8,1.4-1c0.5-0.2,1.1-0.2,1.7-0.1c0.7,0.2,1.4,0.7,1.8,1.3
			C82.1,39.9,82.2,40.7,82,41.4z"/>
		<path class="st2" d="M87.1,36.1c-0.1,0.6-0.4,1.1-0.9,1.5c-0.4,0.4-1,0.6-1.5,0.7c-0.6,0.1-1.2,0-1.7-0.2c-0.5-0.2-1-0.6-1.3-1.1
			c-0.3-0.5-0.4-1.1-0.4-1.7c0-0.6,0.2-1.1,0.6-1.6c0.3-0.5,0.8-0.8,1.4-1c0.5-0.2,1.1-0.2,1.7-0.1c0.7,0.2,1.4,0.7,1.8,1.3
			C87.2,34.5,87.3,35.3,87.1,36.1z"/>
		<path d="M57.1,81.5H45.4c-0.3,0-0.7,0-1,0.2c-0.3,0.1-0.6,0.3-0.8,0.5c-0.2,0.2-0.4,0.5-0.6,0.8c-0.1,0.3-0.2,0.6-0.2,1
			c0,0.3,0.1,0.7,0.2,1c0.1,0.3,0.3,0.6,0.6,0.8c0.2,0.2,0.5,0.4,0.8,0.5c0.3,0.1,0.6,0.2,1,0.2h9.2c-0.3,2-1.3,3.8-2.8,5.2
			c-1.5,1.4-3.4,2.3-5.4,2.5c-2,0.2-4-0.3-5.8-1.3s-3.1-2.7-3.8-4.6c-0.7-1.9-0.8-4-0.3-5.9c0.5-2,1.7-3.7,3.3-4.9
			c1.6-1.2,3.6-1.9,5.6-1.9c2,0,4,0.7,5.6,1.9c0.5,0.4,1.2,0.6,1.8,0.5c0.6-0.1,1.2-0.4,1.6-0.9c0.4-0.5,0.6-1.2,0.5-1.8
			c-0.1-0.6-0.4-1.2-0.9-1.6c-2.4-1.9-5.4-2.9-8.5-2.9c-2.8,0-5.5,0.8-7.9,2.4c-2.3,1.6-4.1,3.8-5.2,6.4c-1.1,2.6-1.4,5.5-0.8,8.2
			c0.5,2.8,1.9,5.3,3.9,7.3c2,2,4.5,3.3,7.2,3.9c2.7,0.5,5.6,0.3,8.2-0.8c2.6-1.1,4.8-2.9,6.3-5.2c1.6-2.3,2.4-5.1,2.4-7.9l0-1.1
			c0-0.3-0.1-0.6-0.2-0.9c-0.1-0.3-0.3-0.5-0.5-0.7c-0.2-0.2-0.5-0.4-0.8-0.5C57.7,81.5,57.4,81.5,57.1,81.5z M87.9,81.5H76.2
			c-0.6,0-1.2,0.3-1.6,0.7c-0.4,0.5-0.7,1.1-0.7,1.7c0,0.6,0.2,1.2,0.7,1.7c0.4,0.5,1,0.7,1.6,0.7h9.2c-0.3,1.8-1.1,3.4-2.3,4.7
			c-1.2,1.3-2.7,2.3-4.4,2.8c-1.7,0.5-3.5,0.4-5.2-0.1c-1.7-0.5-3.2-1.5-4.4-2.9c-1.1-1.4-1.9-3-2.1-4.8c-0.2-1.8,0-3.6,0.8-5.2
			c0.7-1.6,1.9-3,3.4-3.9c1.5-1,3.2-1.5,5-1.5c2,0,4,0.7,5.6,1.9c0.3,0.2,0.5,0.4,0.9,0.4c0.3,0.1,0.6,0.1,1,0.1
			c0.3,0,0.6-0.1,0.9-0.3c0.3-0.2,0.5-0.4,0.7-0.6c0.2-0.3,0.3-0.6,0.4-0.9c0.1-0.3,0.1-0.6,0-1c0-0.3-0.2-0.6-0.3-0.9
			c-0.2-0.3-0.4-0.5-0.7-0.7c-2.4-1.9-5.4-2.9-8.5-2.9c-2.8,0-5.5,0.8-7.9,2.4s-4.1,3.8-5.2,6.4c-1.1,2.6-1.4,5.5-0.8,8.2
			c0.5,2.8,1.9,5.3,3.9,7.3c2,2,4.5,3.3,7.2,3.9c2.7,0.5,5.6,0.3,8.2-0.8c2.6-1.1,4.8-2.9,6.3-5.2c1.6-2.3,2.4-5.1,2.4-7.9l0-1.1
			c0-0.6-0.3-1.2-0.7-1.6C89.1,81.7,88.5,81.5,87.9,81.5L87.9,81.5z M14.1,70.6c-2.3,0-4.5,0.6-6.6,1.6c-2,1.1-3.8,2.6-5.1,4.5
			c-1.3,1.9-2.1,4.1-2.4,6.4c-0.3,2.3,0,4.6,0.8,6.8C1.7,92,3,93.9,4.7,95.4c1.7,1.5,3.8,2.6,6,3.2c2.2,0.6,4.5,0.6,6.8,0
			c2.2-0.5,4.3-1.6,6-3.1v1.1c0,0.3,0,0.7,0.2,1c0.1,0.3,0.3,0.6,0.5,0.8c0.2,0.2,0.5,0.4,0.8,0.6c0.3,0.1,0.6,0.2,0.9,0.2
			c0.3,0,0.6-0.1,0.9-0.2c0.3-0.1,0.6-0.3,0.8-0.6c0.2-0.2,0.4-0.5,0.5-0.8c0.1-0.3,0.2-0.6,0.2-1V84.8c0-3.8-1.5-7.4-4.1-10
			C21.5,72.1,17.9,70.6,14.1,70.6z M14.1,94.2c-1.8,0-3.6-0.5-5.2-1.6c-1.5-1-2.7-2.5-3.4-4.2C4.8,86.7,4.6,84.8,5,83
			c0.4-1.8,1.2-3.5,2.6-4.8c1.3-1.3,3-2.2,4.8-2.6c1.8-0.4,3.7-0.2,5.4,0.5s3.2,1.9,4.2,3.5c1,1.5,1.6,3.4,1.6,5.2
			c0,2.5-1,4.9-2.7,6.6C19,93.2,16.6,94.2,14.1,94.2z M124.9,70.6c-2.8,0-5.5,0.8-7.9,2.4c-2.3,1.6-4.1,3.8-5.2,6.4
			s-1.4,5.5-0.8,8.2c0.5,2.8,1.9,5.3,3.9,7.3c2,2,4.5,3.3,7.2,3.9c2.7,0.5,5.6,0.3,8.2-0.8c2.6-1.1,4.8-2.9,6.3-5.2
			c1.6-2.3,2.4-5.1,2.4-7.9c0-3.8-1.5-7.4-4.1-10C132.2,72.1,128.6,70.6,124.9,70.6z M124.9,94.2c-1.8,0-3.6-0.5-5.2-1.6
			c-1.5-1-2.7-2.5-3.4-4.2c-0.7-1.7-0.9-3.6-0.5-5.4c0.4-1.8,1.2-3.5,2.6-4.8c1.3-1.3,3-2.2,4.8-2.6c1.8-0.4,3.7-0.2,5.4,0.5
			c1.7,0.7,3.2,1.9,4.2,3.5c1,1.5,1.6,3.4,1.6,5.2c0,2.5-1,4.9-2.7,6.6C129.7,93.2,127.3,94.2,124.9,94.2z M110.4,93.8h-12V73
			c0-0.3,0-0.7-0.2-1c-0.1-0.3-0.3-0.6-0.5-0.8s-0.5-0.4-0.8-0.6c-0.3-0.1-0.6-0.2-0.9-0.2s-0.6,0.1-0.9,0.2
			c-0.3,0.1-0.6,0.3-0.8,0.6c-0.2,0.2-0.4,0.5-0.5,0.8c-0.1,0.3-0.2,0.6-0.2,1v23.2c0,0.6,0.3,1.3,0.7,1.7c0.5,0.5,1.1,0.7,1.7,0.7
			h14.4c0.6,0,1.2-0.3,1.6-0.7c0.4-0.5,0.7-1,0.7-1.7c0-0.6-0.2-1.2-0.7-1.7C111.6,94.1,111,93.8,110.4,93.8z"/>
		<path class="st2" d="M75.2,44.4c-0.1,0.6-0.4,1.1-0.9,1.5c-0.4,0.4-1,0.6-1.5,0.7c-0.6,0.1-1.2,0-1.7-0.2c-0.5-0.2-1-0.6-1.3-1.1
			c-0.3-0.5-0.4-1.1-0.4-1.7c0-0.6,0.2-1.1,0.6-1.6c0.3-0.5,0.8-0.8,1.4-1c0.5-0.2,1.1-0.2,1.7-0.1c0.7,0.2,1.4,0.7,1.8,1.3
			C75.2,42.8,75.4,43.6,75.2,44.4z"/>
	</g>
</g>
</svg>
