<?xml version="1.0" encoding="utf-8"?>
<!-- Generator: Adobe Illustrator 26.3.1, SVG Export Plug-In . SVG Version: 6.00 Build 0)  -->
<svg version="1.1" id="Calque_1" xmlns="http://www.w3.org/2000/svg" xmlns:xlink="http://www.w3.org/1999/xlink" x="0px" y="0px"
	 width="173px" height="45.8px" viewBox="0 0 173 45.8" style="enable-background:new 0 0 173 45.8;" xml:space="preserve">
<style type="text/css">
	.st0{fill:#010202;}
</style>
<path class="st0" d="M7.5,40.8c-2.5,0-3.6-1.5-3.6-3.1c0-1.3,0.4-2.8,1.5-5.8c2.5-6.7,5.8-15.9,5.8-17.3L11,14.4H0.6L0,17.4h6.1
	L1.5,37C1.2,38.1,1,39.2,1,40.3c0,0.6,0.1,1.2,0.3,1.8c0.2,0.6,0.5,1.1,1,1.6c0.4,0.4,0.9,0.8,1.5,1.1c0.6,0.2,1.2,0.4,1.8,0.4h1.2
	c1.2-0.6,2.3-1.7,4.3-4.3l4.1-5.5l-1.2-0.6C10.6,39.2,9,40.8,7.5,40.8z"/>
<path class="st0" d="M43.7,40.8c-2.4,0-2.9-1.5-2.9-3.1c0-1.4,0.4-2.5,2.5-7.6c1.8-4.6,3-7,3-10.2c0-2.8-2.1-6.2-6.8-6.2
	c-5.2,0-9.4,3.8-13.2,12.3l-3.5,8H22c0.4-1,6.1-18.3,6.1-19.5l-0.2-0.3H15l-0.6,3.1h9.4l-6.7,27.8h3.7l6-15.4
	c3.8-9.9,6-12.3,9.8-12.3c0.7,0,1.4,0.1,2.1,0.3c0.7,0.3,1.3,0.6,1.8,1.1c0.5,0.5,0.9,1.1,1.2,1.8s0.4,1.4,0.4,2.1
	c0,2.5-0.8,4.2-1.4,6.5L38.4,37c-0.3,1.1-0.5,2.2-0.5,3.3c0,2.9,1.5,4.8,3.9,4.8H43c1.2-0.6,2.3-1.7,4.3-4.3l4-5.5l-1.2-0.6
	C46.8,39.2,45.1,40.8,43.7,40.8z"/>
<path class="st0" d="M92.1,13.7l-1.8,1.8c-0.1,0.1-0.3,0.2-0.4,0.3c-0.2,0.1-0.3,0.1-0.5,0.1c-1.6,0-2.7-2.2-7.6-2.2
	c-4.6,0-9.5,3.1-9.5,8.7c0,10.5,15.9,8.7,15.9,16.7c0,3.1-1.8,4.9-6.1,4.9c-10.1,0-12.9-10.5-13.1-11.1l-1.2,0.6l2,12.3H70l1.8-1.8
	c0.1-0.1,0.3-0.2,0.4-0.3c0.2-0.1,0.3-0.1,0.5-0.1c1.6,0,3.3,2.2,9,2.2c5.1,0,10-2.7,10-8.7c0-9.3-15.3-8-15.3-16.1
	c0-3.7,2.5-5.6,5.9-5.6c7.6,0,10.6,10.5,10.8,11.1l1.2-0.6l-2-12.3H92.1z"/>
<path class="st0" d="M105.3,40.8c-2.4,0-3.6-1.5-3.6-3.1c0-1.3,0.4-2.8,1.5-5.8c2.5-6.7,5.8-15.9,5.8-17.3l-0.2-0.2H98.4l-0.6,3.1h6
	L99.2,37c-0.3,1.1-0.5,2.2-0.5,3.3c0,0.6,0.1,1.2,0.3,1.8c0.2,0.6,0.5,1.1,1,1.6c0.4,0.4,0.9,0.8,1.5,1.1c0.6,0.2,1.2,0.4,1.8,0.4
	h1.2c1.2-0.6,2.3-1.7,4.3-4.3l4-5.5l-1.2-0.6C108.4,39.2,106.7,40.8,105.3,40.8z"/>
<path class="st0" d="M171.8,34.7c-3.3,4.6-5,6.2-6.5,6.2c-1.1,0-1.7-0.6-1.7-1.9c0-1.3,0.2-2.6,0.6-3.9l5.1-20.9h-3.7l-6.1,15.5
	c-3.9,9.9-6.2,12.4-10,12.4c-0.7,0-1.4-0.1-2.1-0.4c-0.7-0.3-1.3-0.6-1.8-1.1c-0.5-0.5-0.9-1.1-1.2-1.7c-0.3-0.7-0.4-1.4-0.4-2.1
	c0.1-2.2,0.6-4.4,1.3-6.6l4.8-15.7l-0.3-0.3h-23.4L130,0h-4.1l-1.7,14.2h-12l-0.7,3.1h12L117,35.4c-0.6,1.5-0.9,3.2-0.9,4.8
	c0,4.8,4.2,5.6,5.7,5.6c4.5,0,8.6-4.4,12-10.2l2.4-4.1l-1.2-0.6l-2.4,4.1c-3.4,5.9-5.7,7.1-8.2,7.1c-1.9,0-3.7-1.5-3.7-4.2
	c0-1.1,0.2-2.2,0.5-3.2l4.4-17.3h21.2c-1.8,4.8-3.4,8.8-4.5,12c-1.7,4.8-2.7,7.1-2.7,10.3c0,2.8,2.1,6.2,7,6.2
	c5.4,0,9.6-3.8,13.5-12.4l3.6-8.1h0.8l-4.4,11.9c-0.4,1-0.6,2-0.6,3.1c0,2.9,1.5,4.8,4,4.8h1.2c1.2-0.6,2.4-1.7,4.4-4.3l4.1-5.6
	L171.8,34.7z"/>
</svg>
