<svg width="91" height="78" fill="none" xmlns="http://www.w3.org/2000/svg"><g clip-path="url(#a)" fill="#2B000C"><path d="m82.153 42.31 5.146 6.385H91l-6.007-7.236c3.704-1.454 5.808-4.666 5.808-8.223 0-5.163-3.82-9.33-10.836-9.33h-5.778v2.637h6.05c4.288 0 7.29 2.984 7.29 6.694 0 3.709-3.04 6.615-7.328 6.615h-6.012v2.64h5.505c.823.002 1.646-.058 2.46-.183Zm-21.587-5.135h5.498v5.202c-1.842 2.456-4.766 3.906-7.874 3.901h-.16l1.311 2.75c3.949-.268 7.553-2.307 9.762-5.532v-8.92h-8.536v2.6ZM35.026 58.46h-1.098l-2.914 6.343h1.177l.51-1.097h3.55l.51 1.097h1.177l-2.912-6.343Zm-1.925 4.344.736-1.645c.29-.637.64-1.477.64-1.477s.358.85.639 1.477l.736 1.645H33.1Zm7.543-.997c-.439-.09-.849-.168-.849-.5 0-.255.37-.423.739-.423.474 0 .94.123 1.345.363l.41-.88a3.23 3.23 0 0 0-1.765-.5c-.869 0-1.857.51-1.857 1.46s.8 1.227 1.737 1.477c.49.137.986.245.986.577 0 .333-.528.5-.976.5a2.465 2.465 0 0 1-1.566-.577l-.42.892v.008c.55.467 1.258.72 1.986.704.917 0 2.104-.412 2.104-1.547 0-.997-.958-1.36-1.874-1.554Zm6.582 1.557c0-.997-.955-1.36-1.875-1.555-.438-.09-.846-.167-.846-.5 0-.255.367-.422.736-.422.474 0 .94.122 1.348.362l.41-.88a3.244 3.244 0 0 0-1.768-.5c-.866 0-1.854.51-1.854 1.46s.797 1.227 1.734 1.477c.48.138.989.245.989.578 0 .332-.527.5-.978.5a2.458 2.458 0 0 1-1.564-.578l-.42.89v.01a2.97 2.97 0 0 0 1.984.705c.92 0 2.104-.412 2.104-1.547Zm3.362 1.536c1.45-.032 2.596-1.211 2.563-2.634-.033-1.422-1.236-2.546-2.685-2.514-1.45.033-2.596 1.212-2.563 2.634v.015c.02 1.403 1.195 2.52 2.624 2.5h.061Zm-1.561-2.519c0-.812.672-1.47 1.5-1.467.828 0 1.498.66 1.495 1.472v.06c-.017.793-.687 1.423-1.495 1.408h-.005c-.828 0-1.498-.66-1.495-1.472Zm8.755 1.053a1.857 1.857 0 0 1-1.207.42h-.12c-.83-.025-1.483-.705-1.457-1.517.025-.815.718-1.455 1.546-1.43a1.54 1.54 0 0 1 1.057.352l.688-.772a2.73 2.73 0 0 0-1.765-.627h-.026c-1.429-.005-2.59 1.127-2.595 2.526v.033c.025 1.395 1.2 2.507 2.62 2.482a2.932 2.932 0 0 0 1.868-.645l-.609-.822Zm1.906-5.501a.667.667 0 0 0-.668.664.66.66 0 0 0 .668.655.67.67 0 0 0 .677-.655.678.678 0 0 0-.677-.664Zm.557 2.024h-1.108v4.846h1.108v-4.846Zm6.043 4.846v-4.846h-1.106v.617a2.155 2.155 0 0 0-1.648-.714c-1.365 0-2.292 1.127-2.292 2.526 0 1.4.937 2.515 2.292 2.515a2.137 2.137 0 0 0 1.648-.705v.607h1.106Zm-2.484-.95c-.782-.032-1.409-.644-1.439-1.412-.033-.814.611-1.5 1.44-1.534.786 0 1.367.627 1.367 1.48 0 .852-.603 1.467-1.368 1.467Zm6.575-3.003v-.893H68.89v-1.175l-1.105.228v.947h-.729v.892h.729v2.397c0 1.117.476 1.655 1.495 1.655.423 0 .838-.128 1.187-.362l-.329-.813a1.386 1.386 0 0 1-.718.235c-.275 0-.53-.167-.53-.685V60.85h1.488Zm1.399-1.598c.371 0 .675-.29.68-.655a.678.678 0 0 0-.68-.664.672.672 0 0 0-.668.664.66.66 0 0 0 .668.655Zm.56.705H71.23v4.846h1.108v-4.846Zm3.638 4.943c1.449-.032 2.595-1.211 2.562-2.634-.033-1.422-1.235-2.546-2.685-2.514-1.45.033-2.596 1.212-2.562 2.634v.013c.02 1.402 1.192 2.522 2.62 2.502h.065Zm-1.562-2.519c0-.812.672-1.47 1.5-1.467.828 0 1.498.66 1.496 1.472v.058c-.018.795-.688 1.425-1.498 1.41-.828 0-1.498-.66-1.495-1.472h-.003Zm9.588 2.422v-2.779c0-1.292-.445-2.164-1.783-2.164a1.846 1.846 0 0 0-1.594.792v-.695h-1.1l-.011 4.846h1.108v-2.529c0-.805.527-1.362 1.256-1.362.838 0 1.019.455 1.019 1.25v2.641h1.105Zm-52.679 8.933h1.187v1.095a2.15 2.15 0 0 1-1.666.775 2.312 2.312 0 0 1-1.427-.525 2.221 2.221 0 0 1-.288-3.17 2.324 2.324 0 0 1 3.23-.282l.688-.775a3.502 3.502 0 0 0-2.214-.75h-.11c-1.828.013-3.3 1.475-3.29 3.27h-.01a3.351 3.351 0 0 0 1.395 2.617c1.526 1.102 3.674.782 4.797-.715v-2.477h-2.293v.937Zm4.71-3.629h-1.108v6.44h1.108v-6.44Zm4.954 2.212a2.146 2.146 0 0 0-1.645-.715c-1.366 0-2.293 1.125-2.293 2.525 0 1.392.935 2.519 2.293 2.519a2.144 2.144 0 0 0 1.645-.705v.607h1.108v-4.848h-1.108v.617ZM39.612 75.6c-.782-.033-1.409-.645-1.44-1.412-.033-.815.612-1.5 1.44-1.535.79 0 1.368.627 1.368 1.477 0 .85-.589 1.47-1.368 1.47Zm.051-5.51.738.89h.849l-1.02-1.448h-1.125l-1.022 1.447h.851l.729-.89Zm6.355 1.514a1.849 1.849 0 0 0-1.594.792v-.694h-1.108v4.848h1.105v-2.534c0-.805.528-1.362 1.256-1.362.838 0 1.019.457 1.019 1.25v2.646h1.106v-2.784c0-1.29-.446-2.162-1.784-2.162Zm5.273 0h-.025c-1.406.015-2.535 1.145-2.522 2.525l-.008.012c0 1.597 1.256 2.517 2.663 2.517a3.42 3.42 0 0 0 1.874-.578l-.438-.802a2.558 2.558 0 0 1-1.416.42 1.469 1.469 0 0 1-1.529-1.175h3.745c.018-.14.028-.28.03-.42 0-1.374-1.056-2.499-2.373-2.499Zm-1.41 2.102a1.397 1.397 0 0 1 1.347-1.155c.688 0 1.266.5 1.347 1.17l-2.695-.015Zm12.632-1.075c0-1.34-.989-2.427-2.846-2.427h-2.733v6.346h1.146v-1.5h1.478c.193 0 .39-.017.58-.05l1.127 1.548h1.347l-1.427-1.86a2.245 2.245 0 0 0 1.328-2.057Zm-2.795 1.44H58.08v-2.897h1.638a1.5 1.5 0 0 1 .212 0c.815.058 1.429.753 1.37 1.552-.058.8-.767 1.403-1.582 1.345Zm6.081-2.467h-.026c-1.406.015-2.534 1.145-2.522 2.525l-.007.012c0 1.597 1.258 2.517 2.664 2.517a3.399 3.399 0 0 0 1.875-.578l-.438-.802c-.42.275-.912.42-1.416.42a1.469 1.469 0 0 1-1.529-1.175h3.742c.018-.14.028-.28.03-.42 0-1.374-1.056-2.499-2.373-2.499Zm-1.417 2.117a1.396 1.396 0 0 1 1.346-1.155 1.345 1.345 0 0 1 1.357 1.155h-2.703Zm2.8-4.169h-1.136l-.89 1.437h.99l1.036-1.437Zm5.676 2.877c-.26-.48-.93-.822-1.677-.822-1.368 0-2.264 1.047-2.264 2.349 0 1.302.896 2.34 2.264 2.34.897 0 1.427-.44 1.626-.833v.04c0 .987-.52 1.652-1.577 1.652a2.36 2.36 0 0 1-1.475-.5l-.43.685v.013c.57.447 1.286.675 2.014.645 1.417 0 2.576-.85 2.576-2.545v-3.749h-1.058v.725Zm-1.437 2.927a1.368 1.368 0 0 1-1.376-1.285 1.368 1.368 0 0 1 1.307-1.427c.762-.04 1.414.535 1.455 1.282a1.354 1.354 0 0 1-1.386 1.43Zm4.267-5.679a.667.667 0 0 0-.668.665.66.66 0 0 0 .668.655c.372 0 .675-.29.68-.655a.678.678 0 0 0-.68-.665Zm.56 2.025H75.14v4.848h1.108v-4.848Zm3.521-.205c-1.45.032-2.596 1.21-2.566 2.632v.014c.02 1.403 1.192 2.522 2.622 2.502h.06c1.45-.032 2.596-1.21 2.566-2.632-.033-1.422-1.233-2.546-2.682-2.516Zm1.553 2.692c-.017.794-.687 1.424-1.497 1.41-.828 0-1.498-.658-1.498-1.47 0-.813.67-1.47 1.498-1.47s1.498.657 1.498 1.47v.06Zm4.808-2.585a1.846 1.846 0 0 0-1.595.792v-.694h-1.108v4.848h1.105v-2.534c0-.805.528-1.362 1.256-1.362.838 0 1.019.457 1.019 1.25v2.646h1.106v-2.784c0-1.29-.446-2.162-1.784-2.162Z"/><path d="m35.6 51.71-1.23-8.434 3.726-2.639 6.641 1.707.466-.522 3.238 6.865h3.151l-4.356-9.137 5.877-6.569-2.16-3.574a9.848 9.848 0 0 1 7.237-3.094c2.728 0 4.988.84 6.898 2.522l1.872-2.102a13.15 13.15 0 0 0-8.77-3.212 13.334 13.334 0 0 0-8.852 3.215l-1.875-3.102 2.183-2-7.996-7.748.211-9.067L35.18 0 22.99 11.67l8.356 3.629-1.134 2.224-16.894 16.57 2.094 1.843-2.038 3.681-3.409-1.887L0 42.14l.382 24.365 4.585-3.129 4.135 2.95 3.265-2.115 1.093-6.206 7.082-6.9 10.284 3.104 4.774-2.5Zm-15.603-2.78-8.345 8.125-1.055 5.999-1.432.937-4.172-2.962-2.726 1.86-.306-19.515 7.897-3.5 4.28 2.365 3.727-6.72-1.71-1.5L31.82 18.658l2.189-4.297-7.587-3.294 8.944-8.558 4.524 3.25-.198 8.91 7.153 6.945-1.847 1.7 5.721 9.455-4.379 4.896-6.597-13.836h-2.805l-11.85 24.858h3.166l10.088-21.416 5.97 12.661-.236.265-6.369-1.637-5.433 3.842 1.202 8.248-2.85 1.487-10.628-3.207Z"/></g><defs><clipPath id="a"><path fill="#fff" d="M0 0h91v78H0z"/></clipPath></defs></svg>