<svg xmlns="http://www.w3.org/2000/svg" width="182" height="92" style="enable-background:new 0 0 182 92" xml:space="preserve"><path style="fill:none" d="M0 0h182v92H0z"/><path d="M80.7 55.7H82l-1.4 7.1h-1.3l1.4-7.1zm2.4 2h1.1v.5c.2-.2.4-.3.7-.4.2-.1.5-.2.8-.2.4 0 .7.1.9.3.2.2.4.4.5.7.1.3.1.7 0 1.2l-.6 3h-1.3l.5-2.8c.1-.4.1-.7-.1-.9s-.3-.3-.6-.3-.6.1-.8.3c-.2.2-.3.5-.4.9l-.5 2.8H82l1.1-5.1zm6-.4c.1-.7.4-1.1.8-1.4.4-.3.9-.4 1.6-.3l-.2 1.1c-.3 0-.5 0-.6.1-.1.1-.2.3-.3.6l-.1.4h.8l-.2 1.1H90l-.7 3.9H88l.8-3.9h-.6l.2-1.1h.6l.1-.5zm3 .4h1.1v.6c.2-.2.3-.3.5-.4.2-.1.4-.2.6-.2h.7l-.2 1.2c-.2-.1-.3-.1-.5-.1s-.4.1-.6.2c-.2.1-.4.3-.5.5-.2.2-.3.5-.3.8l-.5 2.4h-1.3l1-5zm5.6 5.1v-.6c-.2.2-.4.4-.7.5-.2.1-.5.2-.9.2-.3 0-.6-.1-.8-.2-.2-.1-.4-.3-.5-.5-.1-.2-.1-.5-.1-.8.1-.4.3-.8.7-1.1.4-.3.8-.5 1.5-.5l1.3-.1.1-.4c0-.1 0-.3-.1-.4-.1-.1-.3-.2-.5-.2s-.5.1-.7.2c-.2.1-.3.3-.5.5l-1-.4c.2-.5.5-.8 1-1s.9-.4 1.4-.4c.7 0 1.1.2 1.4.5.3.3.3.8.2 1.3l-.7 3.3h-1.1v.1zm.4-2.2-1.1.1c-.2 0-.4.1-.5.2-.1.1-.2.2-.2.4 0 .1 0 .3.1.4.1.1.2.1.4.1s.4 0 .6-.1c.2-.1.3-.2.4-.4.1-.2.2-.4.3-.7zm3.3.6c0 .2 0 .3.1.4.1.1.2.2.3.2.1 0 .2.1.4.1s.4 0 .6-.1c.1-.1.2-.2.3-.4 0-.1 0-.2-.1-.3-.1-.1-.2-.1-.3-.2-.1 0-.3-.1-.4-.1-.2 0-.3-.1-.5-.2s-.4-.1-.5-.2-.3-.2-.4-.4c-.1-.2-.1-.4 0-.7.1-.3.2-.6.4-.8.2-.2.5-.4.8-.6.3-.1.7-.2 1.1-.2.5 0 .8.1 1.1.3.3.2.5.5.5.9l-1.2.3c0-.1-.1-.2-.1-.2-.1-.1-.2-.1-.3-.1h-.3c-.2 0-.4 0-.5.1-.1.1-.2.2-.2.3v.2c0 .1.1.1.2.1s.2.1.3.1c.1 0 .2.1.3.1.2.1.4.1.6.2.2.1.4.2.5.3.2.1.3.3.3.4.1.2.1.4 0 .7-.1.3-.2.6-.4.8-.2.2-.5.4-.8.6-.3.1-.7.2-1.2.2s-.9-.1-1.2-.3c-.3-.2-.5-.6-.5-1l1.1-.5zm5-3.5.3-1.4h1.3l-.3 1.4h1.1l-.2 1.1h-1.1l-.4 2.1c-.1.3 0 .4.1.6.1.1.2.2.4.2h.5l-.2 1.1c-.3.1-.6.1-.9.1-.3 0-.5-.1-.7-.2s-.3-.3-.4-.6c-.1-.3-.1-.6 0-1l.4-2.1h-.7l.2-1.1.6-.2zm3.4 0h1.1v.6c.2-.2.3-.3.5-.4.2-.1.4-.2.6-.2h.7l-.2 1.2c-.2-.1-.3-.1-.5-.1s-.4.1-.6.2c-.2.1-.4.3-.5.5-.2.2-.3.5-.3.8l-.5 2.4h-1.3l1-5zm7.2 5.1h-1.2v-.5c-.2.2-.4.3-.7.4-.2.1-.5.2-.8.2-.4 0-.7-.1-.9-.3-.2-.2-.4-.4-.5-.7-.1-.3-.1-.7 0-1.2l.6-3h1.3l-.5 2.8c-.1.4-.1.7.1.9.1.2.3.3.6.3s.6-.1.8-.3c.2-.2.3-.5.4-.9l.5-2.8h1.3l-1 5.1zm3.5.1c-.5 0-.9-.1-1.2-.3-.3-.2-.5-.5-.7-.9-.1-.4-.1-.8 0-1.4.1-.5.3-1 .6-1.4.3-.4.6-.7 1-.9.4-.2.9-.3 1.3-.3.5 0 1 .1 1.3.4.4.3.6.6.6 1.1l-1.2.3c0-.2-.1-.4-.3-.5-.2-.1-.3-.2-.6-.2s-.5.1-.7.2c-.2.1-.4.3-.5.5-.1.2-.2.5-.3.8-.1.4 0 .8.1 1 .2.3.4.4.8.4.2 0 .4-.1.6-.2.2-.1.4-.3.5-.5l1.1.3c-.3.4-.6.8-1.1 1.1-.3.3-.8.5-1.3.5zm4.6-5.2.3-1.4h1.3l-.3 1.4h1.1l-.2 1.1h-1.1l-.4 2.1c-.1.3 0 .4.1.6.1.1.2.2.4.2h.5l-.2 1.1c-.3.1-.6.1-.9.1-.3 0-.5-.1-.7-.2-.2-.1-.3-.3-.4-.6-.1-.3-.1-.6 0-1l.4-2.1h-.7l.2-1.1.6-.2zm6.8 5.1h-1.2v-.5c-.2.2-.4.3-.7.4-.2.1-.5.2-.8.2-.4 0-.7-.1-.9-.3-.2-.2-.4-.4-.5-.7-.1-.3-.1-.7 0-1.2l.6-3h1.3l-.5 2.8c-.1.4-.1.7.1.9.1.2.3.3.6.3s.6-.1.8-.3c.2-.2.3-.5.4-.9l.5-2.8h1.3l-1 5.1zm2.4-5.1h1.1v.6c.2-.2.3-.3.5-.4.2-.1.4-.2.6-.2h.7l-.2 1.2c-.2-.1-.3-.1-.5-.1s-.4.1-.6.2c-.2.1-.4.3-.5.5-.1.2-.3.5-.3.8l-.5 2.4h-1.3l1-5zm5 5.2c-.5 0-.9-.1-1.2-.3-.3-.2-.6-.5-.7-.9-.1-.4-.1-.9 0-1.4.1-.5.3-.9.6-1.3s.6-.7 1-.9c.4-.2.8-.3 1.3-.3s.9.1 1.2.3c.3.2.5.5.7.9.1.4.1.8 0 1.3 0 .1 0 .2-.1.2 0 .1-.1.2-.1.3h-3.4c0 .2 0 .4.1.6.1.2.2.3.3.4.1.1.3.1.5.1s.5-.1.7-.2c.2-.1.4-.2.5-.4l1.1.3c-.3.4-.6.8-1.1 1-.4.2-.9.3-1.4.3zm1.6-3.1v-.5c-.1-.2-.2-.3-.3-.4-.1-.1-.3-.1-.5-.1s-.3 0-.5.1-.3.2-.4.4c-.1.1-.2.3-.3.5h2zm3 1.4c0 .2 0 .3.1.4.1.1.2.2.3.2.1 0 .2.1.4.1s.4 0 .6-.1c.1-.1.2-.2.3-.4 0-.1 0-.2-.1-.3-.1-.1-.2-.1-.3-.2-.1 0-.3-.1-.4-.1-.2 0-.3-.1-.5-.2s-.4-.1-.5-.2c-.2-.1-.3-.2-.4-.4-.1-.2-.1-.4 0-.7.1-.3.2-.6.4-.8.2-.2.5-.4.8-.6.3-.1.7-.2 1.1-.2.5 0 .8.1 1.1.3.3.2.5.5.5.9l-1.2.3c0-.1-.1-.2-.1-.2-.1-.1-.2-.1-.3-.1h-.3c-.2 0-.4 0-.5.1-.1.1-.2.2-.2.3v.2c0 .1.1.1.2.1s.2.1.3.1c.1 0 .2.1.3.1.2.1.4.1.6.2.2.1.4.2.5.3.1.1.3.3.3.4.1.2.1.4 0 .7-.1.3-.2.6-.4.8-.2.2-.5.4-.8.6-.3.1-.7.2-1.2.2s-.9-.1-1.2-.3c-.3-.2-.5-.6-.5-1l1.1-.5zm-63-11.5c-.7.9-1.6 1.5-2.7 1.9-1 .4-2.1.6-3.2.6s-2.2-.2-3.2-.6c-1-.4-1.9-1-2.7-1.9-.8-.9-1.3-1.9-1.7-3.1-.4-1.2-.6-2.4-.6-3.7s.2-2.5.6-3.7c.4-1.2.9-2.2 1.7-3.1.7-.8 1.6-1.5 2.7-1.9 1-.4 2.1-.6 3.2-.6s2.2.2 3.2.6c1 .4 1.9 1 2.7 1.9.8.9 1.3 1.9 1.7 3.1.4 1.2.6 2.4.6 3.7s-.2 2.5-.6 3.7c-.2.7-1.1 2.4-1.7 3.1zm-6.5-1.4c.9.2 1.8 0 2.6-.6s1.4-1.4 1.6-2.5c.1-.4.2-.8.2-1.2 0-.4.1-.9.1-1.3 0-1-.2-1.9-.6-2.8-.4-.9-1-1.5-1.8-2-.2-.1-.4-.2-.6-.2-.2 0-.4-.1-.6-.1-.9-.1-1.7.1-2.5.7s-1.3 1.4-1.6 2.4c-.1.4-.2.8-.2 1.2 0 .4-.1.8 0 1.2 0 1.1.2 2.1.6 3 .4.9 1 1.6 1.9 2 .4.1.6.1.9.2zm45.8 1.4c-.7.9-1.6 1.5-2.7 1.9-1 .4-2.1.6-3.2.6s-2.2-.2-3.2-.6c-1-.4-1.9-1-2.7-1.9-.8-.9-1.3-1.9-1.7-3.1-.4-1.2-.6-2.4-.6-3.7s.2-2.5.6-3.7c.4-1.2.9-2.2 1.7-3.1.7-.8 1.6-1.5 2.7-1.9 1-.4 2.1-.6 3.2-.6s2.2.2 3.2.6c1 .4 1.9 1 2.7 1.9.8.9 1.3 1.9 1.7 3.1.4 1.2.6 2.4.6 3.7s-.2 2.5-.6 3.7c-.2.7-1.1 2.4-1.7 3.1zm-6.5-1.4c.9.2 1.8 0 2.6-.6s1.4-1.4 1.6-2.5c.1-.4.2-.8.2-1.2 0-.4.1-.9.1-1.3 0-1-.2-1.9-.6-2.8-.4-.9-1-1.5-1.8-2-.2-.1-.4-.2-.6-.2-.2 0-.4-.1-.6-.1-.9-.1-1.7.1-2.5.7s-1.3 1.4-1.6 2.4c-.1.4-.2.8-.2 1.2 0 .4-.1.8 0 1.2 0 1.1.2 2.1.6 3 .4.9 1 1.6 1.9 2 .4.1.6.1.9.2zM92.5 33.9c2.2 0 3.5.6 3.8 1.8.3 1.2.5 2.7.5 4.7v1.1h-3.9v-.7c0-1.7 0-2.3-.3-2.9-.2-.3-1-.5-2.4-.4h-.4V52h-4.1V33.9h6.8zm11.1-7.7h-4.3v4.5h4.3v-4.5zm0 7.7h-4.3v17.9h4.3V33.9zm21.3 17.9V26.2h4.2v25.7h-4.2zm12-25.6h-4.3v4.5h4.3v-4.5zm0 7.7h-4.3v17.9h4.3V33.9zm18 12.2c0 1.5-.1 2.8-.8 4-.7 1.2-2.1 1.8-3.4 1.8h-10.5v-3.7h8.6c1.7 0 2.2-.9 2.2-1.7 0-1-.7-1.7-2.2-1.7h-3.5c-2.3 0-5.3-1.3-5.3-4.9 0-2.1.5-3.6 1.5-4.4 1-.9 2.3-1.3 4-1.3h8.7v3.7H146c-1.2 0-1.8.7-1.8 1.5s.2 1.9 2 1.9h3.7c3-.3 5 2.4 5 4.8z"/><path d="M65.1 34.2c.4-.6.6-.8 1.1-1.3 1.1-1.3 2.4-2.2 4-2.8.8-.3 1.7-.6 2.5-.7-9.3-7.7-24.6-6.9-32.1.7-4.3 1.3-11.1 6.3-11.7 17.5-.5 11.4 6.7 18.5 14.2 21.7 6.7 2.9 18.5 2.8 25.4-7.6l-.9.3c-8.2 2.8-17.7 2.8-26.2-5.2-4.8-4.5-8.5-16.8-.7-26.7 5.9-2.9 19.4-1.6 24.4 4.1z"/><path d="M71.5 60.3c.9-.1 2.2-.2 3.3-.1l2.5-4.7c-9.7-.1-14.6 3-17.8 7.6 2.5-.2 5.2-.7 7.9-1.6 1.6-.6 3-1 4.1-1.2zm-12.3 9.6c-1 .4-2 .7-2.9.9-.7 4-.3 7.9.4 10.1-.1-2.9.5-7.1 2.5-11z"/><path d="M60.9 69.1c-.1.2-.3.4-.4.6-2 3.4-2.6 5.6-2.6 9.1.7-5.4 4-11.2 13-11.4l2.4-4.1c-2.3 0-4.5.4-6.3 1.2-2 2.1-4 3.6-6.1 4.6z"/></svg>