<svg width="164" height="49" fill="none" xmlns="http://www.w3.org/2000/svg"><g clip-path="url(#a)" fill-rule="evenodd" clip-rule="evenodd"><path d="M21.931 7.645c-2.204 9.338-30.54 7.208-.242 30.173-5.35-.94-7.639-10.685-10.662-17.316L21.925 7.645h.006Z" fill="#4A4A4A"/><path d="m19.175 34.232-5.696-15.46c7.354 6.347-11.512 32.103 25.563 15.266-2.654 4.302-12.435.643-19.867.194Z" fill="#0A0A0A"/><path d="M38.78 32.357C31.435 26.011 50.294.255 13.219 17.092c2.654-4.302 12.29-.698 19.722-.249l5.84 15.514Z" fill="#4A4A4A"/><path d="M18.908 47.89c6.958-11.42 46.382 5.727 15.44-40.73 6.042 5.642 4.433 18.396 6.048 28.431L18.914 47.89h-.006Z" fill="#0A0A0A"/><path d="M43.565 38.522C37.196 26.32 69.93 1.905 15.525 5.564 22.212 1.54 33.833 9.95 43.329 14.3l.237 24.22Z" fill="#4A4A4A"/><path d="M43.462 18.208c-12.32.043-17.639-45.626-42.047 7.542C.26 18.584 14.093 13.403 22.575 6.88l20.887 11.322v.006Z" fill="#0A0A0A"/><path d="M0 30.774c13.923-.049 17.614 45.675 42.047-7.542 1.154 7.166-12.678 12.347-21.16 18.863L0 30.774Z" fill="#4A4A4A"/><path d="M53.444 15.575h9.497v1.571h-7.76v6.256h7.505v1.577H55.18v6.413h7.76v1.578h-9.497V15.575Zm20.11 7.699a3.303 3.303 0 0 0-1.233-1.292c-.552-.334-1.177-.503-1.882-.503-.328 0-.65.036-.977.109a2.638 2.638 0 0 0-.869.352c-.255.163-.455.37-.607.624-.152.255-.23.553-.23.898 0 .595.242 1.056.728 1.372.486.315 1.257.582 2.301.8 1.5.31 2.605.759 3.316 1.348.71.588 1.068 1.383 1.068 2.378 0 .722-.14 1.335-.419 1.832-.28.498-.643.904-1.099 1.22-.45.315-.96.54-1.53.68a7.516 7.516 0 0 1-1.718.206c-.96 0-1.889-.2-2.787-.595a5.185 5.185 0 0 1-2.222-1.875l1.463-1.086c.322.564.801 1.032 1.433 1.414.631.382 1.33.57 2.082.57a5.71 5.71 0 0 0 1.136-.109c.364-.073.68-.2.947-.382.273-.182.486-.413.65-.692.164-.279.243-.63.243-1.043 0-.668-.322-1.172-.96-1.505-.643-.334-1.566-.65-2.775-.935-.376-.09-.783-.2-1.208-.34a4.064 4.064 0 0 1-1.178-.594 3.171 3.171 0 0 1-.892-.989c-.237-.4-.352-.898-.352-1.492 0-.65.127-1.208.376-1.669a3.335 3.335 0 0 1 1.014-1.14 4.543 4.543 0 0 1 1.451-.668 6.426 6.426 0 0 1 1.682-.218c.886 0 1.743.2 2.575.594.831.4 1.45.959 1.87 1.687l-1.41 1.062.013-.019Zm5.866-1.68h-2.696v-1.487h2.695v-4.532h1.646v4.532h3.072v1.487h-3.072V32.97H79.42V21.594Zm7.553 4.981c0 .722.121 1.402.376 2.033.25.637.607 1.189 1.069 1.656a5.075 5.075 0 0 0 1.664 1.116c.65.273 1.366.413 2.143.413a4.96 4.96 0 0 0 1.967-.4 5.237 5.237 0 0 0 1.64-1.093 5.095 5.095 0 0 0 1.11-1.656c.274-.643.414-1.34.414-2.093 0-.704-.128-1.377-.389-2.02a5.223 5.223 0 0 0-1.08-1.681 5.385 5.385 0 0 0-1.628-1.153 4.772 4.772 0 0 0-2.04-.437c-.735 0-1.372.127-2.004.376a5.34 5.34 0 0 0-1.676 1.056 4.875 4.875 0 0 0-1.147 1.668c-.28.656-.42 1.396-.42 2.209v.006ZM98.91 32.97h-1.64v-2.257h-.048a5.245 5.245 0 0 1-1.196 1.292c-.437.328-.88.589-1.336.777a6.125 6.125 0 0 1-1.324.388 6.835 6.835 0 0 1-1.135.103c-1.014 0-1.95-.182-2.787-.54a6.83 6.83 0 0 1-2.18-1.456 6.594 6.594 0 0 1-1.42-2.154 6.923 6.923 0 0 1-.504-2.62c0-.862.163-1.7.491-2.507a6.892 6.892 0 0 1 1.385-2.153 6.7 6.7 0 0 1 2.167-1.505c.85-.376 1.804-.565 2.848-.565.346 0 .735.037 1.172.104.437.073.88.2 1.336.388a5.56 5.56 0 0 1 1.323.789c.431.34.82.77 1.16 1.304h.049v-2.257h1.639V32.97Zm1.615-12.863h1.761l4.523 10.818 4.597-10.818h1.761l-5.416 12.863h-1.81l-5.416-12.863Zm15.453 6.468c0 .722.121 1.402.376 2.033a4.841 4.841 0 0 0 1.069 1.656 5.07 5.07 0 0 0 1.664 1.116 5.483 5.483 0 0 0 2.143.413c.686 0 1.342-.133 1.967-.4a5.239 5.239 0 0 0 1.64-1.093 5.1 5.1 0 0 0 1.111-1.656 5.3 5.3 0 0 0 .413-2.093 5.32 5.32 0 0 0-.389-2.02 5.213 5.213 0 0 0-1.081-1.681 5.46 5.46 0 0 0-1.627-1.153 4.769 4.769 0 0 0-2.04-.437c-.735 0-1.372.127-2.004.376a5.348 5.348 0 0 0-1.676 1.056 4.878 4.878 0 0 0-1.147 1.668c-.279.662-.419 1.396-.419 2.209v.006Zm11.937 6.395h-1.639v-2.257h-.049a5.245 5.245 0 0 1-1.196 1.292 6.271 6.271 0 0 1-1.336.777 6.115 6.115 0 0 1-1.323.388 6.849 6.849 0 0 1-1.136.103c-1.014 0-1.949-.182-2.793-.54a6.829 6.829 0 0 1-2.18-1.456 6.594 6.594 0 0 1-1.421-2.154 6.94 6.94 0 0 1-.503-2.62c0-.862.163-1.7.491-2.507a6.897 6.897 0 0 1 1.385-2.153 6.697 6.697 0 0 1 2.167-1.505c.85-.376 1.804-.565 2.848-.565.346 0 .735.037 1.172.104.437.073.88.2 1.336.388a5.56 5.56 0 0 1 1.323.789c.431.34.814.77 1.16 1.304h.049v-2.257h1.639v12.863l.006.006Zm6.801-.425-4.997-12.432h1.736l4.08 10.248 4.36-10.248h1.736L134.2 37.484h-1.713l2.229-4.939Zm19.812-6.886c-.128-.752-.364-1.408-.717-1.966a5.326 5.326 0 0 0-1.232-1.377 5.137 5.137 0 0 0-1.5-.801 5.169 5.169 0 0 0-1.572-.261c-.517 0-1.021.085-1.561.26a4.916 4.916 0 0 0-1.512.802c-.467.358-.88.819-1.232 1.377-.353.558-.583 1.213-.693 1.966h10.019Zm-10.013 1.48c.031.625.189 1.22.468 1.784a5.127 5.127 0 0 0 1.111 1.48c.462.425.984.759 1.573 1.014a4.59 4.59 0 0 0 1.815.376 5.522 5.522 0 0 0 1.615-.273 4.895 4.895 0 0 0 1.336-.661 4.694 4.694 0 0 0 1.008-.953c.279-.358.492-.746.632-1.153h1.736a6.718 6.718 0 0 1-.935 1.79 6.84 6.84 0 0 1-1.439 1.432 6.728 6.728 0 0 1-1.828.953 6.51 6.51 0 0 1-2.1.34 6.46 6.46 0 0 1-2.557-.516 6.758 6.758 0 0 1-2.131-1.42 6.793 6.793 0 0 1-1.451-2.13 6.523 6.523 0 0 1-.54-2.657c0-.959.17-1.772.516-2.585a6.77 6.77 0 0 1 1.42-2.142 7.112 7.112 0 0 1 2.113-1.468 6.498 6.498 0 0 1 2.617-.577 6.39 6.39 0 0 1 3.577 1.056c.473.316.892.668 1.257 1.056.358.394.655.783.892 1.177.377.613.638 1.226.783 1.832a7.64 7.64 0 0 1 .225 1.766c0 .079 0 .158-.012.237-.006.079-.012.157-.012.236h-11.676l-.013.006Zm14.19-7.032h1.64v1.857h.048c.189-.455.419-.82.692-1.092.274-.273.565-.492.881-.65a3.3 3.3 0 0 1 .996-.315c.352-.055.698-.097 1.044-.127v1.74a4.906 4.906 0 0 0-1.585.39 3.213 3.213 0 0 0-1.184.879 4.31 4.31 0 0 0-.892 2.657v7.524h-1.64V20.107Z" fill="#000"/></g><defs><clipPath id="a"><path fill="#fff" d="M0 0h164v49H0z"/></clipPath></defs></svg>