<svg xmlns="http://www.w3.org/2000/svg" width="182" height="92" style="enable-background:new 0 0 182 92" xml:space="preserve"><path d="M23 68.5v2c6-1.5 12.4-5.1 15.9-8.3 2.3-2.2 4.4-4.7 6-7.7 0 0 .1-.1.1-.3 1.5-2.7 2.6-5.9 3.4-9.7 2.2-10.4-1.1-20.7-1.8-22.1-.7-1.1-1.8-.9-2.6-.9H23v23.7h16c.5.1 1 .4 1 .9v.4c0 4.7-2.3 14.1-15.8 20l-1.2.7v1.3zm36.2-46.8h5.3v.8h-4.2V25h3.9v.8h-3.9v2.6h4.2v.8h-5.3v-7.5zm8.4.8H65v-.8h6.1v.8h-2.6v6.7h-1v-6.7zm5.7-.8h1.1l3 7.5h-1.1l-.8-2.2h-3.3l-.8 2.3h-1.1l3-7.6zm-.7 4.5h2.6L74 22.7l-1.4 3.5zm6.6-3.7h-2.6v-.8h6.1v.8h-2.6v6.7h-1v-6.7zm7.7-.8h2.6c2.3 0 3.7 1.2 3.7 3.6 0 2.6-1.1 3.9-3.7 3.9h-2.6v-7.5zm1 6.6h1.6c.7 0 2.6-.1 2.6-3 0-1.7-.7-2.8-2.6-2.8h-1.6v5.8zm6.6-6.6h5.3v.8h-4.2V25h3.9v.8h-3.9v2.6h4.2v.8h-5.3v-7.5zm10 0h5v.8h-3.9V25h3.5v.8h-3.5v3.5h-1v-7.5h-.1zm6.4 0h3.5c1.4 0 2.3.8 2.3 2 0 .9-.4 1.6-1.4 1.9 1 .1 1.1.8 1.1 1.6 0 .7 0 1.6.4 2h-1.1c-.3-.3-.1-1.1-.3-1.9-.1-.7-.3-1.3-1.2-1.3h-2.4v3.2h-1v-7.5zm2.9 3.5c1 0 1.8-.3 1.8-1.3 0-.7-.4-1.3-1.4-1.3h-2.4v2.6h2zm4.5-3.5h1v7.5h-1v-7.5zm2.9 0h2.7c.7 0 1.5 0 2 .3s1 .8 1 1.6-.4 1.3-1.1 1.7c1 .1 1.5.9 1.5 1.7 0 1.1-.8 2.2-2.3 2.2h-3.7v-7.5h-.1zm1.1 3.3h2c1.1 0 1.6-.4 1.6-1.2 0-1.1-.7-1.2-1.6-1.2h-2V25zm0 3.3h2.6c.8 0 1.4-.5 1.4-1.3 0-.9-.8-1.2-1.6-1.2h-2.3v2.5zm9.6-6.8c2.4 0 3.7 1.9 3.7 3.9s-1.2 3.9-3.7 3.9c-2.4 0-3.7-1.9-3.7-3.9.1-1.9 1.3-3.9 3.7-3.9zm0 7.1c1.9 0 2.6-1.6 2.6-3.1s-.8-3.1-2.6-3.1c-1.9 0-2.6 1.6-2.6 3.1s.9 3.1 2.6 3.1zm11.2-2.2c0 1.9-1.1 3-3 3s-3.1-.9-3.1-3v-4.7h1v4.8c0 1.3.8 2 2 2s2-.7 2-2v-4.8h1v4.7h.1zm1.9-4.7h3.5c1.4 0 2.3.8 2.3 2 0 .9-.4 1.6-1.4 1.9 1 .1 1.1.8 1.1 1.6 0 .7 0 1.6.4 2h-1.1c-.3-.3-.1-1.1-.3-1.9-.1-.7-.3-1.3-1.2-1.3h-2.4v3.2h-1v-7.5zm3.1 3.5c1 0 1.8-.3 1.8-1.3 0-.7-.4-1.3-1.4-1.3h-2.4v2.6h2zm10.1 3.1c-.5.8-1.5 1.1-2.4 1.1-2.3 0-3.7-1.9-3.7-3.8 0-2.2 1.2-4 3.7-4 1.6 0 3 .7 3.3 2.6h-1c-.1-1.1-1.1-1.6-2.3-1.6-1.9 0-2.6 1.6-2.6 3.2s1 3 2.6 3 2.4-1.1 2.4-2.4h-2.4v-.8h3.3v3.9h-.7l-.2-1.2zM63.7 38.9c-.1-1.1-.8-1.5-1.9-1.5-.8 0-1.8.3-1.8 1.3 0 .9 1.2 1.1 2.4 1.3 1.2.3 2.4.7 2.4 2.2 0 1.6-1.6 2.3-3 2.3-1.8 0-3.1-.8-3.1-2.7h1c0 1.2 1.1 1.7 2.2 1.7 1 0 1.9-.3 1.9-1.3 0-1.1-1.2-1.2-2.4-1.5-1.2-.3-2.4-.7-2.4-2 0-1.5 1.4-2.2 2.7-2.2 1.5 0 2.7.7 2.9 2.4h-.8zm3.9-1.3H65v-.8h6.1v.8h-2.6v6.7h-1v-6.7zm5.7-.8h1.1l3 7.5h-1.1l-.8-2.3h-3.3l-.8 2.3h-1.1l3-7.5zm-.8 4.3h2.6l-1.2-3.5-1.4 3.5zm7.9-4.3h1.1l3 7.5h-1.1l-.8-2.3h-3.3l-.8 2.3h-1.1l3-7.5zm-.7 4.3h2.6l-1.2-3.5-1.4 3.5zm6.5-3.5h-2.6v-.8h6.1v.8h-2.6v6.7h-1v-6.7zm7.8-.8h5v.8h-3.9V40h3.5v.8h-3.5v3.5h-1v-7.5H94zm6.2 0h3.5c1.4 0 2.3.8 2.3 2 0 .9-.4 1.6-1.4 1.9.8.1 1.1.8 1.1 1.6 0 .7 0 1.6.4 2H105c-.3-.3-.1-1.1-.3-1.9-.1-.7-.3-1.3-1.2-1.3h-2.4v3.2h-1v-7.5zm3.2 3.3c1 0 1.8-.3 1.8-1.3 0-.7-.4-1.3-1.4-1.3h-2.4V40h2v.1zm4.3-3.3h5.3v.8h-4.2V40h3.9v.8h-3.9v2.6h4.2v.8h-5.3v-7.4zm6.8 0h1v7.5h-1v-7.5zm3 0h2.7c.7 0 1.5 0 2 .3s1 .8 1 1.6-.4 1.3-1.1 1.7c1 .1 1.5.9 1.5 1.7 0 1.1-.8 2.2-2.3 2.2h-3.7v-7.5h-.1zm1 3.2h2c1.1 0 1.6-.4 1.6-1.2 0-1.1-.7-1.2-1.6-1.2h-2V40zm0 3.4h2.6c.8 0 1.4-.5 1.4-1.3 0-.9-.8-1.2-1.6-1.2h-2.3v2.5zm12.5-1.9c0 1.9-1.1 3-3 3s-3.1-.9-3.1-3v-4.8h1.1v4.8c0 1.3.8 2 2 2s2-.7 2-2v-4.8h1v4.8zm1.9-4.7h3.5c1.4 0 2.3.8 2.3 2 0 .9-.4 1.6-1.4 1.9.8.1 1.1.8 1.1 1.6 0 .7 0 1.6.4 2h-1.1c-.3-.3-.1-1.1-.3-1.9-.1-.7-.3-1.3-1.2-1.3h-2.4v3.2h-1v-7.5zm3.1 3.3c1 0 1.8-.3 1.8-1.3 0-.7-.4-1.3-1.4-1.3H134V40h2v.1zm10.1 3.1c-.5.8-1.5 1.1-2.4 1.1-2.3 0-3.7-1.9-3.7-3.8 0-2.2 1.2-4 3.7-4 1.6 0 3 .7 3.3 2.6h-1c-.1-1.1-1.1-1.6-2.3-1.6-1.9 0-2.6 1.6-2.6 3.2s1 3 2.6 3 2.4-1.1 2.4-2.4h-2.4v-.8h3.3v3.9h-.5l-.4-1.2zm-82.2 16h-.7L62 54.9l-1.2 4.3h-.7l-1.4-5.1h.7l1.1 4.3 1.2-4.3h.8l1.1 4.3 1.1-4.3h.7l-1.5 5.1zm7 0h-.7L69 54.9l-1.2 4.3h-.7l-1.4-5.1h.7l1.1 4.3 1.2-4.3h.8l1.1 4.3 1.1-4.3h.7l-1.5 5.1zm6.9 0h-.7l-1.2-4.3-1.2 4.3H74l-1.4-5.1h.7l1.1 4.3 1.2-4.3h.8l1.1 4.3 1.1-4.3h.7l-1.5 5.1zm1.8-.8h.8v.8h-.8v-.8zm2-4.3h3.5v.5h-2.7v1.6h2.4v.5h-2.4v2.4h-.7V54h-.1zm4.4 0h2.4c1 0 1.6.5 1.6 1.3 0 .7-.3 1.1-1 1.3.5.1.7.5.8 1.1 0 .5 0 1.1.3 1.5h-.8c-.1-.3 0-.8-.1-1.3s-.1-.9-.8-.9h-1.6v2.2h-.7v-5.1H86zm2.1 2.5c.7 0 1.2-.1 1.2-.9 0-.5-.3-.9-1-.9h-1.8v1.7H88v.1zm3.2 1.8h.7v.8h-.8v-.8h.1zm5.7-2.8c-.1-.7-.7-1.1-1.5-1.1-1.2 0-1.8 1.1-1.8 2.2 0 1.2.5 2.2 1.8 2.2 1 0 1.5-.7 1.5-1.5h.7c-.1 1.3-1 2-2.3 2-1.6 0-2.4-1.2-2.4-2.7s.8-2.7 2.4-2.7c1.1 0 2 .5 2.2 1.6H97zm1.8-1.5h.7v2.2h2.7v-2.2h.7v5.1h-.7v-2.4h-2.7v2.4h-.7v-5.1z"/><path style="fill:none" d="M0 0h182v92H0z"/></svg>