<svg xmlns="http://www.w3.org/2000/svg" xml:space="preserve" width="200" height="200.002"><defs><clipPath clipPathUnits="userSpaceOnUse" id="a"><path d="M0 127.559h127.559V0H0Z"/></clipPath></defs><g clip-path="url(#a)" transform="matrix(1.6034 0 0 -1.6034 -2.08 202.202)"><path d="M0 0a6.397 6.397 0 0 0-6.396-6.396h-111.942A6.396 6.396 0 0 0-124.735 0v111.943a6.396 6.396 0 0 0 6.397 6.397H-6.396A6.397 6.397 0 0 0 0 111.943z" style="fill:#1476c6;fill-opacity:1;fill-rule:nonzero;stroke:none" transform="translate(126.032 7.768)"/><path d="M0 0c-.559-11.099-3.129-33.792-7.279-49.121l-9.424-.008-.089 71.922c.771 2.209 2.128 4.316 4.158 5.592a8.1 8.1 0 0 0 4.481 1.205c3.408-.166 6.34-2.792 7.416-5.995C.954 18.461.438 14.024.385 7.949z" style="fill:#fff;fill-opacity:1;fill-rule:nonzero;stroke:none" transform="translate(39.19 67.168)"/><path d="M0 0c-2.158 2.562-6.01 2.899-8.569.75a6.088 6.088 0 0 1-.749-8.568c2.146-2.565 5.995-2.902 8.568-.753C1.807-6.411 2.147-2.563 0 0" style="fill:#fff;fill-opacity:1;fill-rule:nonzero;stroke:none" transform="translate(35.793 108.65)"/><path d="m0 0 15.141.009c.225 3.767-1.612 6.532-5.17 6.566L-.2 6.594Z" style="fill:#fff;fill-opacity:1;fill-rule:nonzero;stroke:none" transform="translate(77.017 57.723)"/><path d="m0 0-4.942.016-.18 1.252-.604 6.911-1.075 11.946c-.463 5.147-5.13 9.179-10.308 8.04-4.486-.95-7.523-5.12-7.117-9.696l2.183-23.561c.221-2.082 1.251-3.893 2.95-5.06 1.787-1.226 2.393-1.024 5.296-1.269l18.709-.054 7.802-24.584 8.592 1.283L16.02-6.229c-.27 3.506-4.335 6.104-7.579 6.104L0 0" style="fill:#fff;fill-opacity:1;fill-rule:nonzero;stroke:none" transform="translate(84.563 53.38)"/><path d="M0 0c-2.22 2.935-6.43 3.527-9.361 1.315-2.947-2.216-3.534-6.416-1.317-9.36 2.208-2.938 6.417-3.529 9.363-1.319C1.614-7.14 2.21-2.936 0 0" style="fill:#fff;fill-opacity:1;fill-rule:nonzero;stroke:none" transform="translate(71.835 94.122)"/><path d="M0 0c-2.111-9.519-10.601-16.638-20.755-16.638-11.74 0-21.258 9.516-21.258 21.256 0 9.051 5.657 16.781 13.63 19.847" style="fill:none;stroke:#fff;stroke-width:4.18499994;stroke-linecap:butt;stroke-linejoin:miter;stroke-miterlimit:4;stroke-dasharray:none;stroke-opacity:1" transform="translate(88.182 35.797)"/><path d="m0 0-.97 10.147 4.578.436L4.575.437Z" style="fill:#1476c6;fill-opacity:1;fill-rule:nonzero;stroke:none" transform="translate(57.19 55.709)"/><path d="m0 0-3.062 9.722 4.384 1.381 3.063-9.722Z" style="fill:#1476c6;fill-opacity:1;fill-rule:nonzero;stroke:none" transform="translate(88.373 29.991)"/><path d="m0 0 14.229-5.17c1.5 3.462.721 6.688-2.612 7.938L2.066 6.265Z" style="fill:#fff;fill-opacity:1;fill-rule:nonzero;stroke:none" transform="translate(35.94 76.092)"/></g></svg>