<svg width="229" height="47" fill="none" xmlns="http://www.w3.org/2000/svg"><path d="M7.479 40.826c-2.452 0-3.553-1.48-3.553-3.075 0-1.297.421-2.835 1.532-5.843 2.452-6.65 5.822-15.933 5.822-17.298l-.249-.25H.613L0 17.445h6.071L1.475 37.011a14.52 14.52 0 0 0-.517 3.316 4.618 4.618 0 0 0 1.253 3.368 4.588 4.588 0 0 0 3.286 1.437h1.206c1.226-.615 2.327-1.663 4.29-4.306l4.05-5.535-1.225-.615c-3.217 4.545-4.865 6.15-6.34 6.15Zm36.203-.011c-2.438 0-2.924-1.484-2.924-3.083 0-1.426.428-2.466 2.496-7.65 1.829-4.624 2.991-7.032 2.991-10.24 0-2.833-2.077-6.166-6.83-6.166-5.24 0-9.394 3.767-13.176 12.331l-3.534 8.025h-.734c.372-.963 6.097-18.256 6.097-19.49l-.238-.25H14.97l-.61 3.083h9.44l-6.668 27.756h3.658l5.983-15.415c3.81-9.875 6.03-12.34 9.755-12.34a5.102 5.102 0 0 1 2.06.342 5.147 5.147 0 0 1 1.755 1.14 5.215 5.215 0 0 1 1.165 1.75c.267.659.397 1.365.383 2.076 0 2.524-.79 4.248-1.4 6.531l-2.134 7.775c-.29 1.085-.452 2.2-.486 3.324 0 2.89 1.458 4.817 3.897 4.817h1.219c1.22-.617 2.325-1.667 4.268-4.316l4.03-5.55-1.22-.616c-3.267 4.557-4.915 6.166-6.383 6.166Zm48.433-27.139-1.832 1.793a1.306 1.306 0 0 1-.954.434c-1.583 0-2.69-2.227-7.573-2.227-4.635 0-9.538 3.085-9.538 8.678 0 10.5 15.872 8.678 15.872 16.672 0 3.086-1.832 4.937-6.105 4.937-10.139 0-12.886-10.491-13.067-11.108l-1.22.617 2.012 12.343h.248l1.831-1.794a1.298 1.298 0 0 1 .954-.434c1.593 0 3.3 2.227 8.975 2.227 5.132 0 10.015-2.719 10.015-8.678 0-9.266-15.26-8.032-15.26-16.055.018-3.703 2.45-5.554 5.865-5.554 7.573 0 10.626 10.491 10.807 11.108l1.22-.617-2.012-12.342h-.238Zm13.18 27.158c-2.446 0-3.555-1.48-3.555-3.076 0-1.297.43-2.836 1.529-5.844 2.457-6.652 5.821-15.939 5.821-17.304l-.249-.25H98.395l-.612 3.076h6.05l-4.587 19.572a14.498 14.498 0 0 0-.488 3.317 4.628 4.628 0 0 0 1.251 3.37 4.577 4.577 0 0 0 3.279 1.437h1.224c1.223-.616 2.322-1.663 4.282-4.307l4.033-5.537-1.223-.615c-3.241 4.556-4.894 6.161-6.309 6.161Zm66.458-6.161c-3.303 4.575-4.988 6.19-6.488 6.19-1.12 0-1.743-.62-1.743-1.857.034-1.311.244-2.612.623-3.869l5.114-20.93h-3.741l-6.107 15.475c-3.896 9.904-6.176 12.38-9.984 12.38a5.35 5.35 0 0 1-3.879-1.497 5.282 5.282 0 0 1-1.194-1.744 5.232 5.232 0 0 1-.411-2.069c.139-2.234.581-4.44 1.315-6.557l4.763-15.688-.253-.25H126.39L129.974 0h-4.13l-1.724 14.237h-11.981l-.682 3.095h11.971l-6.419 18.076a14.06 14.06 0 0 0-.876 4.836c0 4.768 4.237 5.57 5.737 5.57 4.549 0 8.601-4.4 11.971-10.154l2.367-4.082-1.246-.629-2.367 4.092c-3.429 5.88-5.67 7.06-8.231 7.06-1.949 0-3.741-1.49-3.741-4.217.031-1.087.198-2.165.497-3.211l4.432-17.341h21.196c-1.802 4.835-3.361 8.791-4.549 12.012-1.744 4.836-2.747 7.06-2.747 10.28 0 2.844 2.124 6.19 6.984 6.19 5.367 0 9.605-3.78 13.472-12.379l3.614-8.057h.75l-4.364 11.887a8.763 8.763 0 0 0-.624 3.095c0 2.901 1.491 4.836 3.984 4.836h1.247c1.247-.62 2.377-1.673 4.374-4.333l4.11-5.571-1.246-.619ZM192.744 31h1.656v-.816c.408.708 1.188.972 1.86.972 1.536 0 2.808-1.32 2.808-3.384 0-2.028-1.248-3.372-2.808-3.372-.816 0-1.512.372-1.86.972V22.3h-1.656V31Zm4.584-3.216c0 1.26-.624 2.1-1.476 2.1-.912 0-1.512-.792-1.512-2.112 0-1.296.6-2.1 1.512-2.1.852 0 1.476.852 1.476 2.112Zm4.128.444h4.764c.072-2.28-1.176-3.828-3.168-3.828-1.908 0-3.24 1.428-3.24 3.348 0 1.86 1.212 3.408 3.288 3.408 1.752 0 2.7-1.068 3.048-2.028h-1.704c-.336.564-.852.744-1.356.744-.78 0-1.548-.54-1.632-1.644Zm.024-1.14c.132-1.08.936-1.476 1.56-1.476.696 0 1.464.384 1.5 1.476h-3.06Zm6.035-4.296v1.752h-.912v1.14h.912v3.576c0 1.284.288 1.74 1.764 1.74h1.212v-1.188h-.504c-.588 0-.816-.132-.816-.792v-3.336h1.344v-1.14h-1.344v-1.752h-1.656Zm6.125 8.364c.972 0 1.656-.288 2.112-.96.024.312.06.6.108.804h1.524c-.12-.54-.192-1.116-.192-2.136 0-.588.024-1.44.024-1.644 0-2.184-1.248-2.844-2.784-2.844-1.656 0-2.712.936-2.832 2.208h1.548c.036-.708.564-1.044 1.2-1.044.672 0 1.212.348 1.212 1.344v.108c-2.532.288-4.248.744-4.248 2.268 0 1.176 1.092 1.896 2.328 1.896Zm1.968-3.108v.48c0 .936-.444 1.5-1.476 1.5-.744 0-1.116-.384-1.116-.852 0-.72.744-.936 2.592-1.128Z" fill="#000"/><path d="M193.942 15C187.347 15 182 20.311 182 26.864c0 6.552 5.347 11.863 11.942 11.863h9.289V44l6.066-5.273h6.761c6.595 0 11.942-5.311 11.942-11.863C228 20.31 222.653 15 216.058 15h-22.116Z" stroke="#000" stroke-width="2"/></svg>