<svg width="167" height="124" fill="none" xmlns="http://www.w3.org/2000/svg"><path d="M9.745 17.86H.015l.983-4.883H17.71l.4.396c0 2.152-5.403 16.892-9.332 27.45-1.764 4.792-2.455 7.234-2.455 9.278 0 2.533 1.765 4.883 5.694 4.883 2.363 0 5.003-2.533 10.22-9.766l1.965.977-6.477 8.79c-3.146 4.195-4.91 5.858-6.875 6.835H8.886c-3.929 0-7.274-3.128-7.274-7.614 0-1.373.291-3.418.782-5.28L9.745 17.86Zm54.418 18.752c.982-3.616 2.256-6.347 2.256-10.36 0-4.685-3.53-8.393-8.64-8.393-5.985 0-9.53 3.907-15.715 19.532l-9.622 24.414h-5.893l10.804-43.946H22.144l.983-4.882h20.717l.4.396c0 1.953-9.24 29.297-9.822 30.869h1.181l5.694-12.695C47.374 17.95 54.05 12 62.49 12c7.658 0 11.004 5.28 11.004 9.766 0 5.08-1.873 8.88-4.82 16.22-3.345 8.21-4.02 9.872-4.02 12.115 0 2.533.783 4.883 4.712 4.883 2.363 0 5.002-2.533 10.22-9.766l1.965.977-6.477 8.79c-3.146 4.195-4.91 5.858-6.875 6.835h-1.964c-3.929 0-6.292-3.128-6.292-7.614 0-1.373.291-3.418.782-5.28l3.438-12.314ZM8.149 120.476c-.583 0-1.074.198-1.565.686L3.637 124h-.399L0 104.454l1.964-.977c.292.977 4.712 17.578 21.025 17.578 6.875 0 9.822-2.929 9.822-7.812 0-12.695-25.537-9.766-25.537-26.367 0-8.79 7.858-13.672 15.331-13.672 7.858 0 9.622 3.51 12.185 3.51.584 0 1.075-.2 1.566-.687l2.946-2.838h.4l3.237 19.53-1.964.977c-.292-.976-5.202-17.578-17.388-17.578-5.494 0-9.438 2.93-9.438 8.79 0 12.695 24.555 10.742 24.555 25.39 0 9.384-7.858 13.672-16.114 13.672-9.131 0-11.893-3.51-14.441-3.51v.016Zm49.708-41.413h-9.73l.982-4.883h16.697l.4.396c0 2.152-5.403 16.892-9.332 27.451-1.764 4.791-2.455 7.233-2.455 9.277 0 2.533 1.765 4.883 5.694 4.883 2.363 0 5.002-2.533 10.22-9.765l1.965.976-6.477 8.789c-3.146 4.196-4.91 5.86-6.875 6.836h-1.964c-3.929 0-7.274-3.128-7.274-7.614 0-1.373.291-3.418.782-5.28l7.367-31.067Zm45.486 27.923 3.729-6.454 1.964.976-3.729 6.455c-5.31 9.079-11.694 16.022-18.86 16.022-2.364 0-9.04-1.267-9.04-8.79 0-1.953.292-4.684 1.382-7.614l10.113-28.518H70.04l1.074-4.883h18.861l2.716-22.461H99.2l-5.693 22.46h15.622l-1.074 4.884H92.232l-6.967 27.343c-.491 1.954-.783 3.51-.783 5.082 0 4.303 2.855 6.637 5.893 6.637 4.02 0 7.566-1.861 12.968-11.139Z" fill="#111"/><path d="m165.036 106.406 1.964.977-6.476 8.789c-3.146 4.196-4.911 5.859-6.875 6.836h-1.965c-3.928 0-6.292-3.128-6.292-7.615 0-1.556.292-2.929.983-4.882l6.875-18.754h-1.182l-5.693 12.696c-6.093 13.58-12.769 19.531-21.225 19.531-7.657 0-11.003-5.279-11.003-9.766 0-5.081 1.565-8.59 4.328-16.22 1.872-5.08 4.327-11.337 7.167-18.951h-21.255l1.074-4.883h24.877l.399.397-7.459 24.81c-1.074 3.617-2.056 7.325-2.056 10.361 0 4.685 3.637 8.393 8.64 8.393 5.985 0 9.53-3.907 15.715-19.531l9.622-24.415h5.893l-8.057 33.02c-.399 1.465-.982 3.708-.982 6.058 0 1.953.982 2.93 2.747 2.93 2.363 0 5.003-2.533 10.221-9.766l.015-.015Z" fill="#111"/><path d="M119.054 22h2.346v-1.156c.578 1.003 1.683 1.377 2.635 1.377 2.176 0 3.978-1.87 3.978-4.794 0-2.873-1.768-4.777-3.978-4.777-1.156 0-2.142.527-2.635 1.377V9.675h-2.346V22Zm6.494-4.556c0 1.785-.884 2.975-2.091 2.975-1.292 0-2.142-1.122-2.142-2.992 0-1.836.85-2.975 2.142-2.975 1.207 0 2.091 1.207 2.091 2.992Zm5.848.629h6.749c.102-3.23-1.666-5.423-4.488-5.423-2.703 0-4.59 2.023-4.59 4.743 0 2.635 1.717 4.828 4.658 4.828 2.482 0 3.825-1.513 4.318-2.873h-2.414c-.476.799-1.207 1.054-1.921 1.054-1.105 0-2.193-.765-2.312-2.329Zm.034-1.615c.187-1.53 1.326-2.091 2.21-2.091.986 0 2.074.544 2.125 2.091h-4.335Zm8.55-6.086v2.482h-1.292v1.615h1.292v5.066c0 1.819.408 2.465 2.499 2.465h1.717v-1.683h-.714c-.833 0-1.156-.187-1.156-1.122v-4.726h1.904v-1.615h-1.904v-2.482h-2.346Zm8.677 11.849c1.377 0 2.346-.408 2.992-1.36.034.442.085.85.153 1.139h2.159c-.17-.765-.272-1.581-.272-3.026 0-.833.034-2.04.034-2.329 0-3.094-1.768-4.029-3.944-4.029-2.346 0-3.842 1.326-4.012 3.128h2.193c.051-1.003.799-1.479 1.7-1.479.952 0 1.717.493 1.717 1.904v.153c-3.587.408-6.018 1.054-6.018 3.213 0 1.666 1.547 2.686 3.298 2.686Zm2.788-4.403v.68c0 1.326-.629 2.125-2.091 2.125-1.054 0-1.581-.544-1.581-1.207 0-1.02 1.054-1.326 3.672-1.598Z" fill="#000"/><path d="M121.577 1C112.974 1 106 7.96 106 16.546c0 8.585 6.974 15.545 15.577 15.545h12.115V39l7.912-6.91h8.819c8.603 0 15.577-6.959 15.577-15.545C166 7.96 159.026 1 150.423 1h-28.846Z" stroke="#000" stroke-width="2"/></svg>