<svg xmlns="http://www.w3.org/2000/svg" width="173" height="45.8" style="enable-background:new 0 0 173 45.8" xml:space="preserve"><path d="M7.5 40.8c-2.5 0-3.6-1.5-3.6-3.1 0-1.3.4-2.8 1.5-5.8 2.5-6.7 5.8-15.9 5.8-17.3l-.2-.2H.6l-.6 3h6.1L1.5 37c-.3 1.1-.5 2.2-.5 3.3 0 .6.1 1.2.3 1.8.2.6.5 1.1 1 1.6.4.4.9.8 1.5 1.1.6.2 1.2.4 1.8.4h1.2c1.2-.6 2.3-1.7 4.3-4.3l4.1-5.5-1.2-.6c-3.4 4.4-5 6-6.5 6zm36.2 0c-2.4 0-2.9-1.5-2.9-3.1 0-1.4.4-2.5 2.5-7.6 1.8-4.6 3-7 3-10.2 0-2.8-2.1-6.2-6.8-6.2-5.2 0-9.4 3.8-13.2 12.3l-3.5 8H22c.4-1 6.1-18.3 6.1-19.5l-.2-.3H15l-.6 3.1h9.4l-6.7 27.8h3.7l6-15.4c3.8-9.9 6-12.3 9.8-12.3.7 0 1.4.1 2.1.3.7.3 1.3.6 1.8 1.1.5.5.9 1.1 1.2 1.8s.4 1.4.4 2.1c0 2.5-.8 4.2-1.4 6.5L38.4 37c-.3 1.1-.5 2.2-.5 3.3 0 2.9 1.5 4.8 3.9 4.8H43c1.2-.6 2.3-1.7 4.3-4.3l4-5.5-1.2-.6c-3.3 4.5-5 6.1-6.4 6.1zm48.4-27.1-1.8 1.8c-.1.1-.3.2-.4.3-.2.1-.3.1-.5.1-1.6 0-2.7-2.2-7.6-2.2-4.6 0-9.5 3.1-9.5 8.7 0 10.5 15.9 8.7 15.9 16.7 0 3.1-1.8 4.9-6.1 4.9C72 44 69.2 33.5 69 32.9l-1.2.6 2 12.3h.2l1.8-1.8c.1-.1.3-.2.4-.3.2-.1.3-.1.5-.1 1.6 0 3.3 2.2 9 2.2 5.1 0 10-2.7 10-8.7 0-9.3-15.3-8-15.3-16.1 0-3.7 2.5-5.6 5.9-5.6 7.6 0 10.6 10.5 10.8 11.1l1.2-.6-2-12.3h-.2zm13.2 27.1c-2.4 0-3.6-1.5-3.6-3.1 0-1.3.4-2.8 1.5-5.8 2.5-6.7 5.8-15.9 5.8-17.3l-.2-.2H98.4l-.6 3.1h6L99.2 37c-.3 1.1-.5 2.2-.5 3.3 0 .6.1 1.2.3 1.8.2.6.5 1.1 1 1.6.4.4.9.8 1.5 1.1.6.2 1.2.4 1.8.4h1.2c1.2-.6 2.3-1.7 4.3-4.3l4-5.5-1.2-.6c-3.2 4.4-4.9 6-6.3 6zm66.5-6.1c-3.3 4.6-5 6.2-6.5 6.2-1.1 0-1.7-.6-1.7-1.9 0-1.3.2-2.6.6-3.9l5.1-20.9h-3.7l-6.1 15.5c-3.9 9.9-6.2 12.4-10 12.4-.7 0-1.4-.1-2.1-.4-.7-.3-1.3-.6-1.8-1.1-.5-.5-.9-1.1-1.2-1.7-.3-.7-.4-1.4-.4-2.1.1-2.2.6-4.4 1.3-6.6l4.8-15.7-.3-.3h-23.4L130 0h-4.1l-1.7 14.2h-12l-.7 3.1h12L117 35.4c-.6 1.5-.9 3.2-.9 4.8 0 4.8 4.2 5.6 5.7 5.6 4.5 0 8.6-4.4 12-10.2l2.4-4.1-1.2-.6-2.4 4.1c-3.4 5.9-5.7 7.1-8.2 7.1-1.9 0-3.7-1.5-3.7-4.2 0-1.1.2-2.2.5-3.2l4.4-17.3h21.2c-1.8 4.8-3.4 8.8-4.5 12-1.7 4.8-2.7 7.1-2.7 10.3 0 2.8 2.1 6.2 7 6.2 5.4 0 9.6-3.8 13.5-12.4l3.6-8.1h.8l-4.4 11.9c-.4 1-.6 2-.6 3.1 0 2.9 1.5 4.8 4 4.8h1.2c1.2-.6 2.4-1.7 4.4-4.3l4.1-5.6-1.4-.6z" style="fill:#010202"/></svg>