<svg xmlns="http://www.w3.org/2000/svg" width="182" height="92" style="enable-background:new 0 0 182 92" xml:space="preserve"><path d="M29.5 43.8c0-5.5 4.5-10.1 10-10.1s10 4.5 10 10.1c0 1.3-.3 2.6-.8 3.8-.5 1.2-1.2 2.3-2.2 3.2-.9.9-2 1.7-3.2 2.2-1.2.5-2.5.8-3.8.8-1.3 0-2.6-.3-3.8-.8-1.2-.5-2.3-1.2-3.2-2.2-.9-.9-1.7-2-2.2-3.2-.5-1.2-.8-2.5-.8-3.8zM163 21v50H19V21h144zM23.7 40.5c0 3.1.9 6.2 2.7 8.7 1.7 2.6 4.2 4.6 7.1 5.8 2.9 1.2 6.1 1.5 9.1.9 3.1-.6 5.9-2.1 8.1-4.3 2.2-2.2 3.7-5 4.3-8.1.6-3.1.3-6.2-.9-9.1-1.2-2.9-3.2-5.3-5.8-7.1-2.6-1.7-5.7-2.7-8.8-2.7-2.1 0-4.1.4-6.1 1.2s-3.7 2-5.1 3.4c-1.5 1.5-2.6 3.2-3.4 5.1-.8 2.1-1.2 4.2-1.2 6.2zm-3.6-11.4c1.6-2.8 3.8-5.2 6.5-7h-6.5v7zm141.8-7H52.5c2.8 1.9 5.1 4.4 6.7 7.4 1.7 2.9 2.6 6.2 2.9 9.5.2 3.4-.3 6.7-1.5 9.9-1.2 3.1-3.2 5.9-5.7 8.2-2.5 2.3-5.4 4-8.7 5-3.2 1-6.6 1.3-10 .8-3.3-.5-6.5-1.7-9.3-3.6-2.8-1.9-5.1-4.4-6.9-7.3v17.9h141.8V22.1zm-78.8 9h4v8.3H91v3.4h-7.9V31.1zm9.3 5.8c0-.9.2-1.7.5-2.5.3-.7.8-1.4 1.4-1.9.6-.5 1.3-1 2.1-1.2 1.7-.6 3.5-.6 5.2 0 .8.3 1.5.7 2.1 1.2.6.5 1.1 1.2 1.4 1.9.3.8.5 1.7.5 2.5 0 .9-.2 1.8-.5 2.6s-.8 1.4-1.4 2c-.6.6-1.3 1-2.1 1.3-1.7.6-3.5.6-5.2 0-.8-.3-1.5-.7-2.1-1.3-.6-.6-1.1-1.2-1.4-2-.3-.8-.5-1.7-.5-2.6zm4.2 0c0 .4.1.7.2 1.1.1.3.3.6.5.8.2.2.5.4.7.5.3.1.6.2.9.2.3 0 .6-.1.9-.2.3-.1.5-.3.7-.5.2-.2.4-.5.5-.8.1-.3.2-.7.2-1.1 0-.4-.1-.7-.2-1-.1-.3-.3-.6-.5-.8-.2-.2-.5-.4-.7-.5-.3-.1-.6-.2-.9-.2-.3 0-.6.1-.9.2-.3.1-.5.3-.7.5-.2.2-.4.5-.5.8-.1.3-.2.6-.2 1zm17 5.9h-3.9v-8.4h-2.9v-3.3h9.8v3.3h-2.9l-.1 8.4zm5.1-11.7h8.1v3.3h-4.4v1h4.1v3.1h-4.1v1.1h4.7v3.3h-8.4V31.1zm11 0h5.1c.6 0 1.2.1 1.7.2s1.1.3 1.5.6c.5.3.8.7 1.1 1.2.3.6.5 1.2.4 1.9 0 .7-.2 1.3-.5 1.9-.4.6-.9 1-1.5 1.3l3 4.8H136l-2.3-4.2h-.1V43h-3.8l-.1-11.9zm3.8 5h1.2c.2 0 .3-.1.4-.1.2-.1.3-.2.4-.3.1-.1.2-.3.1-.5 0-.2 0-.4-.1-.5l-.3-.3c-.1-.1-.3-.1-.4-.1h-1.3v1.8zm8.5-5h4v11.7h-4V31.1zm6.5 0h8.1v3.3h-4.4v1h4.1v3.1h-4.1v1.1h4.7v3.3h-8.4V31.1zM65.4 48.2h5.1c.6 0 1.2.1 1.7.2s1.1.3 1.5.6c.5.3.8.7 1.1 1.2.3.6.4 1.2.4 1.8 0 .7-.2 1.3-.5 1.9-.4.6-.9 1-1.5 1.3l3 4.7h-4.5l-2.3-4.2h-.1v4.2h-3.9V48.2zm3.9 5h1.1c.2 0 .3-.1.4-.1.1-.1.3-.2.3-.3.1-.1.1-.3.1-.5s0-.4-.1-.5l-.3-.3c-.1-.1-.3-.1-.4-.1h-1.3l.2 1.8zm7.5.8c0-.9.2-1.7.5-2.5.3-.7.8-1.4 1.4-1.9.6-.5 1.3-1 2.1-1.2 1.7-.6 3.5-.6 5.2 0 .8.3 1.5.7 2.1 1.2.6.5 1.1 1.2 1.4 1.9.3.8.5 1.7.5 2.5 0 .9-.2 1.8-.5 2.6-.3.7-.8 1.4-1.4 2-.6.6-1.3 1-2.1 1.3-1.7.6-3.5.6-5.2 0-.8-.3-1.5-.7-2.1-1.3-.6-.6-1.1-1.2-1.4-2-.3-.8-.5-1.7-.5-2.6zm4.2 0c0 .4.1.7.2 1.1.1.3.3.6.5.8.2.2.5.4.7.5.3.1.6.2.9.2.3 0 .6-.1.9-.2.3-.1.5-.3.8-.5.2-.2.4-.5.5-.8.1-.3.2-.7.2-1.1 0-.4-.1-.7-.2-1-.1-.3-.3-.6-.5-.8-.2-.2-.5-.4-.7-.5-.3-.1-.6-.2-.9-.2-.3 0-.6.1-.9.2-.3.1-.5.3-.7.5-.2.2-.4.5-.5.8-.2.3-.3.7-.3 1zm14-.7.2 6.6h-3.7V48.2h5.2l2.1 6.3h.1l1.8-6.3h5.3v11.7h-3.8l.1-6.6h-.1l-2.2 6.6h-2.8L95 53.3zm17.1-5.1h4.2l4.6 11.7h-4.3l-.6-1.7h-3.7l-.6 1.7h-4.2l4.6-11.7zm2.1 4.1-1 2.9h1.9l-.9-2.9zm8.1-4.1h3.9l3.4 5.9h.1l-.2-5.9h3.8v11.7h-4l-3.3-5.6h-.1l.2 5.6h-3.8V48.2zm13.1 11.7V48.2h4.4c.9 0 1.8.1 2.7.3.8.2 1.6.5 2.2.9.7.5 1.2 1.1 1.6 1.8.4.9.6 1.8.6 2.8 0 .9-.2 1.8-.5 2.7-.3.7-.9 1.3-1.5 1.8s-1.4.9-2.1 1.1c-.8.2-1.7.3-2.5.3h-4.9zm3.9-8.3v5h.7c.9 0 1.6-.2 2.1-.6.5-.4.7-1.1.7-2 0-.3 0-.7-.2-1-.1-.3-.3-.6-.6-.8-.6-.4-1.3-.7-2-.6h-.7zm9.2-3.4h8.1v3.3h-4.4v1h4.1v3.1h-4.1v1.1h4.7V60h-8.4V48.2z"/><path style="fill:none" d="M0 0h182v92H0z"/></svg>