<svg xmlns="http://www.w3.org/2000/svg" width="182" height="92" style="enable-background:new 0 0 182 92" xml:space="preserve"><path d="M65.8 44.4 61 38.1l4-6-6.7 2.6-4.2-5.7v7.1l-6.3 2.5 6.3 1.9v7.1l4.1-5.6 7.6 2.4zm35.1 5.9h3.7v4.6c-.9.5-2.1.8-3.3.8-1.9 0-3.4-.6-4.5-1.8-1.1-1.2-1.7-2.9-1.7-5 0-2 .6-3.7 1.8-5 1.2-1.3 2.7-1.9 4.6-1.9 1.8 0 3.5.4 4.8 1.3l.1.1V41h-.1c-1.3-.6-2.8-.9-4.7-.9-2.6 0-4.7.9-6.4 2.6-1.7 1.7-2.5 3.9-2.5 6.5s.8 4.7 2.3 6.3c1.5 1.6 3.5 2.4 5.9 2.4 2.1 0 4-.5 5.7-1.5v-7.8h-5.9v1.7zm14.6-5.5c-.7 0-1.4.2-2 .7-.5.4-.9 1-1.2 1.7V45h-2.1v10.5l2.1 1.8V51c0-1.3.3-2.4.8-3.1.5-.8 1.2-1.1 2-1.1.6 0 1.1.1 1.4.4l.2.1V45h-.1c-.2-.1-.6-.2-1.1-.2zm11 7.3c0 1.1-.3 2-.9 2.7-.6.7-1.4 1-2.3 1-1.9 0-2.8-1.2-2.8-3.7v-7h-2.1v7.3c0 3.5 1.5 5.2 4.4 5.2 1.6 0 2.9-.7 3.7-2v1.7h2.1V45h-2.1v7.1zm10 2.3c-.1.3-.1.5-.2.7-.1-.4-.2-.6-.2-.7l-3.3-9.3V45h-2.4l4.8 12.2-1 2.3c-.6 1.5-1.7 2-3.2 1.5h-.1v1.9h.1c.3.1.8.2 1.3.2 1.8 0 3.3-1.3 4.3-3.8l5.6-14v-.1H140l-3.5 9.2zM150 43.2l-2.3-3.3h-3.6l4.1 3.3h1.8zm-1.3 1.5c-1.6 0-3 .6-4 1.8-1.1 1.2-1.6 2.8-1.6 4.7 0 2 .5 3.6 1.5 4.7s2.4 1.7 4.1 1.7c1.7 0 3.1-.4 4.2-1.1l-1.4-1.2c-.7.3-1.5.5-2.3.5-1.2 0-2.1-.4-2.8-1.1-.7-.7-1-1.7-1.1-3h8.5v-1.1c0-1.8-.4-3.3-1.3-4.3s-2.2-1.6-3.8-1.6zm-3.4 5.2c.2-1 .5-1.8 1.1-2.4.6-.6 1.4-1 2.3-1 .9 0 1.6.3 2.1.9.5.6.8 1.4.8 2.5h-6.3zm16.5-5.1c-.7 0-1.4.2-2 .7-.5.4-.9 1-1.2 1.7V45h-2.1v10.5l2.1 1.8V51c0-1.3.3-2.4.8-3.1.5-.8 1.2-1.1 2-1.1.6 0 1.1.1 1.4.4l.2.1V45h-.1c-.2-.1-.6-.2-1.1-.2zm7.6-.1c-1.6 0-3 .6-4 1.8-1.1 1.2-1.6 2.8-1.6 4.7 0 2 .5 3.6 1.5 4.7s2.4 1.7 4.1 1.7c1.8 0 3.2-.4 4.3-1.2l-1.4-1.2c-.8.4-1.6.5-2.4.5-1.2 0-2.1-.4-2.8-1.1-.7-.7-1-1.7-1.1-3h8.5v-1.1c0-1.8-.4-3.3-1.3-4.3-.9-.9-2.2-1.5-3.8-1.5zm-3.4 5.2c.2-1 .5-1.8 1.1-2.4.6-.6 1.4-1 2.3-1 .9 0 1.6.3 2.1.9.5.6.8 1.4.8 2.5H166zM16.6 57c2.8 0 5.1-.9 6.8-2.7 1.7-1.8 2.5-4.3 2.5-7.5 0-2.9-.8-5.2-2.5-7-1.6-1.9-3.7-2.8-6.4-2.8-2.9 0-5.2.9-6.9 2.8-1.7 1.8-2.5 4.3-2.5 7.4 0 2.9.8 5.2 2.5 7 1.6 1.8 3.8 2.8 6.5 2.8zm-4.8-15.8c1.3-1.5 2.9-2.2 5-2.2s3.8.7 4.9 2.1c1.2 1.4 1.8 3.4 1.8 5.9 0 2.5-.6 4.4-1.8 5.8-1.2 1.4-2.9 2.1-5.1 2.1-2 0-3.6-.7-4.9-2.2-1.2-1.4-1.9-3.4-1.9-5.7.1-2.4.7-4.3 2-5.8zm27.7 13.7c1.1-1.4 1.7-3.2 1.7-5.5 0-2.1-.5-3.7-1.5-5-1-1.2-2.4-1.8-4.2-1.8-2.1 0-3.7.9-4.8 2.7h-.1v-2.4h-2.2v15.6l2.2 1.9v-5.7h.1c1 1.5 2.4 2.3 4.2 2.3 1.9 0 3.4-.7 4.6-2.1zm-7.8-1c-.7-.8-1.1-1.8-1.1-2.9v-1.9c0-1.3.4-2.5 1.2-3.4.8-.9 1.8-1.3 3.1-1.3 1.2 0 2.2.4 2.9 1.3.7.9 1.1 2.1 1.1 3.6 0 1.8-.4 3.2-1.1 4.3-.8 1-1.8 1.5-3.2 1.5-1.2 0-2.1-.4-2.9-1.2zm16.8 3h.3l1.8-2.3c-.4.3-.9.4-1.4.4-.7 0-1.3-.2-1.6-.6-.3-.4-.5-1.1-.5-2v-7.8h3.5v-1.9h-3.5v-4.1l-2.2.7v3.4h-2.4v1.9h2.4v8.2c0 2.8 1.2 4.1 3.6 4.1zm7.9-9.2-2.2 2.9v6.1h2.2v-9z"/><path d="M66.7 57c2.1 0 3.8-.7 5.1-2 1.3-1.3 1.9-3.1 1.9-5.3 0-2.2-.6-4-1.7-5.3-1.2-1.3-2.8-1.9-4.9-1.9h-.5l1.4 1.9c.9.2 1.7.6 2.3 1.3.8.9 1.2 2.3 1.2 4 0 1.7-.4 3-1.2 3.9-.8.9-1.9 1.4-3.3 1.4s-2.5-.5-3.4-1.4c-.8-.9-1.3-2.2-1.3-3.9 0-1.7.4-3 1.3-4l.4-.4-2.3-.7c-1.1 1.3-1.7 3-1.7 5.1 0 2.1.6 3.8 1.8 5.1 1.2 1.5 2.9 2.2 4.9 2.2zm12.7-8.2c0-1.3.4-2.3 1.1-3.1.7-.8 1.7-1.2 2.8-1.2 2.2 0 3.2 1.5 3.2 4.4v6l2.2 1.9v-8.4c0-1.8-.4-3.2-1.2-4.2-.8-1-2-1.5-3.5-1.5-2 0-3.5.9-4.6 2.6h-.1V43h-2.2v11.9l2.2 1.9.1-8z"/><path style="fill:none" d="M0 0h182v92H0z"/></svg>