<svg width="91" height="78" viewBox="0 0 91 78" fill="none" xmlns="http://www.w3.org/2000/svg">
<g clip-path="url(#clip0_6058_12392)">
<path d="M82.1529 42.3092L87.2986 48.695H91L84.9932 41.4594C88.6971 40.0047 90.8013 36.7931 90.8013 33.2365C90.8013 28.0728 86.9802 23.9064 79.9647 23.9064H74.1873V26.5432H80.2373C84.5245 26.5432 87.5279 29.5274 87.5279 33.2365C87.5279 36.9455 84.4863 39.8523 80.1991 39.8523H74.1873V42.4916H79.6921C80.5149 42.4941 81.3377 42.4341 82.1529 42.3092Z" fill="#2B000C"/>
<path d="M60.5665 37.1755H66.0637V42.3766C64.222 44.8335 61.2976 46.2831 58.1898 46.2781H58.0293L59.3412 49.0274C63.2896 48.76 66.8942 46.7205 69.1027 43.4964V34.5761H60.5665V37.1755Z" fill="#2B000C"/>
<path d="M35.0264 58.46H33.9285L31.0143 64.8034H32.1912L32.7006 63.7062H36.2517L36.7612 64.8034H37.9381L35.0264 58.46ZM33.1006 62.8039L33.8368 61.1593C34.1272 60.522 34.4762 59.6822 34.4762 59.6822C34.4762 59.6822 34.8354 60.532 35.1156 61.1593L35.8518 62.8039H33.1006Z" fill="#2B000C"/>
<path d="M40.6435 61.8066C40.2053 61.7167 39.7952 61.6392 39.7952 61.3068C39.7952 61.0518 40.1646 60.8844 40.5339 60.8844C41.0077 60.8844 41.4739 61.0069 41.8789 61.2468L42.2891 60.367C41.7643 60.0346 41.1504 59.8596 40.5237 59.8671C39.6551 59.8671 38.6667 60.377 38.6667 61.3268C38.6667 62.2765 39.4666 62.554 40.404 62.8039C40.8931 62.9414 41.3898 63.0488 41.3898 63.3812C41.3898 63.7137 40.8625 63.8811 40.4142 63.8811C39.8385 63.8761 39.2832 63.6712 38.8476 63.3038L38.4272 64.196V64.2035C38.9775 64.6709 39.6856 64.9234 40.4142 64.9084C41.3313 64.9084 42.5183 64.496 42.5183 63.3612C42.5183 62.364 41.5605 62.0016 40.6435 61.8066Z" fill="#2B000C"/>
<path d="M47.2259 63.3638C47.2259 62.3665 46.2706 62.0041 45.351 61.8092C44.9129 61.7192 44.5053 61.6417 44.5053 61.3093C44.5053 61.0543 44.8721 60.8869 45.2415 60.8869C45.7153 60.8869 46.1814 61.0094 46.589 61.2493L46.9992 60.3695C46.4718 60.0371 45.8579 59.8621 45.2313 59.8696C44.3652 59.8696 43.3768 60.3795 43.3768 61.3293C43.3768 62.279 44.1741 62.5565 45.1115 62.8064C45.5905 62.9439 46.0999 63.0513 46.0999 63.3837C46.0999 63.7162 45.5726 63.8836 45.1217 63.8836C44.546 63.8786 43.9933 63.6737 43.5576 63.3063L43.1373 64.196V64.206C43.6876 64.6734 44.3932 64.9258 45.1217 64.9109C46.0413 64.9109 47.2259 64.4985 47.2259 63.3638Z" fill="#2B000C"/>
<path d="M50.5883 64.9009C52.0378 64.8684 53.1841 63.6887 53.151 62.2665C53.1179 60.8444 51.9155 59.7197 50.4661 59.7522C49.0166 59.7847 47.8703 60.9644 47.9034 62.3865C47.9034 62.3915 47.9034 62.3965 47.9034 62.4015C47.9238 63.8036 49.0981 64.9209 50.5272 64.9009C50.5476 64.9009 50.568 64.9009 50.5883 64.9009ZM49.0268 62.3815C49.0268 61.5692 49.6993 60.9119 50.5272 60.9144C51.3551 60.9144 52.0251 61.5742 52.0225 62.3865C52.0225 62.4065 52.0225 62.4265 52.0225 62.4465C52.0047 63.2388 51.3347 63.8686 50.5272 63.8536H50.5221C49.6942 63.8536 49.0243 63.1938 49.0268 62.3815Z" fill="#2B000C"/>
<path d="M57.7822 63.4337C57.4434 63.7112 57.0155 63.8611 56.5748 63.8536C56.534 63.8536 56.4958 63.8536 56.4551 63.8536C55.6246 63.8286 54.9725 63.1488 54.998 62.3365C55.0234 61.5217 55.7163 60.8819 56.5442 60.9069C56.9289 60.8894 57.3059 61.0143 57.6014 61.2593L58.2892 60.487C57.795 60.0771 57.1709 59.8546 56.5238 59.8596C56.5162 59.8596 56.506 59.8596 56.4984 59.8596C55.0693 59.8546 53.9077 60.9869 53.9026 62.3865C53.9026 62.3965 53.9026 62.409 53.9026 62.419C53.9281 63.8136 55.1024 64.9258 56.5238 64.9009C57.204 64.9083 57.8663 64.6784 58.3911 64.256L57.7822 63.4337Z" fill="#2B000C"/>
<path d="M59.6876 57.9326C59.3157 57.9376 59.0176 58.2326 59.0202 58.5975C59.0202 58.9599 59.3182 59.2523 59.6876 59.2523C60.0595 59.2523 60.3601 58.9624 60.3652 58.5975C60.3626 58.2326 60.0595 57.9351 59.6876 57.9326Z" fill="#2B000C"/>
<path d="M60.2454 59.9571H59.1373V64.8034H60.2454V59.9571Z" fill="#2B000C"/>
<path d="M66.2879 64.8034V59.9571H65.1824V60.5745C64.7671 60.1096 64.1634 59.8472 63.5342 59.8596C62.1688 59.8596 61.2416 60.9869 61.2416 62.3865C61.2416 63.7861 62.179 64.9009 63.5342 64.9009C64.1634 64.9184 64.7671 64.6584 65.1824 64.196V64.8034H66.2879ZM63.8042 63.8536C63.0222 63.8211 62.3955 63.2088 62.365 62.4415C62.3319 61.6267 62.9763 60.9419 63.8042 60.9069C64.5914 60.9069 65.1722 61.5342 65.1722 62.3865C65.1722 63.2388 64.5685 63.8536 63.8042 63.8536Z" fill="#2B000C"/>
<path d="M70.3789 60.8494V59.9571H68.8912V58.7824L67.7857 59.0099V59.9571H67.0571V60.8494H67.7857V63.2463C67.7857 64.3635 68.262 64.9009 69.281 64.9009C69.7039 64.9009 70.1191 64.7734 70.4681 64.5385L70.1395 63.7262C69.928 63.8686 69.6784 63.9511 69.4211 63.9611C69.146 63.9611 68.8912 63.7937 68.8912 63.2763V60.8494H70.3789Z" fill="#2B000C"/>
<path d="M71.7775 59.2523C72.1494 59.2523 72.4526 58.9624 72.4577 58.5975C72.4526 58.2301 72.152 57.9351 71.7775 57.9326C71.4081 57.9376 71.1101 58.2351 71.1101 58.5975C71.1101 58.9599 71.4081 59.2523 71.7775 59.2523Z" fill="#2B000C"/>
<path d="M72.3378 59.9571H71.2297V64.8034H72.3378V59.9571Z" fill="#2B000C"/>
<path d="M75.9756 64.9009C77.425 64.8684 78.5713 63.6887 78.5382 62.2665C78.5051 60.8444 77.3027 59.7197 75.8533 59.7522C74.4038 59.7847 73.2575 60.9644 73.2906 62.3865C73.2906 62.3915 73.2906 62.394 73.2906 62.399C73.311 63.8011 74.4828 64.9209 75.9119 64.9009C75.9323 64.9009 75.9526 64.9009 75.9756 64.9009ZM74.414 62.3815C74.414 61.5692 75.0865 60.9119 75.9144 60.9144C76.7423 60.9144 77.4123 61.5742 77.4097 62.3865C77.4097 62.4065 77.4097 62.424 77.4097 62.444C77.3919 63.2388 76.7219 63.8686 75.9119 63.8536C75.084 63.8536 74.414 63.1938 74.4166 62.3815H74.414Z" fill="#2B000C"/>
<path d="M84.0024 64.8034V62.0241C84.0024 60.7319 83.5566 59.8597 82.2192 59.8597C81.5824 59.8347 80.9812 60.1346 80.6246 60.652V59.9571H79.5241L79.5139 64.8034H80.622V62.274C80.622 61.4693 81.1493 60.9119 81.8779 60.9119C82.716 60.9119 82.8968 61.3668 82.8968 62.1616V64.8034H84.0024Z" fill="#2B000C"/>
<path d="M31.3225 73.7361H32.5096V74.8308C32.102 75.3232 31.4906 75.6081 30.8436 75.6056C30.3214 75.5956 29.817 75.4107 29.4171 75.0807C28.4465 74.2835 28.3166 72.8638 29.1292 71.9116C29.9418 70.9593 31.3888 70.8318 32.3593 71.6291L33.0471 70.8543C32.4204 70.3595 31.6384 70.0945 30.8334 70.1045C30.7978 70.1045 30.7596 70.1045 30.7239 70.1045C28.8949 70.117 27.4225 71.5791 27.4327 73.3737H27.4225C27.4531 74.4109 27.9676 75.3757 28.8184 75.9905C30.3443 77.0927 32.4918 76.7728 33.6152 75.2757V72.7988H31.3225V73.7336V73.7361Z" fill="#2B000C"/>
<path d="M36.0327 70.107H34.9246V76.5479H36.0327V70.107Z" fill="#2B000C"/>
<path d="M40.9873 72.3189C40.5746 71.8541 39.9709 71.5916 39.3417 71.6041C37.9763 71.6041 37.0491 72.7288 37.0491 74.1285C37.0491 75.5206 37.984 76.6478 39.3417 76.6478C39.9684 76.6628 40.5721 76.4054 40.9873 75.943V76.5504H42.0954V71.7016H40.9873V72.3189ZM39.6117 75.6006C38.8297 75.5681 38.203 74.9558 38.1725 74.1885C38.1394 73.3737 38.7838 72.6889 39.6117 72.6539C40.4014 72.6539 40.9797 73.2812 40.9797 74.131C40.9797 74.9808 40.3912 75.6006 39.6117 75.6006Z" fill="#2B000C"/>
<path d="M39.6626 70.0895L40.4014 70.9793H41.2496L40.2307 69.5322H39.1047L38.0833 70.9793H38.9341L39.6626 70.0895Z" fill="#2B000C"/>
<path d="M46.0184 71.6041C45.3841 71.5791 44.7804 71.8791 44.4238 72.3964V71.7016H43.3157V76.5504H44.4212V74.016C44.4212 73.2112 44.9485 72.6539 45.6771 72.6539C46.5152 72.6539 46.696 73.1113 46.696 73.9036V76.5504H47.8016V73.7661C47.8016 72.4764 47.3558 71.6041 46.0184 71.6041Z" fill="#2B000C"/>
<path d="M51.2915 71.6041C51.2915 71.6041 51.2736 71.6041 51.266 71.6041C49.8598 71.6191 48.7314 72.7488 48.7441 74.1285L48.7365 74.141C48.7365 75.7381 49.9923 76.6578 51.3985 76.6578C52.0684 76.6528 52.7205 76.4504 53.2733 76.0805L52.8352 75.2782C52.4174 75.5531 51.9232 75.7006 51.4188 75.6981C50.6826 75.7381 50.028 75.2357 49.8904 74.5234H53.6351C53.6529 74.3834 53.6631 74.2434 53.6656 74.1035C53.6656 72.7288 52.6085 71.6041 51.2915 71.6041ZM49.8802 73.7061C49.9898 73.0538 50.5553 72.5689 51.2278 72.5514C51.9156 72.5514 52.4938 73.0513 52.5753 73.7211L49.8802 73.7061Z" fill="#2B000C"/>
<path d="M62.5127 72.6314C62.5127 71.2917 61.5243 70.2045 59.6673 70.2045H56.934V76.5504H58.0803V75.0508H59.5578C59.7514 75.0508 59.9475 75.0333 60.1386 75.0008L61.2645 76.5479H62.6121L61.1855 74.6883C62.0007 74.3159 62.5204 73.5136 62.5127 72.6314ZM59.7182 74.071H58.0803V71.1742H59.7182C59.7896 71.1692 59.8609 71.1692 59.9297 71.1742C60.7448 71.2317 61.3588 71.9266 61.3002 72.7264C61.2416 73.5261 60.5334 74.1285 59.7182 74.071Z" fill="#2B000C"/>
<path d="M65.7988 71.6041C65.7988 71.6041 65.781 71.6041 65.7733 71.6041C64.3672 71.6191 63.2387 72.7488 63.2514 74.1285L63.2438 74.141C63.2438 75.7381 64.5022 76.6578 65.9083 76.6578C66.5783 76.6528 67.2304 76.4529 67.7832 76.0805L67.3451 75.2782C66.9247 75.5531 66.4331 75.6981 65.9287 75.6981C65.1925 75.7381 64.5378 75.2357 64.4003 74.5234H68.1424C68.1602 74.3834 68.1704 74.2434 68.1729 74.1035C68.1729 72.7288 67.1158 71.6041 65.7988 71.6041ZM64.3825 73.7211C64.492 73.0688 65.055 72.5864 65.7275 72.5664C66.4127 72.5589 66.9961 73.0538 67.0852 73.7211H64.3825Z" fill="#2B000C"/>
<path d="M67.182 69.5522H66.0459L65.1569 70.9893H66.1452L67.182 69.5522Z" fill="#2B000C"/>
<path d="M72.8575 72.4289C72.5977 71.949 71.9277 71.6066 71.1814 71.6066C69.8134 71.6066 68.9167 72.6539 68.9167 73.956C68.9167 75.2582 69.8134 76.2954 71.1814 76.2954C72.078 76.2954 72.6079 75.8555 72.8066 75.4631V75.5031C72.8066 76.4904 72.2869 77.1552 71.2298 77.1552C70.6948 77.1602 70.1726 76.9828 69.7548 76.6553L69.3243 77.3402V77.3527C69.8949 77.8 70.6107 78.0275 71.3393 77.9975C72.7556 77.9975 73.9147 77.1477 73.9147 75.4531V71.7041H72.8575V72.4289ZM71.4208 75.3557C70.6872 75.3557 70.0834 74.7908 70.0452 74.071C70.0045 73.3237 70.5904 72.6839 71.352 72.6439C72.1137 72.6039 72.7658 73.1787 72.8066 73.926C72.8091 73.9635 72.8091 74.001 72.8091 74.0385C72.7964 74.7783 72.1748 75.3682 71.4208 75.3557Z" fill="#2B000C"/>
<path d="M75.6877 69.6771C75.3158 69.6821 75.0177 69.977 75.0203 70.342C75.0203 70.7044 75.3183 70.9968 75.6877 70.9968C76.0596 70.9968 76.3628 70.7069 76.3678 70.342C76.3628 69.9745 76.0622 69.6796 75.6877 69.6771Z" fill="#2B000C"/>
<path d="M76.2481 71.7016H75.14V76.5504H76.2481V71.7016Z" fill="#2B000C"/>
<path d="M79.7686 71.4967C78.3191 71.5292 77.1728 72.7064 77.2034 74.1285C77.2034 74.1335 77.2034 74.1385 77.2034 74.1435C77.2237 75.5456 78.3955 76.6654 79.8246 76.6454C79.845 76.6454 79.8654 76.6454 79.8857 76.6454C81.3352 76.6129 82.4815 75.4357 82.451 74.0135C82.4178 72.5914 81.218 71.4667 79.7686 71.4967ZM81.3225 74.1885C81.3046 74.9833 80.6347 75.6131 79.8246 75.5981C78.9967 75.5981 78.3268 74.9408 78.3268 74.1285C78.3268 73.3162 78.9967 72.6589 79.8246 72.6589C80.6525 72.6589 81.3225 73.3162 81.3225 74.1285C81.3225 74.1485 81.3225 74.1685 81.3225 74.1885Z" fill="#2B000C"/>
<path d="M86.1294 71.6041C85.4926 71.5791 84.8914 71.8791 84.5347 72.3964V71.7016H83.4266V76.5504H84.5322V74.016C84.5322 73.2112 85.0595 72.6539 85.7881 72.6539C86.6261 72.6539 86.807 73.1113 86.807 73.9036V76.5504H87.9126V73.7661C87.9126 72.4764 87.4668 71.6041 86.1294 71.6041Z" fill="#2B000C"/>
<path d="M35.5996 51.7092L34.3692 43.2764L38.096 40.6371L44.7371 42.3441L45.2032 41.8218L48.441 48.6875H51.5921L47.236 39.5499L53.1128 32.9815L50.9527 29.4075C52.8046 27.433 55.4259 26.2983 58.1898 26.3133C60.918 26.3133 63.1775 27.153 65.0881 28.8351L66.9604 26.7331C64.5455 24.6312 61.4173 23.4865 58.1898 23.5215C54.9291 23.484 51.778 24.6337 49.3376 26.7356L47.4628 23.6339L49.6459 21.6345L41.6496 13.8864L41.8611 4.81876L35.1793 0L22.9901 11.6695L31.3455 15.2986L30.2119 17.523L13.3177 34.0938L15.4116 35.9358L13.3737 39.6173L9.96534 37.7303L0 42.1392L0.382107 66.5054L4.96739 63.3763L9.10178 66.3255L12.3675 64.211L13.4603 58.0051L20.5421 51.1044L30.8258 54.2086L35.5996 51.7092ZM19.9969 48.93L11.6517 57.0554L10.5971 63.0538L9.16547 63.9911L4.99286 61.0294L2.26717 62.8889L1.96148 43.3739L9.85836 39.8748L14.138 42.2392L17.8648 35.5184L16.1555 34.0188L31.8193 18.6577L34.0075 14.3613L26.4214 11.0672L35.3653 2.50936L39.8894 5.75852L39.6907 14.6687L46.8437 21.6145L44.9969 23.314L50.7183 32.7691L46.3394 37.6653L39.7416 23.8289H36.937L25.0866 48.6875H28.253L38.3406 27.2705L44.3116 39.9323L44.0747 40.1972L37.7063 38.5601L32.2727 42.4016L33.4751 50.6495L30.6246 52.1366L19.9969 48.93Z" fill="#2B000C"/>
</g>
<defs>
<clipPath id="clip0_6058_12392">
<rect width="91" height="78" fill="white"/>
</clipPath>
</defs>
</svg>
