<?xml version="1.0" encoding="utf-8"?>
<!-- Generator: Adobe Illustrator 27.6.1, SVG Export Plug-In . SVG Version: 6.00 Build 0)  -->
<svg version="1.1" id="Calque_1" xmlns="http://www.w3.org/2000/svg" xmlns:xlink="http://www.w3.org/1999/xlink" x="0px" y="0px"
	 width="182px" height="92px" viewBox="0 0 182 92" style="enable-background:new 0 0 182 92;" xml:space="preserve">
<style type="text/css">
	.st0{fill:none;}
</style>
<rect y="0" class="st0" width="182" height="92"/>
<g>
	<path d="M80.7,55.7H82l-1.4,7.1h-1.3L80.7,55.7z"/>
	<path d="M83.1,57.7h1.1v0.5c0.2-0.2,0.4-0.3,0.7-0.4c0.2-0.1,0.5-0.2,0.8-0.2c0.4,0,0.7,0.1,0.9,0.3c0.2,0.2,0.4,0.4,0.5,0.7
		c0.1,0.3,0.1,0.7,0,1.2l-0.6,3h-1.3l0.5-2.8c0.1-0.4,0.1-0.7-0.1-0.9s-0.3-0.3-0.6-0.3c-0.3,0-0.6,0.1-0.8,0.3
		c-0.2,0.2-0.3,0.5-0.4,0.9l-0.5,2.8h-1.3L83.1,57.7L83.1,57.7z"/>
	<path d="M89.1,57.3c0.1-0.7,0.4-1.1,0.8-1.4c0.4-0.3,0.9-0.4,1.6-0.3l-0.2,1.1c-0.3,0-0.5,0-0.6,0.1c-0.1,0.1-0.2,0.3-0.3,0.6
		l-0.1,0.4h0.8l-0.2,1.1H90l-0.7,3.9H88l0.8-3.9h-0.6l0.2-1.1H89L89.1,57.3L89.1,57.3z"/>
	<path d="M92.1,57.7h1.1l0,0.6c0.2-0.2,0.3-0.3,0.5-0.4c0.2-0.1,0.4-0.2,0.6-0.2c0.2,0,0.4,0,0.7,0l-0.2,1.2
		c-0.2-0.1-0.3-0.1-0.5-0.1c-0.2,0-0.4,0.1-0.6,0.2c-0.2,0.1-0.4,0.3-0.5,0.5c-0.2,0.2-0.3,0.5-0.3,0.8l-0.5,2.4h-1.3L92.1,57.7
		L92.1,57.7z"/>
	<path d="M97.7,62.8l0-0.6c-0.2,0.2-0.4,0.4-0.7,0.5c-0.2,0.1-0.5,0.2-0.9,0.2c-0.3,0-0.6-0.1-0.8-0.2c-0.2-0.1-0.4-0.3-0.5-0.5
		c-0.1-0.2-0.1-0.5-0.1-0.8c0.1-0.4,0.3-0.8,0.7-1.1c0.4-0.3,0.8-0.5,1.5-0.5l1.3-0.1l0.1-0.4c0-0.1,0-0.3-0.1-0.4
		c-0.1-0.1-0.3-0.2-0.5-0.2c-0.2,0-0.5,0.1-0.7,0.2c-0.2,0.1-0.3,0.3-0.5,0.5l-1-0.4c0.2-0.5,0.5-0.8,1-1s0.9-0.4,1.4-0.4
		c0.7,0,1.1,0.2,1.4,0.5c0.3,0.3,0.3,0.8,0.2,1.3l-0.7,3.3H97.7L97.7,62.8z M98.1,60.6L97,60.7c-0.2,0-0.4,0.1-0.5,0.2
		c-0.1,0.1-0.2,0.2-0.2,0.4c0,0.1,0,0.3,0.1,0.4c0.1,0.1,0.2,0.1,0.4,0.1c0.2,0,0.4,0,0.6-0.1c0.2-0.1,0.3-0.2,0.4-0.4
		C97.9,61.1,98,60.9,98.1,60.6L98.1,60.6L98.1,60.6z"/>
	<path d="M101.4,61.2c0,0.2,0,0.3,0.1,0.4c0.1,0.1,0.2,0.2,0.3,0.2c0.1,0,0.2,0.1,0.4,0.1c0.2,0,0.4,0,0.6-0.1
		c0.1-0.1,0.2-0.2,0.3-0.4c0-0.1,0-0.2-0.1-0.3c-0.1-0.1-0.2-0.1-0.3-0.2c-0.1,0-0.3-0.1-0.4-0.1c-0.2,0-0.3-0.1-0.5-0.2
		s-0.4-0.1-0.5-0.2s-0.3-0.2-0.4-0.4c-0.1-0.2-0.1-0.4,0-0.7c0.1-0.3,0.2-0.6,0.4-0.8c0.2-0.2,0.5-0.4,0.8-0.6
		c0.3-0.1,0.7-0.2,1.1-0.2c0.5,0,0.8,0.1,1.1,0.3c0.3,0.2,0.5,0.5,0.5,0.9l-1.2,0.3c0-0.1-0.1-0.2-0.1-0.2c-0.1-0.1-0.2-0.1-0.3-0.1
		c-0.1,0-0.2,0-0.3,0c-0.2,0-0.4,0-0.5,0.1c-0.1,0.1-0.2,0.2-0.2,0.3c0,0.1,0,0.1,0,0.2c0,0.1,0.1,0.1,0.2,0.1
		c0.1,0,0.2,0.1,0.3,0.1c0.1,0,0.2,0.1,0.3,0.1c0.2,0.1,0.4,0.1,0.6,0.2c0.2,0.1,0.4,0.2,0.5,0.3c0.2,0.1,0.3,0.3,0.3,0.4
		c0.1,0.2,0.1,0.4,0,0.7c-0.1,0.3-0.2,0.6-0.4,0.8c-0.2,0.2-0.5,0.4-0.8,0.6c-0.3,0.1-0.7,0.2-1.2,0.2c-0.5,0-0.9-0.1-1.2-0.3
		c-0.3-0.2-0.5-0.6-0.5-1L101.4,61.2L101.4,61.2z"/>
	<path d="M106.4,57.7l0.3-1.4h1.3l-0.3,1.4h1.1l-0.2,1.1h-1.1l-0.4,2.1c-0.1,0.3,0,0.4,0.1,0.6c0.1,0.1,0.2,0.2,0.4,0.2
		c0.2,0,0.3,0,0.5,0l-0.2,1.1c-0.3,0.1-0.6,0.1-0.9,0.1c-0.3,0-0.5-0.1-0.7-0.2s-0.3-0.3-0.4-0.6c-0.1-0.3-0.1-0.6,0-1l0.4-2.1h-0.7
		l0.2-1.1L106.4,57.7L106.4,57.7z"/>
	<path d="M109.8,57.7h1.1l0,0.6c0.2-0.2,0.3-0.3,0.5-0.4c0.2-0.1,0.4-0.2,0.6-0.2c0.2,0,0.4,0,0.7,0l-0.2,1.2
		c-0.2-0.1-0.3-0.1-0.5-0.1c-0.2,0-0.4,0.1-0.6,0.2c-0.2,0.1-0.4,0.3-0.5,0.5c-0.2,0.2-0.3,0.5-0.3,0.8l-0.5,2.4h-1.3L109.8,57.7
		L109.8,57.7z"/>
	<path d="M117,62.8h-1.2l0-0.5c-0.2,0.2-0.4,0.3-0.7,0.4c-0.2,0.1-0.5,0.2-0.8,0.2c-0.4,0-0.7-0.1-0.9-0.3c-0.2-0.2-0.4-0.4-0.5-0.7
		c-0.1-0.3-0.1-0.7,0-1.2l0.6-3h1.3l-0.5,2.8c-0.1,0.4-0.1,0.7,0.1,0.9c0.1,0.2,0.3,0.3,0.6,0.3c0.3,0,0.6-0.1,0.8-0.3
		c0.2-0.2,0.3-0.5,0.4-0.9l0.5-2.8h1.3L117,62.8L117,62.8z"/>
	<path d="M120.5,62.9c-0.5,0-0.9-0.1-1.2-0.3c-0.3-0.2-0.5-0.5-0.7-0.9c-0.1-0.4-0.1-0.8,0-1.4c0.1-0.5,0.3-1,0.6-1.4
		c0.3-0.4,0.6-0.7,1-0.9c0.4-0.2,0.9-0.3,1.3-0.3c0.5,0,1,0.1,1.3,0.4c0.4,0.3,0.6,0.6,0.6,1.1l-1.2,0.3c0-0.2-0.1-0.4-0.3-0.5
		c-0.2-0.1-0.3-0.2-0.6-0.2s-0.5,0.1-0.7,0.2c-0.2,0.1-0.4,0.3-0.5,0.5c-0.1,0.2-0.2,0.5-0.3,0.8c-0.1,0.4,0,0.8,0.1,1
		c0.2,0.3,0.4,0.4,0.8,0.4c0.2,0,0.4-0.1,0.6-0.2c0.2-0.1,0.4-0.3,0.5-0.5l1.1,0.3c-0.3,0.4-0.6,0.8-1.1,1.1
		C121.5,62.7,121,62.9,120.5,62.9L120.5,62.9z"/>
	<path d="M125.1,57.7l0.3-1.4h1.3l-0.3,1.4h1.1l-0.2,1.1h-1.1l-0.4,2.1c-0.1,0.3,0,0.4,0.1,0.6c0.1,0.1,0.2,0.2,0.4,0.2
		c0.2,0,0.3,0,0.5,0l-0.2,1.1c-0.3,0.1-0.6,0.1-0.9,0.1c-0.3,0-0.5-0.1-0.7-0.2c-0.2-0.1-0.3-0.3-0.4-0.6c-0.1-0.3-0.1-0.6,0-1
		l0.4-2.1h-0.7l0.2-1.1L125.1,57.7L125.1,57.7z"/>
	<path d="M131.9,62.8h-1.2l0-0.5c-0.2,0.2-0.4,0.3-0.7,0.4c-0.2,0.1-0.5,0.2-0.8,0.2c-0.4,0-0.7-0.1-0.9-0.3
		c-0.2-0.2-0.4-0.4-0.5-0.7c-0.1-0.3-0.1-0.7,0-1.2l0.6-3h1.3l-0.5,2.8c-0.1,0.4-0.1,0.7,0.1,0.9c0.1,0.2,0.3,0.3,0.6,0.3
		c0.3,0,0.6-0.1,0.8-0.3c0.2-0.2,0.3-0.5,0.4-0.9l0.5-2.8h1.3L131.9,62.8L131.9,62.8z"/>
	<path d="M134.3,57.7h1.1l0,0.6c0.2-0.2,0.3-0.3,0.5-0.4c0.2-0.1,0.4-0.2,0.6-0.2c0.2,0,0.4,0,0.7,0l-0.2,1.2
		c-0.2-0.1-0.3-0.1-0.5-0.1c-0.2,0-0.4,0.1-0.6,0.2c-0.2,0.1-0.4,0.3-0.5,0.5c-0.1,0.2-0.3,0.5-0.3,0.8l-0.5,2.4h-1.3L134.3,57.7
		L134.3,57.7z"/>
	<path d="M139.3,62.9c-0.5,0-0.9-0.1-1.2-0.3c-0.3-0.2-0.6-0.5-0.7-0.9c-0.1-0.4-0.1-0.9,0-1.4c0.1-0.5,0.3-0.9,0.6-1.3
		c0.3-0.4,0.6-0.7,1-0.9c0.4-0.2,0.8-0.3,1.3-0.3c0.5,0,0.9,0.1,1.2,0.3c0.3,0.2,0.5,0.5,0.7,0.9c0.1,0.4,0.1,0.8,0,1.3
		c0,0.1,0,0.2-0.1,0.2c0,0.1-0.1,0.2-0.1,0.3h-3.4c0,0.2,0,0.4,0.1,0.6c0.1,0.2,0.2,0.3,0.3,0.4c0.1,0.1,0.3,0.1,0.5,0.1
		c0.2,0,0.5-0.1,0.7-0.2c0.2-0.1,0.4-0.2,0.5-0.4l1.1,0.3c-0.3,0.4-0.6,0.8-1.1,1C140.3,62.8,139.8,62.9,139.3,62.9L139.3,62.9z
		 M140.9,59.8c0-0.2,0-0.4,0-0.5c-0.1-0.2-0.2-0.3-0.3-0.4c-0.1-0.1-0.3-0.1-0.5-0.1c-0.2,0-0.3,0-0.5,0.1c-0.2,0.1-0.3,0.2-0.4,0.4
		c-0.1,0.1-0.2,0.3-0.3,0.5H140.9L140.9,59.8z"/>
	<path d="M143.9,61.2c0,0.2,0,0.3,0.1,0.4c0.1,0.1,0.2,0.2,0.3,0.2c0.1,0,0.2,0.1,0.4,0.1c0.2,0,0.4,0,0.6-0.1
		c0.1-0.1,0.2-0.2,0.3-0.4c0-0.1,0-0.2-0.1-0.3c-0.1-0.1-0.2-0.1-0.3-0.2c-0.1,0-0.3-0.1-0.4-0.1c-0.2,0-0.3-0.1-0.5-0.2
		c-0.2-0.1-0.4-0.1-0.5-0.2c-0.2-0.1-0.3-0.2-0.4-0.4c-0.1-0.2-0.1-0.4,0-0.7c0.1-0.3,0.2-0.6,0.4-0.8c0.2-0.2,0.5-0.4,0.8-0.6
		c0.3-0.1,0.7-0.2,1.1-0.2c0.5,0,0.8,0.1,1.1,0.3c0.3,0.2,0.5,0.5,0.5,0.9l-1.2,0.3c0-0.1-0.1-0.2-0.1-0.2c-0.1-0.1-0.2-0.1-0.3-0.1
		c-0.1,0-0.2,0-0.3,0c-0.2,0-0.4,0-0.5,0.1c-0.1,0.1-0.2,0.2-0.2,0.3c0,0.1,0,0.1,0,0.2c0,0.1,0.1,0.1,0.2,0.1
		c0.1,0,0.2,0.1,0.3,0.1c0.1,0,0.2,0.1,0.3,0.1c0.2,0.1,0.4,0.1,0.6,0.2c0.2,0.1,0.4,0.2,0.5,0.3c0.1,0.1,0.3,0.3,0.3,0.4
		c0.1,0.2,0.1,0.4,0,0.7c-0.1,0.3-0.2,0.6-0.4,0.8c-0.2,0.2-0.5,0.4-0.8,0.6c-0.3,0.1-0.7,0.2-1.2,0.2c-0.5,0-0.9-0.1-1.2-0.3
		c-0.3-0.2-0.5-0.6-0.5-1L143.9,61.2L143.9,61.2z"/>
	<path d="M80.9,49.7c-0.7,0.9-1.6,1.5-2.7,1.9c-1,0.4-2.1,0.6-3.2,0.6c-1.1,0-2.2-0.2-3.2-0.6c-1-0.4-1.9-1-2.7-1.9
		c-0.8-0.9-1.3-1.9-1.7-3.1c-0.4-1.2-0.6-2.4-0.6-3.7s0.2-2.5,0.6-3.7c0.4-1.2,0.9-2.2,1.7-3.1c0.7-0.8,1.6-1.5,2.7-1.9
		c1-0.4,2.1-0.6,3.2-0.6c1.1,0,2.2,0.2,3.2,0.6c1,0.4,1.9,1,2.7,1.9c0.8,0.9,1.3,1.9,1.7,3.1c0.4,1.2,0.6,2.4,0.6,3.7
		s-0.2,2.5-0.6,3.7C82.4,47.3,81.5,49,80.9,49.7L80.9,49.7z M74.4,48.3c0.9,0.2,1.8,0,2.6-0.6c0.8-0.6,1.4-1.4,1.6-2.5
		c0.1-0.4,0.2-0.8,0.2-1.2c0-0.4,0.1-0.9,0.1-1.3c0-1-0.2-1.9-0.6-2.8c-0.4-0.9-1-1.5-1.8-2c-0.2-0.1-0.4-0.2-0.6-0.2
		c-0.2,0-0.4-0.1-0.6-0.1c-0.9-0.1-1.7,0.1-2.5,0.7c-0.8,0.6-1.3,1.4-1.6,2.4c-0.1,0.4-0.2,0.8-0.2,1.2c0,0.4-0.1,0.8,0,1.2
		c0,1.1,0.2,2.1,0.6,3c0.4,0.9,1,1.6,1.9,2C73.9,48.2,74.1,48.2,74.4,48.3L74.4,48.3z"/>
	<path d="M120.2,49.7c-0.7,0.9-1.6,1.5-2.7,1.9c-1,0.4-2.1,0.6-3.2,0.6s-2.2-0.2-3.2-0.6c-1-0.4-1.9-1-2.7-1.9
		c-0.8-0.9-1.3-1.9-1.7-3.1c-0.4-1.2-0.6-2.4-0.6-3.7s0.2-2.5,0.6-3.7c0.4-1.2,0.9-2.2,1.7-3.1c0.7-0.8,1.6-1.5,2.7-1.9
		c1-0.4,2.1-0.6,3.2-0.6s2.2,0.2,3.2,0.6c1,0.4,1.9,1,2.7,1.9c0.8,0.9,1.3,1.9,1.7,3.1c0.4,1.2,0.6,2.4,0.6,3.7s-0.2,2.5-0.6,3.7
		C121.7,47.3,120.8,49,120.2,49.7L120.2,49.7z M113.7,48.3c0.9,0.2,1.8,0,2.6-0.6c0.8-0.6,1.4-1.4,1.6-2.5c0.1-0.4,0.2-0.8,0.2-1.2
		c0-0.4,0.1-0.9,0.1-1.3c0-1-0.2-1.9-0.6-2.8c-0.4-0.9-1-1.5-1.8-2c-0.2-0.1-0.4-0.2-0.6-0.2c-0.2,0-0.4-0.1-0.6-0.1
		c-0.9-0.1-1.7,0.1-2.5,0.7c-0.8,0.6-1.3,1.4-1.6,2.4c-0.1,0.4-0.2,0.8-0.2,1.2c0,0.4-0.1,0.8,0,1.2c0,1.1,0.2,2.1,0.6,3
		c0.4,0.9,1,1.6,1.9,2C113.2,48.2,113.4,48.2,113.7,48.3L113.7,48.3z"/>
	<path d="M92.5,33.9c2.2,0,3.5,0.6,3.8,1.8c0.3,1.2,0.5,2.7,0.5,4.7v1.1l-3.9,0v-0.7c0-1.7,0-2.3-0.3-2.9c-0.2-0.3-1-0.5-2.4-0.4
		c-0.1,0-0.2,0-0.2,0h-0.2v14.5h-4.1V33.9L92.5,33.9L92.5,33.9z"/>
	<path d="M103.6,26.2h-4.3v4.5h4.3V26.2z"/>
	<path d="M103.6,33.9h-4.3v17.9h4.3V33.9z"/>
	<path d="M124.9,51.8V26.2h4.2v25.7H124.9z"/>
	<path d="M136.9,26.2h-4.3v4.5h4.3V26.2z"/>
	<path d="M136.9,33.9h-4.3v17.9h4.3V33.9z"/>
	<path d="M154.9,46.1c0,1.5-0.1,2.8-0.8,4c-0.7,1.2-2.1,1.8-3.4,1.8h-10.5v-3.7h8.6c1.7,0,2.2-0.9,2.2-1.7c0-1-0.7-1.7-2.2-1.7
		l-3.5,0c-2.3,0-5.3-1.3-5.3-4.9c0-2.1,0.5-3.6,1.5-4.4c1-0.9,2.3-1.3,4-1.3l8.7,0v3.7h-6c-0.4,0-1.9,0-2.2,0
		c-1.2,0-1.8,0.7-1.8,1.5c0,0.8,0.2,1.9,2,1.9l3.7,0C152.9,41,154.9,43.7,154.9,46.1L154.9,46.1z"/>
	<path d="M65.1,34.2c0.4-0.6,0.6-0.8,1.1-1.3c1.1-1.3,2.4-2.2,4-2.8c0.8-0.3,1.7-0.6,2.5-0.7c-9.3-7.7-24.6-6.9-32.1,0.7
		c-4.3,1.3-11.1,6.3-11.7,17.5c-0.5,11.4,6.7,18.5,14.2,21.7c6.7,2.9,18.5,2.8,25.4-7.6c-0.3,0.1-0.6,0.2-0.9,0.3
		c-8.2,2.8-17.7,2.8-26.2-5.2c-4.8-4.5-8.5-16.8-0.7-26.7C46.6,27.2,60.1,28.5,65.1,34.2L65.1,34.2z"/>
	<path d="M71.5,60.3c0.9-0.1,2.2-0.2,3.3-0.1l2.5-4.7c-9.7-0.1-14.6,3-17.8,7.6c2.5-0.2,5.2-0.7,7.9-1.6
		C69,60.9,70.4,60.5,71.5,60.3z"/>
	<path d="M59.2,69.9c-1,0.4-2,0.7-2.9,0.9c-0.7,4-0.3,7.9,0.4,10.1C56.6,78,57.2,73.8,59.2,69.9L59.2,69.9z"/>
	<path d="M60.9,69.1c-0.1,0.2-0.3,0.4-0.4,0.6c-2,3.4-2.6,5.6-2.6,9.1c0.7-5.4,4-11.2,13-11.4l2.4-4.1c-2.3,0-4.5,0.4-6.3,1.2
		C65,66.6,63,68.1,60.9,69.1L60.9,69.1z"/>
</g>
</svg>
