<svg width="164" height="49" viewBox="0 0 164 49" fill="none" xmlns="http://www.w3.org/2000/svg">
<g clip-path="url(#clip0_6058_12370)">
<path fill-rule="evenodd" clip-rule="evenodd" d="M21.9315 7.64487C19.7274 16.9825 -8.60982 14.8529 21.6886 37.8178C16.3393 36.8774 14.0502 27.1332 11.0265 20.5016L21.9254 7.64487H21.9315Z" fill="#4A4A4A"/>
<path fill-rule="evenodd" clip-rule="evenodd" d="M19.1749 34.232L13.4795 18.7724C20.8325 25.1189 1.96731 50.8748 39.0419 34.0379C36.3885 38.3396 26.6068 34.681 19.1749 34.232Z" fill="#0A0A0A"/>
<path fill-rule="evenodd" clip-rule="evenodd" d="M38.7808 32.3572C31.4339 26.0108 50.2929 0.254815 13.2184 17.0917C15.8718 12.79 25.5078 16.394 32.9397 16.843L38.7808 32.3572Z" fill="#4A4A4A"/>
<path fill-rule="evenodd" clip-rule="evenodd" d="M18.9077 47.8897C25.866 36.4709 65.2904 53.6173 34.3484 7.15948C40.3898 12.8021 38.7808 25.5557 40.3959 35.5911L18.9138 47.8897H18.9077Z" fill="#0A0A0A"/>
<path fill-rule="evenodd" clip-rule="evenodd" d="M43.5653 38.5217C37.196 26.3202 69.9292 1.90516 15.5256 5.56378C22.2107 1.54112 33.8322 9.95048 43.3285 14.3008L43.5653 38.5217Z" fill="#4A4A4A"/>
<path fill-rule="evenodd" clip-rule="evenodd" d="M43.4621 18.2081C31.1424 18.2506 25.8235 -27.4184 1.41474 25.7499C0.261095 18.5843 14.0927 13.4028 22.5751 6.88037L43.4621 18.2021V18.2081Z" fill="#0A0A0A"/>
<path fill-rule="evenodd" clip-rule="evenodd" d="M0 30.7737C13.9227 30.7251 17.6144 76.4487 42.0474 23.2319C43.201 30.3975 29.3694 35.579 20.8871 42.0954L0 30.7737Z" fill="#4A4A4A"/>
<path fill-rule="evenodd" clip-rule="evenodd" d="M53.4442 15.5749H62.9406V17.1464H55.1808V23.4018H62.6855V24.9793H55.1808V31.3925H62.9406V32.97H53.4442V15.5749Z" fill="black"/>
<path fill-rule="evenodd" clip-rule="evenodd" d="M73.5541 23.2744C73.2809 22.7526 72.874 22.3218 72.3215 21.9821C71.769 21.6484 71.1436 21.4785 70.4392 21.4785C70.1114 21.4785 69.7896 21.5149 69.4617 21.5877C69.1338 21.6605 68.8484 21.7758 68.5934 21.9396C68.3384 22.1034 68.138 22.3097 67.9862 22.5645C67.8344 22.8194 67.7555 23.1167 67.7555 23.4625C67.7555 24.0571 67.9984 24.5182 68.4841 24.8337C68.9699 25.1492 69.741 25.4162 70.7853 25.6346C72.2851 25.944 73.3902 26.393 74.1006 26.9816C74.811 27.5701 75.1692 28.3649 75.1692 29.36C75.1692 30.082 75.0295 30.6948 74.7502 31.1923C74.4709 31.6898 74.1066 32.0963 73.6512 32.4118C73.2019 32.7274 72.6919 32.9518 72.1211 33.0914C71.5504 33.2249 70.9796 33.2977 70.4028 33.2977C69.4435 33.2977 68.5145 33.0975 67.6158 32.7031C66.7111 32.3026 65.9704 31.6777 65.3936 30.8283L66.8569 29.7422C67.1787 30.3065 67.6583 30.7737 68.2898 31.1559C68.9213 31.5381 69.6195 31.7262 70.3725 31.7262C70.7671 31.7262 71.1496 31.6898 71.5079 31.617C71.8722 31.5442 72.1879 31.4168 72.4551 31.2348C72.7283 31.0528 72.9408 30.8222 73.1048 30.5431C73.2687 30.264 73.3477 29.9121 73.3477 29.4995C73.3477 28.8321 73.0258 28.3285 72.3883 27.9948C71.7447 27.6611 70.8218 27.3456 69.6135 27.0604C69.237 26.9694 68.8302 26.8602 68.4052 26.7207C67.9802 26.5872 67.5855 26.387 67.2272 26.1261C66.8629 25.8652 66.5654 25.5315 66.3347 25.1371C66.0979 24.7366 65.9825 24.2391 65.9825 23.6445C65.9825 22.9953 66.11 22.4371 66.359 21.976C66.614 21.5149 66.9479 21.1326 67.373 20.8353C67.798 20.538 68.2777 20.3135 68.8241 20.1679C69.3645 20.0223 69.9231 19.9495 70.506 19.9495C71.3925 19.9495 72.2486 20.1497 73.0805 20.5441C73.9123 20.9445 74.5317 21.5027 74.9506 22.2308L73.5419 23.2926L73.5541 23.2744Z" fill="black"/>
<path fill-rule="evenodd" clip-rule="evenodd" d="M79.4195 21.5937H76.7236V20.1072H79.4195V15.5749H81.065V20.1072H84.1373V21.5937H81.065V32.97H79.4195V21.5937Z" fill="black"/>
<path fill-rule="evenodd" clip-rule="evenodd" d="M86.9728 26.575C86.9728 27.2971 87.0942 27.9766 87.3493 28.6076C87.5982 29.2447 87.9564 29.7968 88.4179 30.264C88.8793 30.7312 89.4319 31.1074 90.0816 31.3804C90.7313 31.6534 91.4477 31.793 92.2249 31.793C92.911 31.793 93.5668 31.6595 94.1922 31.3925C94.8176 31.1256 95.3641 30.7615 95.8316 30.3004C96.2991 29.8393 96.6695 29.2871 96.9427 28.644C97.216 28.0009 97.3556 27.3031 97.3556 26.5508C97.3556 25.847 97.2281 25.1735 96.967 24.5303C96.7059 23.8872 96.3477 23.329 95.8862 22.8497C95.4248 22.3704 94.8844 21.9881 94.259 21.6969C93.6336 21.4056 92.9535 21.26 92.2189 21.26C91.4842 21.26 90.8466 21.3874 90.2152 21.6362C89.5837 21.885 89.0251 22.2429 88.5393 22.6919C88.0536 23.147 87.6711 23.7052 87.3917 24.3605C87.1124 25.0157 86.9728 25.7559 86.9728 26.569V26.575ZM98.91 32.97H97.2706V30.713H97.222C96.8638 31.2469 96.4631 31.6777 96.0259 32.0053C95.5887 32.333 95.1455 32.5939 94.6901 32.7819C94.2347 32.97 93.7975 33.0975 93.3664 33.1703C92.9353 33.2431 92.5589 33.2734 92.231 33.2734C91.217 33.2734 90.2819 33.0914 89.444 32.7334C88.6 32.3754 87.8714 31.884 87.2642 31.2772C86.6571 30.6644 86.1835 29.9485 85.8434 29.1233C85.5095 28.2982 85.3395 27.4245 85.3395 26.5022C85.3395 25.6407 85.5034 24.8034 85.8313 23.9964C86.1592 23.1895 86.6206 22.4735 87.2157 21.8425C87.8107 21.2176 88.5333 20.714 89.3833 20.3378C90.2334 19.9616 91.1866 19.7735 92.231 19.7735C92.5771 19.7735 92.9657 19.8099 93.4029 19.8767C93.84 19.9495 94.2833 20.0769 94.7387 20.265C95.194 20.4531 95.6312 20.714 96.0623 21.0537C96.4934 21.3935 96.882 21.8243 97.222 22.3582H97.2706V20.1012H98.91V32.964V32.97Z" fill="black"/>
<path fill-rule="evenodd" clip-rule="evenodd" d="M100.525 20.1072H102.286L106.809 30.9253L111.406 20.1072H113.167L107.751 32.97H105.941L100.525 20.1072Z" fill="black"/>
<path fill-rule="evenodd" clip-rule="evenodd" d="M115.978 26.575C115.978 27.2971 116.099 27.9766 116.354 28.6076C116.603 29.2447 116.962 29.7968 117.423 30.264C117.884 30.7312 118.437 31.1074 119.087 31.3804C119.736 31.6534 120.453 31.793 121.23 31.793C121.916 31.793 122.572 31.6595 123.197 31.3925C123.823 31.1256 124.369 30.7615 124.837 30.3004C125.304 29.8393 125.675 29.2871 125.948 28.644C126.221 28.0009 126.361 27.3031 126.361 26.5508C126.361 25.847 126.233 25.1735 125.972 24.5303C125.711 23.8872 125.353 23.329 124.891 22.8497C124.43 22.3704 123.883 21.9881 123.264 21.6969C122.639 21.4056 121.959 21.26 121.224 21.26C120.489 21.26 119.852 21.3874 119.22 21.6362C118.589 21.885 118.03 22.2429 117.544 22.6919C117.059 23.147 116.676 23.7052 116.397 24.3605C116.118 25.0218 115.978 25.7559 115.978 26.569V26.575ZM127.915 32.97H126.276V30.713H126.227C125.869 31.2469 125.468 31.6777 125.031 32.0053C124.594 32.333 124.145 32.5939 123.695 32.7819C123.24 32.97 122.803 33.0975 122.372 33.1703C121.94 33.2431 121.564 33.2734 121.236 33.2734C120.222 33.2734 119.287 33.0914 118.443 32.7334C117.599 32.3754 116.87 31.884 116.263 31.2772C115.656 30.6644 115.182 29.9485 114.842 29.1233C114.509 28.2982 114.339 27.4245 114.339 26.5022C114.339 25.6407 114.502 24.8034 114.83 23.9964C115.158 23.1895 115.62 22.4735 116.215 21.8425C116.81 21.2176 117.532 20.714 118.382 20.3378C119.232 19.9616 120.186 19.7735 121.23 19.7735C121.576 19.7735 121.965 19.8099 122.402 19.8767C122.839 19.9495 123.282 20.0769 123.738 20.265C124.193 20.4531 124.63 20.714 125.061 21.0537C125.492 21.3935 125.875 21.8243 126.221 22.3582H126.27V20.1012H127.909V32.964L127.915 32.97Z" fill="black"/>
<path fill-rule="evenodd" clip-rule="evenodd" d="M134.716 32.5453L129.719 20.1133H131.455L135.535 30.3611L139.895 20.1133H141.631L134.2 37.4842H132.487L134.716 32.5453Z" fill="black"/>
<path fill-rule="evenodd" clip-rule="evenodd" d="M154.528 25.6589C154.4 24.9065 154.164 24.2512 153.811 23.693C153.459 23.1348 153.046 22.6798 152.579 22.3158C152.111 21.9578 151.607 21.6908 151.079 21.5149C150.545 21.345 150.023 21.254 149.507 21.254C148.99 21.254 148.486 21.3389 147.946 21.5149C147.406 21.6908 146.902 21.9517 146.434 22.3158C145.967 22.6737 145.554 23.1348 145.202 23.693C144.849 24.2512 144.619 24.9065 144.509 25.6589H154.522H154.528ZM144.515 27.1393C144.546 27.7642 144.704 28.3588 144.983 28.9231C145.262 29.4874 145.639 29.9788 146.094 30.4035C146.556 30.8283 147.078 31.162 147.667 31.4168C148.25 31.6656 148.857 31.793 149.482 31.793C150.059 31.7748 150.599 31.6898 151.097 31.5199C151.595 31.3561 152.045 31.1377 152.433 30.8586C152.822 30.5856 153.162 30.264 153.441 29.906C153.72 29.548 153.933 29.1597 154.073 28.7532H155.809C155.59 29.3964 155.275 29.991 154.874 30.5431C154.467 31.0892 153.988 31.5685 153.435 31.975C152.882 32.3815 152.269 32.7031 151.607 32.9276C150.946 33.1521 150.241 33.2673 149.507 33.2673C148.614 33.2673 147.764 33.0975 146.95 32.7516C146.137 32.4058 145.426 31.9325 144.819 31.3318C144.212 30.7312 143.726 30.0213 143.368 29.2022C143.01 28.3892 142.828 27.5033 142.828 26.5447C142.828 25.5861 142.998 24.773 143.344 23.96C143.69 23.147 144.157 22.431 144.764 21.8182C145.372 21.2054 146.07 20.72 146.877 20.3499C147.685 19.9798 148.553 19.7917 149.494 19.7735C150.199 19.7735 150.848 19.8706 151.456 20.0648C152.057 20.2589 152.597 20.5137 153.071 20.8293C153.544 21.1448 153.963 21.4967 154.328 21.885C154.686 22.2793 154.983 22.6677 155.22 23.062C155.597 23.6748 155.858 24.2876 156.003 24.8944C156.149 25.5072 156.228 26.0957 156.228 26.66C156.228 26.7389 156.228 26.8177 156.216 26.8966C156.21 26.9755 156.204 27.0544 156.204 27.1332H144.528L144.515 27.1393Z" fill="black"/>
<path fill-rule="evenodd" clip-rule="evenodd" d="M158.705 20.1072H160.345V21.9639H160.393C160.582 21.5088 160.812 21.1448 161.085 20.8717C161.359 20.5987 161.65 20.3803 161.966 20.2225C162.276 20.0648 162.61 19.9616 162.962 19.907C163.314 19.8524 163.66 19.8099 164.006 19.7796V21.5209C163.429 21.5695 162.901 21.6969 162.421 21.9092C161.942 22.1216 161.553 22.4128 161.237 22.789C160.958 23.147 160.739 23.5535 160.582 24.0025C160.424 24.4515 160.345 24.9308 160.345 25.4465V32.97H158.705V20.1072Z" fill="black"/>
</g>
<defs>
<clipPath id="clip0_6058_12370">
<rect width="164" height="49" fill="white"/>
</clipPath>
</defs>
</svg>
