<?xml version="1.0" encoding="utf-8"?>
<!-- Generator: Adobe Illustrator 26.5.2, SVG Export Plug-In . SVG Version: 6.00 Build 0)  -->
<svg version="1.1" id="Calque_1" xmlns="http://www.w3.org/2000/svg" xmlns:xlink="http://www.w3.org/1999/xlink" x="0px" y="0px"
	 width="182px" height="92px" viewBox="0 0 182 92" style="enable-background:new 0 0 182 92;" xml:space="preserve">
<style type="text/css">
	.st0{fill:none;}
</style>
<g>
	<path d="M23,68.5v2c6-1.5,12.4-5.1,15.9-8.3c2.3-2.2,4.4-4.7,6-7.7c0,0,0.1-0.1,0.1-0.3c1.5-2.7,2.6-5.9,3.4-9.7
		c2.2-10.4-1.1-20.7-1.8-22.1c-0.7-1.1-1.8-0.9-2.6-0.9c-0.1,0-0.4,0-0.5,0H23v23.7h15.6c0.1,0,0.4,0,0.4,0c0.5,0.1,1,0.4,1,0.9
		c0,0.1,0,0.3,0,0.4c0,4.7-2.3,14.1-15.8,20L23,67.2V68.5z"/>
	<path d="M59.2,21.7h5.3v0.8h-4.2V25h3.9v0.8h-3.9v2.6h4.2v0.8h-5.3V21.7z"/>
	<path d="M67.6,22.5H65v-0.8h6.1v0.8h-2.6v6.7h-1V22.5z"/>
	<path d="M73.3,21.7h1.1l3,7.5h-1.1L75.5,27h-3.3l-0.8,2.3h-1.1L73.3,21.7z M72.6,26.2h2.6L74,22.7L72.6,26.2z"/>
	<path d="M79.2,22.5h-2.6v-0.8h6.1v0.8h-2.6v6.7h-1V22.5z"/>
	<path d="M86.9,21.7h2.6c2.3,0,3.7,1.2,3.7,3.6c0,2.6-1.1,3.9-3.7,3.9h-2.6V21.7z M87.9,28.3h1.6c0.7,0,2.6-0.1,2.6-3
		c0-1.7-0.7-2.8-2.6-2.8h-1.6V28.3z"/>
	<path d="M94.5,21.7h5.3v0.8h-4.2V25h3.9v0.8h-3.9v2.6h4.2v0.8h-5.3V21.7z"/>
	<path d="M104.5,21.7h5v0.8h-3.9V25h3.5v0.8h-3.5v3.5h-1v-7.5H104.5z"/>
	<path d="M110.9,21.7h3.5c1.4,0,2.3,0.8,2.3,2c0,0.9-0.4,1.6-1.4,1.9c1,0.1,1.1,0.8,1.1,1.6c0,0.7,0,1.6,0.4,2h-1.1
		c-0.3-0.3-0.1-1.1-0.3-1.9c-0.1-0.7-0.3-1.3-1.2-1.3h-2.4v3.2h-1V21.7z M113.8,25.2c1,0,1.8-0.3,1.8-1.3c0-0.7-0.4-1.3-1.4-1.3
		h-2.4v2.6h2V25.2z"/>
	<path d="M118.3,21.7h1v7.5h-1V21.7z"/>
	<path d="M121.2,21.7h2.7c0.7,0,1.5,0,2,0.3c0.5,0.3,1,0.8,1,1.6s-0.4,1.3-1.1,1.7c1,0.1,1.5,0.9,1.5,1.7c0,1.1-0.8,2.2-2.3,2.2
		h-3.7v-7.5H121.2z M122.3,25h2c1.1,0,1.6-0.4,1.6-1.2c0-1.1-0.7-1.2-1.6-1.2h-2V25z M122.3,28.3h2.6c0.8,0,1.4-0.5,1.4-1.3
		c0-0.9-0.8-1.2-1.6-1.2h-2.3V28.3z"/>
	<path d="M131.9,21.5c2.4,0,3.7,1.9,3.7,3.9c0,2-1.2,3.9-3.7,3.9c-2.4,0-3.7-1.9-3.7-3.9C128.3,23.5,129.5,21.5,131.9,21.5z
		 M131.9,28.6c1.9,0,2.6-1.6,2.6-3.1s-0.8-3.1-2.6-3.1c-1.9,0-2.6,1.6-2.6,3.1S130.2,28.6,131.9,28.6z"/>
	<path d="M143.1,26.4c0,1.9-1.1,3-3,3c-1.9,0-3.1-0.9-3.1-3v-4.7h1v4.8c0,1.3,0.8,2,2,2c1.2,0,2-0.7,2-2v-4.8h1v4.7H143.1z"/>
	<path d="M145,21.7h3.5c1.4,0,2.3,0.8,2.3,2c0,0.9-0.4,1.6-1.4,1.9c1,0.1,1.1,0.8,1.1,1.6c0,0.7,0,1.6,0.4,2h-1.1
		c-0.3-0.3-0.1-1.1-0.3-1.9c-0.1-0.7-0.3-1.3-1.2-1.3h-2.4v3.2h-1V21.7z M148.1,25.2c1,0,1.8-0.3,1.8-1.3c0-0.7-0.4-1.3-1.4-1.3
		h-2.4v2.6h2V25.2z"/>
	<path d="M158.2,28.3c-0.5,0.8-1.5,1.1-2.4,1.1c-2.3,0-3.7-1.9-3.7-3.8c0-2.2,1.2-4,3.7-4c1.6,0,3,0.7,3.3,2.6h-1
		c-0.1-1.1-1.1-1.6-2.3-1.6c-1.9,0-2.6,1.6-2.6,3.2c0,1.6,1,3,2.6,3c1.6,0,2.4-1.1,2.4-2.4h-2.4v-0.8h3.3v3.9h-0.7L158.2,28.3z"/>
	<path d="M63.7,38.9c-0.1-1.1-0.8-1.5-1.9-1.5c-0.8,0-1.8,0.3-1.8,1.3c0,0.9,1.2,1.1,2.4,1.3c1.2,0.3,2.4,0.7,2.4,2.2
		c0,1.6-1.6,2.3-3,2.3c-1.8,0-3.1-0.8-3.1-2.7h1c0,1.2,1.1,1.7,2.2,1.7c1,0,1.9-0.3,1.9-1.3c0-1.1-1.2-1.2-2.4-1.5
		c-1.2-0.3-2.4-0.7-2.4-2c0-1.5,1.4-2.2,2.7-2.2c1.5,0,2.7,0.7,2.9,2.4h-0.8V38.9z"/>
	<path d="M67.6,37.6H65v-0.8h6.1v0.8h-2.6v6.7h-1V37.6z"/>
	<path d="M73.3,36.8h1.1l3,7.5h-1.1L75.5,42h-3.3l-0.8,2.3h-1.1L73.3,36.8z M72.5,41.1h2.6l-1.2-3.5L72.5,41.1z"/>
	<path d="M80.4,36.8h1.1l3,7.5h-1.1L82.6,42h-3.3l-0.8,2.3h-1.1L80.4,36.8z M79.7,41.1h2.6l-1.2-3.5L79.7,41.1z"/>
	<path d="M86.2,37.6h-2.6v-0.8h6.1v0.8h-2.6v6.7h-1V37.6z"/>
	<path d="M94,36.8h5v0.8h-3.9V40h3.5v0.8h-3.5v3.5h-1v-7.5H94z"/>
	<path d="M100.2,36.8h3.5c1.4,0,2.3,0.8,2.3,2c0,0.9-0.4,1.6-1.4,1.9c0.8,0.1,1.1,0.8,1.1,1.6c0,0.7,0,1.6,0.4,2h-1.1
		c-0.3-0.3-0.1-1.1-0.3-1.9c-0.1-0.7-0.3-1.3-1.2-1.3h-2.4v3.2h-1V36.8z M103.4,40.1c1,0,1.8-0.3,1.8-1.3c0-0.7-0.4-1.3-1.4-1.3
		h-2.4V40h2V40.1z"/>
	<path d="M107.7,36.8h5.3v0.8h-4.2V40h3.9v0.8h-3.9v2.6h4.2v0.8h-5.3V36.8z"/>
	<path d="M114.5,36.8h1v7.5h-1V36.8z"/>
	<path d="M117.5,36.8h2.7c0.7,0,1.5,0,2,0.3c0.5,0.3,1,0.8,1,1.6c0,0.8-0.4,1.3-1.1,1.7c1,0.1,1.5,0.9,1.5,1.7
		c0,1.1-0.8,2.2-2.3,2.2h-3.7v-7.5H117.5z M118.5,40h2c1.1,0,1.6-0.4,1.6-1.2c0-1.1-0.7-1.2-1.6-1.2h-2V40z M118.5,43.4h2.6
		c0.8,0,1.4-0.5,1.4-1.3c0-0.9-0.8-1.2-1.6-1.2h-2.3V43.4z"/>
	<path d="M131,41.5c0,1.9-1.1,3-3,3c-1.9,0-3.1-0.9-3.1-3v-4.8h1.1v4.8c0,1.3,0.8,2,2,2c1.2,0,2-0.7,2-2v-4.8h1V41.5z"/>
	<path d="M132.9,36.8h3.5c1.4,0,2.3,0.8,2.3,2c0,0.9-0.4,1.6-1.4,1.9c0.8,0.1,1.1,0.8,1.1,1.6c0,0.7,0,1.6,0.4,2h-1.1
		c-0.3-0.3-0.1-1.1-0.3-1.9c-0.1-0.7-0.3-1.3-1.2-1.3h-2.4v3.2h-1V36.8z M136,40.1c1,0,1.8-0.3,1.8-1.3c0-0.7-0.4-1.3-1.4-1.3H134
		V40h2V40.1z"/>
	<path d="M146.1,43.2c-0.5,0.8-1.5,1.1-2.4,1.1c-2.3,0-3.7-1.9-3.7-3.8c0-2.2,1.2-4,3.7-4c1.6,0,3,0.7,3.3,2.6h-1
		c-0.1-1.1-1.1-1.6-2.3-1.6c-1.9,0-2.6,1.6-2.6,3.2c0,1.6,1,3,2.6,3s2.4-1.1,2.4-2.4h-2.4v-0.8h3.3v3.9h-0.5L146.1,43.2z"/>
	<path d="M63.9,59.2h-0.7L62,54.9l-1.2,4.3h-0.7l-1.4-5.1h0.7l1.1,4.3l1.2-4.3h0.8l1.1,4.3l1.1-4.3h0.7L63.9,59.2z"/>
	<path d="M70.9,59.2h-0.7L69,54.9l-1.2,4.3h-0.7l-1.4-5.1h0.7l1.1,4.3l1.2-4.3h0.8l1.1,4.3l1.1-4.3h0.7L70.9,59.2z"/>
	<path d="M77.8,59.2h-0.7l-1.2-4.3l-1.2,4.3H74l-1.4-5.1h0.7l1.1,4.3l1.2-4.3h0.8l1.1,4.3l1.1-4.3h0.7L77.8,59.2z"/>
	<path d="M79.6,58.4h0.8v0.8h-0.8V58.4z"/>
	<path d="M81.6,54.1h3.5v0.5h-2.7v1.6h2.4v0.5h-2.4v2.4h-0.7v-5.1H81.6z"/>
	<path d="M86,54.1h2.4c1,0,1.6,0.5,1.6,1.3c0,0.7-0.3,1.1-1,1.3c0.5,0.1,0.7,0.5,0.8,1.1c0,0.5,0,1.1,0.3,1.5h-0.8
		c-0.1-0.3,0-0.8-0.1-1.3s-0.1-0.9-0.8-0.9h-1.6v2.2h-0.7v-5.1H86z M88.1,56.6c0.7,0,1.2-0.1,1.2-0.9c0-0.5-0.3-0.9-1-0.9h-1.8v1.7
		h1.5V56.6z"/>
	<path d="M91.3,58.4H92v0.8h-0.8v-0.8H91.3z"/>
	<path d="M97,55.6c-0.1-0.7-0.7-1.1-1.5-1.1c-1.2,0-1.8,1.1-1.8,2.2c0,1.2,0.5,2.2,1.8,2.2c1,0,1.5-0.7,1.5-1.5h0.7
		c-0.1,1.3-1,2-2.3,2c-1.6,0-2.4-1.2-2.4-2.7s0.8-2.7,2.4-2.7c1.1,0,2,0.5,2.2,1.6H97z"/>
	<path d="M98.8,54.1h0.7v2.2h2.7v-2.2h0.7v5.1h-0.7v-2.4h-2.7v2.4h-0.7V54.1z"/>
</g>
<rect y="0" class="st0" width="182" height="92"/>
</svg>
