<?xml version="1.0" encoding="utf-8"?>
<!-- Generator: Adobe Illustrator 26.5.2, SVG Export Plug-In . SVG Version: 6.00 Build 0)  -->
<svg version="1.1" id="Calque_1" xmlns="http://www.w3.org/2000/svg" xmlns:xlink="http://www.w3.org/1999/xlink" x="0px" y="0px"
	 width="182px" height="92px" viewBox="0 0 182 92" style="enable-background:new 0 0 182 92;" xml:space="preserve">
<style type="text/css">
	.st0{fill:none;}
</style>
<g>
	<path d="M29.5,43.8c0-5.5,4.5-10.1,10-10.1c5.5,0,10,4.5,10,10.1c0,1.3-0.3,2.6-0.8,3.8c-0.5,1.2-1.2,2.3-2.2,3.2
		c-0.9,0.9-2,1.7-3.2,2.2c-1.2,0.5-2.5,0.8-3.8,0.8c-1.3,0-2.6-0.3-3.8-0.8c-1.2-0.5-2.3-1.2-3.2-2.2c-0.9-0.9-1.7-2-2.2-3.2
		C29.8,46.4,29.5,45.1,29.5,43.8z M163,21v50H19V21H163z M23.7,40.5c0,3.1,0.9,6.2,2.7,8.7c1.7,2.6,4.2,4.6,7.1,5.8
		c2.9,1.2,6.1,1.5,9.1,0.9c3.1-0.6,5.9-2.1,8.1-4.3c2.2-2.2,3.7-5,4.3-8.1c0.6-3.1,0.3-6.2-0.9-9.1c-1.2-2.9-3.2-5.3-5.8-7.1
		c-2.6-1.7-5.7-2.7-8.8-2.7c-2.1,0-4.1,0.4-6.1,1.2s-3.7,2-5.1,3.4c-1.5,1.5-2.6,3.2-3.4,5.1C24.1,36.4,23.7,38.5,23.7,40.5z
		 M20.1,29.1c1.6-2.8,3.8-5.2,6.5-7h-6.5V29.1z M161.9,22.1H52.5c2.8,1.9,5.1,4.4,6.7,7.4c1.7,2.9,2.6,6.2,2.9,9.5
		c0.2,3.4-0.3,6.7-1.5,9.9c-1.2,3.1-3.2,5.9-5.7,8.2c-2.5,2.3-5.4,4-8.7,5c-3.2,1-6.6,1.3-10,0.8c-3.3-0.5-6.5-1.7-9.3-3.6
		c-2.8-1.9-5.1-4.4-6.9-7.3v17.9h141.8V22.1z M83.1,31.1h4v8.3H91v3.4h-7.9V31.1z M92.4,36.9c0-0.9,0.2-1.7,0.5-2.5
		c0.3-0.7,0.8-1.4,1.4-1.9c0.6-0.5,1.3-1,2.1-1.2c1.7-0.6,3.5-0.6,5.2,0c0.8,0.3,1.5,0.7,2.1,1.2c0.6,0.5,1.1,1.2,1.4,1.9
		c0.3,0.8,0.5,1.7,0.5,2.5c0,0.9-0.2,1.8-0.5,2.6c-0.3,0.8-0.8,1.4-1.4,2c-0.6,0.6-1.3,1-2.1,1.3c-1.7,0.6-3.5,0.6-5.2,0
		c-0.8-0.3-1.5-0.7-2.1-1.3c-0.6-0.6-1.1-1.2-1.4-2C92.6,38.7,92.4,37.8,92.4,36.9z M96.6,36.9c0,0.4,0.1,0.7,0.2,1.1
		c0.1,0.3,0.3,0.6,0.5,0.8c0.2,0.2,0.5,0.4,0.7,0.5c0.3,0.1,0.6,0.2,0.9,0.2c0.3,0,0.6-0.1,0.9-0.2c0.3-0.1,0.5-0.3,0.7-0.5
		c0.2-0.2,0.4-0.5,0.5-0.8c0.1-0.3,0.2-0.7,0.2-1.1c0-0.4-0.1-0.7-0.2-1c-0.1-0.3-0.3-0.6-0.5-0.8c-0.2-0.2-0.5-0.4-0.7-0.5
		c-0.3-0.1-0.6-0.2-0.9-0.2c-0.3,0-0.6,0.1-0.9,0.2c-0.3,0.1-0.5,0.3-0.7,0.5c-0.2,0.2-0.4,0.5-0.5,0.8
		C96.7,36.2,96.6,36.5,96.6,36.9L96.6,36.9z M113.6,42.8h-3.9v-8.4h-2.9v-3.3h9.8v3.3h-2.9L113.6,42.8z M118.7,31.1h8.1v3.3h-4.4v1
		h4.1v3.1h-4.1v1.1h4.7v3.3h-8.4L118.7,31.1z M129.7,31.1h5.1c0.6,0,1.2,0.1,1.7,0.2c0.5,0.1,1.1,0.3,1.5,0.6
		c0.5,0.3,0.8,0.7,1.1,1.2c0.3,0.6,0.5,1.2,0.4,1.9c0,0.7-0.2,1.3-0.5,1.9c-0.4,0.6-0.9,1-1.5,1.3l3,4.8H136l-2.3-4.2h-0.1v4.2h-3.8
		L129.7,31.1z M133.5,36.1h0.8c0.1,0,0.3,0,0.4,0c0.2,0,0.3-0.1,0.4-0.1c0.2-0.1,0.3-0.2,0.4-0.3c0.1-0.1,0.2-0.3,0.1-0.5
		c0-0.2,0-0.4-0.1-0.5c-0.1-0.1-0.2-0.2-0.3-0.3c-0.1-0.1-0.3-0.1-0.4-0.1c-0.1,0-0.3,0-0.4,0h-0.9L133.5,36.1z M142,31.1h4v11.7h-4
		L142,31.1z M148.5,31.1h8.1v3.3h-4.4v1h4.1v3.1h-4.1v1.1h4.7v3.3h-8.4L148.5,31.1z M65.4,48.2h5.1c0.6,0,1.2,0.1,1.7,0.2
		c0.5,0.1,1.1,0.3,1.5,0.6c0.5,0.3,0.8,0.7,1.1,1.2c0.3,0.6,0.4,1.2,0.4,1.8c0,0.7-0.2,1.3-0.5,1.9c-0.4,0.6-0.9,1-1.5,1.3l3,4.7
		h-4.5l-2.3-4.2h-0.1v4.2h-3.9V48.2z M69.3,53.2H70c0.1,0,0.3,0,0.4,0c0.2,0,0.3-0.1,0.4-0.1c0.1-0.1,0.3-0.2,0.3-0.3
		c0.1-0.1,0.1-0.3,0.1-0.5c0-0.2,0-0.4-0.1-0.5c-0.1-0.1-0.2-0.2-0.3-0.3c-0.1-0.1-0.3-0.1-0.4-0.1c-0.1,0-0.3,0-0.4,0h-0.9
		L69.3,53.2z M76.8,54c0-0.9,0.2-1.7,0.5-2.5c0.3-0.7,0.8-1.4,1.4-1.9c0.6-0.5,1.3-1,2.1-1.2c1.7-0.6,3.5-0.6,5.2,0
		c0.8,0.3,1.5,0.7,2.1,1.2c0.6,0.5,1.1,1.2,1.4,1.9c0.3,0.8,0.5,1.7,0.5,2.5c0,0.9-0.2,1.8-0.5,2.6c-0.3,0.7-0.8,1.4-1.4,2
		c-0.6,0.6-1.3,1-2.1,1.3c-1.7,0.6-3.5,0.6-5.2,0c-0.8-0.3-1.5-0.7-2.1-1.3c-0.6-0.6-1.1-1.2-1.4-2C77,55.8,76.8,54.9,76.8,54
		L76.8,54z M81,54c0,0.4,0.1,0.7,0.2,1.1c0.1,0.3,0.3,0.6,0.5,0.8c0.2,0.2,0.5,0.4,0.7,0.5c0.3,0.1,0.6,0.2,0.9,0.2
		c0.3,0,0.6-0.1,0.9-0.2c0.3-0.1,0.5-0.3,0.8-0.5c0.2-0.2,0.4-0.5,0.5-0.8c0.1-0.3,0.2-0.7,0.2-1.1c0-0.4-0.1-0.7-0.2-1
		c-0.1-0.3-0.3-0.6-0.5-0.8c-0.2-0.2-0.5-0.4-0.7-0.5c-0.3-0.1-0.6-0.2-0.9-0.2c-0.3,0-0.6,0.1-0.9,0.2c-0.3,0.1-0.5,0.3-0.7,0.5
		c-0.2,0.2-0.4,0.5-0.5,0.8C81.1,53.3,81,53.7,81,54L81,54z M95,53.3l0.2,6.6h-3.7V48.2h5.2l2.1,6.3h0.1l1.8-6.3h5.3v11.7h-3.8
		l0.1-6.6l-0.1,0l-2.2,6.6h-2.8L95,53.3L95,53.3z M112.1,48.2h4.2l4.6,11.7h-4.3l-0.6-1.7h-3.7l-0.6,1.7h-4.2L112.1,48.2z
		 M114.2,52.3l-1,2.9h1.9L114.2,52.3z M122.3,48.2h3.9l3.4,5.9h0.1l-0.2-5.9h3.8v11.7h-4l-3.3-5.6h-0.1l0.2,5.6h-3.8L122.3,48.2z
		 M135.4,59.9V48.2h4.4c0.9,0,1.8,0.1,2.7,0.3c0.8,0.2,1.6,0.5,2.2,0.9c0.7,0.5,1.2,1.1,1.6,1.8c0.4,0.9,0.6,1.8,0.6,2.8
		c0,0.9-0.2,1.8-0.5,2.7c-0.3,0.7-0.9,1.3-1.5,1.8c-0.6,0.5-1.4,0.9-2.1,1.1c-0.8,0.2-1.7,0.3-2.5,0.3L135.4,59.9z M139.3,51.6v5
		h0.7c0.9,0,1.6-0.2,2.1-0.6c0.5-0.4,0.7-1.1,0.7-2c0-0.3,0-0.7-0.2-1c-0.1-0.3-0.3-0.6-0.6-0.8c-0.6-0.4-1.3-0.7-2-0.6L139.3,51.6z
		 M148.5,48.2h8.1v3.3h-4.4v1h4.1v3.1h-4.1v1.1h4.7V60h-8.4V48.2z"/>
</g>
<rect y="0" class="st0" width="182" height="92"/>
</svg>
