<?xml version="1.0" encoding="utf-8"?>
<!-- Generator: Adobe Illustrator 26.5.2, SVG Export Plug-In . SVG Version: 6.00 Build 0)  -->
<svg version="1.1" id="Calque_1" xmlns="http://www.w3.org/2000/svg" xmlns:xlink="http://www.w3.org/1999/xlink" x="0px" y="0px"
	 width="182px" height="92px" viewBox="0 0 182 92" style="enable-background:new 0 0 182 92;" xml:space="preserve">
<style type="text/css">
	.st0{fill:none;}
</style>
<g>
	<path d="M65.8,44.4L61,38.1l4-6l-6.7,2.6L54.1,29l0,7.1l-6.3,2.5l6.3,1.9l0,7.1l4.1-5.6L65.8,44.4z"/>
	<path d="M100.9,50.3h3.7v4.6c-0.9,0.5-2.1,0.8-3.3,0.8c-1.9,0-3.4-0.6-4.5-1.8c-1.1-1.2-1.7-2.9-1.7-5c0-2,0.6-3.7,1.8-5
		c1.2-1.3,2.7-1.9,4.6-1.9c1.8,0,3.5,0.4,4.8,1.3l0.1,0.1v-2.4l-0.1,0c-1.3-0.6-2.8-0.9-4.7-0.9c-2.6,0-4.7,0.9-6.4,2.6
		c-1.7,1.7-2.5,3.9-2.5,6.5c0,2.6,0.8,4.7,2.3,6.3c1.5,1.6,3.5,2.4,5.9,2.4c2.1,0,4-0.5,5.7-1.5l0,0v-7.8h-5.9V50.3z"/>
	<path d="M115.5,44.8c-0.7,0-1.4,0.2-2,0.7c-0.5,0.4-0.9,1-1.2,1.7V45h-2.1v10.5l2.1,1.8h0V51c0-1.3,0.3-2.4,0.8-3.1
		c0.5-0.8,1.2-1.1,2-1.1c0.6,0,1.1,0.1,1.4,0.4l0.2,0.1V45l-0.1,0C116.4,44.9,116,44.8,115.5,44.8z"/>
	<path d="M126.5,52.1c0,1.1-0.3,2-0.9,2.7c-0.6,0.7-1.4,1-2.3,1c-1.9,0-2.8-1.2-2.8-3.7v-7h-2.1v7.3c0,3.5,1.5,5.2,4.4,5.2
		c1.6,0,2.9-0.7,3.7-2v1.7h2.1V45h-2.1V52.1z"/>
	<path d="M136.5,54.4c-0.1,0.3-0.1,0.5-0.2,0.7c-0.1-0.4-0.2-0.6-0.2-0.7l-3.3-9.3l0-0.1h-2.4l4.8,12.2l-1,2.3
		c-0.6,1.5-1.7,2-3.2,1.5l-0.1,0v1.9l0.1,0c0.3,0.1,0.8,0.2,1.3,0.2c1.8,0,3.3-1.3,4.3-3.8l5.6-14l0-0.1h-2.2L136.5,54.4z"/>
	<path d="M150,43.2l-2.3-3.3h-3.6l4.1,3.3H150z"/>
	<path d="M148.7,44.7c-1.6,0-3,0.6-4,1.8c-1.1,1.2-1.6,2.8-1.6,4.7c0,2,0.5,3.6,1.5,4.7c1,1.1,2.4,1.7,4.1,1.7
		c1.7,0,3.1-0.4,4.2-1.1l-1.4-1.2c-0.7,0.3-1.5,0.5-2.3,0.5c-1.2,0-2.1-0.4-2.8-1.1c-0.7-0.7-1-1.7-1.1-3h8.5v-1.1
		c0-1.8-0.4-3.3-1.3-4.3C151.6,45.3,150.3,44.7,148.7,44.7z M145.3,49.9c0.2-1,0.5-1.8,1.1-2.4c0.6-0.6,1.4-1,2.3-1
		c0.9,0,1.6,0.3,2.1,0.9c0.5,0.6,0.8,1.4,0.8,2.5H145.3z"/>
	<path d="M161.8,44.8c-0.7,0-1.4,0.2-2,0.7c-0.5,0.4-0.9,1-1.2,1.7V45h-2.1v10.5l2.1,1.8h0V51c0-1.3,0.3-2.4,0.8-3.1
		c0.5-0.8,1.2-1.1,2-1.1c0.6,0,1.1,0.1,1.4,0.4l0.2,0.1V45l-0.1,0C162.7,44.9,162.3,44.8,161.8,44.8z"/>
	<path d="M169.4,44.7c-1.6,0-3,0.6-4,1.8c-1.1,1.2-1.6,2.8-1.6,4.7c0,2,0.5,3.6,1.5,4.7c1,1.1,2.4,1.7,4.1,1.7
		c1.8,0,3.2-0.4,4.3-1.2l-1.4-1.2c-0.8,0.4-1.6,0.5-2.4,0.5c-1.2,0-2.1-0.4-2.8-1.1c-0.7-0.7-1-1.7-1.1-3h8.5v-1.1
		c0-1.8-0.4-3.3-1.3-4.3C172.3,45.3,171,44.7,169.4,44.7z M166,49.9c0.2-1,0.5-1.8,1.1-2.4c0.6-0.6,1.4-1,2.3-1
		c0.9,0,1.6,0.3,2.1,0.9c0.5,0.6,0.8,1.4,0.8,2.5H166z"/>
	<path d="M16.6,57c2.8,0,5.1-0.9,6.8-2.7c1.7-1.8,2.5-4.3,2.5-7.5c0-2.9-0.8-5.2-2.5-7C21.8,37.9,19.7,37,17,37
		c-2.9,0-5.2,0.9-6.9,2.8c-1.7,1.8-2.5,4.3-2.5,7.4c0,2.9,0.8,5.2,2.5,7C11.7,56,13.9,57,16.6,57z M11.8,41.2c1.3-1.5,2.9-2.2,5-2.2
		c2.1,0,3.8,0.7,4.9,2.1c1.2,1.4,1.8,3.4,1.8,5.9c0,2.5-0.6,4.4-1.8,5.8c-1.2,1.4-2.9,2.1-5.1,2.1c-2,0-3.6-0.7-4.9-2.2
		c-1.2-1.4-1.9-3.4-1.9-5.7C9.9,44.6,10.5,42.7,11.8,41.2z"/>
	<path d="M39.5,54.9c1.1-1.4,1.7-3.2,1.7-5.5c0-2.1-0.5-3.7-1.5-5c-1-1.2-2.4-1.8-4.2-1.8c-2.1,0-3.7,0.9-4.8,2.7h-0.1v-2.4h-2.2
		v15.6l2.2,1.9v-5.7h0.1c1,1.5,2.4,2.3,4.2,2.3C36.8,57,38.3,56.3,39.5,54.9z M31.7,53.9c-0.7-0.8-1.1-1.8-1.1-2.9v-1.9
		c0-1.3,0.4-2.5,1.2-3.4c0.8-0.9,1.8-1.3,3.1-1.3c1.2,0,2.2,0.4,2.9,1.3c0.7,0.9,1.1,2.1,1.1,3.6c0,1.8-0.4,3.2-1.1,4.3
		c-0.8,1-1.8,1.5-3.2,1.5C33.4,55.1,32.5,54.7,31.7,53.9z"/>
	<path d="M48.5,56.9c0.1,0,0.2,0,0.3,0l1.8-2.3c-0.4,0.3-0.9,0.4-1.4,0.4c-0.7,0-1.3-0.2-1.6-0.6c-0.3-0.4-0.5-1.1-0.5-2v-7.8h3.5
		v-1.9h-3.5v-4.1l-2.2,0.7v3.4h-2.4v1.9h2.4v8.2C44.9,55.6,46.1,56.9,48.5,56.9z"/>
	<path d="M56.4,47.7l-2.2,2.9v6.1h2.2V47.7z"/>
	<path d="M66.7,57c2.1,0,3.8-0.7,5.1-2c1.3-1.3,1.9-3.1,1.9-5.3c0-2.2-0.6-4-1.7-5.3c-1.2-1.3-2.8-1.9-4.9-1.9c-0.2,0-0.4,0-0.5,0
		l1.4,1.9c0.9,0.2,1.7,0.6,2.3,1.3c0.8,0.9,1.2,2.3,1.2,4c0,1.7-0.4,3-1.2,3.9c-0.8,0.9-1.9,1.4-3.3,1.4c-1.4,0-2.5-0.5-3.4-1.4
		c-0.8-0.9-1.3-2.2-1.3-3.9c0-1.7,0.4-3,1.3-4c0.1-0.1,0.3-0.3,0.4-0.4l-2.3-0.7c-1.1,1.3-1.7,3-1.7,5.1c0,2.1,0.6,3.8,1.8,5.1
		C63,56.3,64.7,57,66.7,57z"/>
	<path d="M79.4,48.8c0-1.3,0.4-2.3,1.1-3.1c0.7-0.8,1.7-1.2,2.8-1.2c2.2,0,3.2,1.5,3.2,4.4v6l2.2,1.9h0v-8.4c0-1.8-0.4-3.2-1.2-4.2
		c-0.8-1-2-1.5-3.5-1.5c-2,0-3.5,0.9-4.6,2.6h-0.1v-2.3h-2.2v11.9l2.2,1.9L79.4,48.8L79.4,48.8z"/>
</g>
<rect y="0" class="st0" width="182" height="92"/>
</svg>
